<svg viewBox="0 0 264 280" class="avatar" xmlns="http://www.w3.org/2000/svg" width="300" height="300">
  <g fill="none" fill-rule="evenodd">
    <g transform="translate(12 40)">
      <mask id="a" fill="#fff">
        <circle cx="120" cy="120" r="120"/>
      </mask>
      <circle cx="120" cy="120" r="120"/>
      <g mask="url(#a)" fill="#65C9FF">
        <path d="M0 0h240v240H0z" class="bg"/>
      </g>
    </g>
    <mask id="b" fill="#fff">
      <path d="M12 160a120 120 0 0 0 240 0h12V0H0v160h12z"/>
    </mask>
    <g mask="url(#b)">
      <defs>
        <path d="M0 0h264v280H0z"/>
        <path d="M94.3 52h-1 1M86 36.3s0 .2 0 0m107.7 34.5a63 63 0 0 0-4-17.4c-.7-1.5-2-3.5-2.2-5.1-.2-1.6 1-3.3 1.3-5.2a16 16 0 0 0-.2-5.4 11 11 0 0 0-7.8-8.8c-1-.3-3 0-3.7-.5-.7-.7-1.3-2.8-2-3.7a9 9 0 0 0-8.3-3.5c-2.4.4-1 .9-2.9-.5-1-.8-1.7-2-2.7-2.9a24.7 24.7 0 0 0-4.9-3.2c-4.5-2.4-9.7-4.1-14.8-5a68.3 68.3 0 0 0-28.2 2.3c-4.5 1.2-9 2.7-13.2 4.7-1.8.9-2.8 1.6-4.7 1.8-2.9.4-5.4.4-8.1 1.6a16.3 16.3 0 0 0-9 21.2 14.6 14.6 0 0 0 2.7 4.6c1.5 1.6 2.1 1.3.8 3.2a52.8 52.8 0 0 0-5 9.2A65.2 65.2 0 0 0 73 85c.1 3.2.3 6.3.8 9.5.2 1.3.2 3.8 1.2 4.8a2 2 0 0 0 2 .6c1.7-.5 1.1-1.7 1.2-2.9.2-5.9-.1-11 1.3-16.9 1-4.3 2.7-8.2 5-12a72 72 0 0 1 9.8-13.4c1-1 1.1-1.4 2.3-1.5 1 0 2.3.6 3.2.8a58.3 58.3 0 0 0 17.3 1.8 100 100 0 0 0 22-2.6c4.9-1.2 9.1-3.4 13.7-5 0 0 1.2-1 1.4-.9.3 0 2 1.9 2.3 2 2.2 1.8 4.6 2.6 7 4 3 1.6.1-.8 1.8 1.3.4.6.7 1.7 1 2.4a18 18 0 0 0 5 5.6c2 1.5 4.9 2.2 5.9 4.1.8 1.5 1 3.5 1.6 5 1.7 4.2 3.8 8 6 12 1.7 3 3.6 5.8 3.8 9.4 0 1.3-1.1 8.7 1.8 6.5.4-.4 1.3-4.2 1.5-4.8.8-2.7 1-5.4 1.4-8.1.7-5.4 1-10.5.5-16"/>
      </defs>
      <mask id="o" fill="#fff">
        <path d="M0 0h264v280H0z"/>
      </mask>
      <g class="kids">
        <g mask="url(#mask-4)" transform="matrix(0.95387, 0.066701, -0.066701, 0.95387, 65.144455, 2.5549)" class="z">
          <g transform="translate(32 36)">
            <mask id="c" fill="#fff">
              <path d="M124 144.6V163h4a72 72 0 0 1 72 72v9H0v-9a72 72 0 0 1 72-72h4v-18.4A56 56 0 0 1 44.3 100 12 12 0 0 1 34 88V74a12 12 0 0 1 10-11.8V56a56 56 0 1 1 112 0v6.2A12 12 0 0 1 166 74v14c0 6-4.5 11-10.3 11.9a56 56 0 0 1-31.7 44.7z"/>
            </mask>
            <path d="M124 144.6V163h4a72 72 0 0 1 72 72v9H0v-9a72 72 0 0 1 72-72h4v-18.4A56 56 0 0 1 44.3 100 12 12 0 0 1 34 88V74a12 12 0 0 1 10-11.8V56a56 56 0 1 1 112 0v6.2A12 12 0 0 1 166 74v14c0 6-4.5 11-10.3 11.9a56 56 0 0 1-31.7 44.7z"/>
            <g mask="url(#c)" fill="#EDB98A">
              <path d="M-32 0h264v244H-32z"/>
            </g>
            <path d="M156 79v23a56 56 0 1 1-112 0V79v15a56 56 0 1 0 112 0V79z" fill-opacity=".1" fill="#000" mask="url(#c)"/>
          </g>
          <g transform="translate(0 170)">
            <defs>
              <path d="M165.6 29.3A72 72 0 0 1 232 101v8.9H32v-9a72 72 0 0 1 67.4-71.8c-.3 1-.4 2.2-.4 3.3C99 44.4 114 54 132.5 54S166 44.4 166 32.5c0-1.1-.1-2.2-.4-3.2z"/>
            </defs>
            <mask id="d" fill="#fff">
              <path d="M165.6 29.3A72 72 0 0 1 232 101v8.9H32v-9a72 72 0 0 1 67.4-71.8 14 14 0 0 0-.4 3.3C99 44.4 114 54 132.5 54S166 44.4 166 32.5a14 14 0 0 0-.4-3.2z"/>
            </mask>
            <path d="M165.6 29.3A72 72 0 0 1 232 101v8.9H32v-9a72 72 0 0 1 67.4-71.8 14 14 0 0 0-.4 3.3C99 44.4 114 54 132.5 54S166 44.4 166 32.5a14 14 0 0 0-.4-3.2z"/>
            <g mask="url(#d)" fill="#FF5C5C">
              <path d="M0 0h264v110H0z"/>
            </g>
            <g fill="#FFF" mask="url(#d)">
              <path d="M140.8 87.7l-7.4 7.9c1-3.6 1.8-7.6 3.2-11 .5-1 .1-1 1-1.5.6-.3 2 0 2.8 0 1.5.1 3.1.3 4.7 0-1.5 1.5-3 3-4.3 4.6m-15.3 4.1c-2.7-3.3-5.4-6.6-8.6-9.3 1.2.1 2.7 0 4 .2 1.9.4 1.8 1 2.7 3 1.5 2.9 3 5.7 4 8.8-.6-1-1.4-1.8-2-2.7m-9.2-12.5c1-1.6 1.2-3 3-3.8 2-1 5.2-.8 7.4-1-1.3 1.6-3 3.2-3.6 5.2-.9-1.7-2-3.2-3.6-4.2-.3 0 1.1 4.6 1.3 4.9-1.7-.1-3.5-.4-5.2-.1l.7-1m16.4-5c1.6 0 3.2.1 4.8.4-1.3 1.7-1.7 3.6-2.1 5.6-.5-2.2-2.2-4.4-3.8-6h1.1m-3.5 1c.3-.1 4.5 5.1 5 5.6l-9.8-.3c1.9-1.5 3-3.7 4.8-5.3m2.7 17.1l-1.2 4c-1.6-4.7-3.9-9.1-6-13.6l10 .3c-.8 3.1-1.9 6.2-2.8 9.3m7.2-17.4a36.2 36.2 0 0 1 4 4.4l1.2 1.7c-2.3-.3-4.6-.2-6.8-.2.5-2 1-4 .6-6.1l1 .2m7.7 5.6c-2.2-2.7-4.4-7.3-7.9-8-3.4-1-7.5-.5-11-.3-3.1.2-8.1-.2-10.8 1.6-1.4.9-2.5 3-3 4.5-.4 1.4.3 2.3-1.2 2.3l2.8 4a78 78 0 0 1 6.5 6.6c2.8 3.3 5.4 8.3 9.1 9.7-.7-.3 2.8-3 3.2-3.4l6.4-6.8 6-6.2c1.4-1.6 1.4-2.2-.1-4M113 72s-1-2-.8-2c-.5-.6-1-1.2-1.8-1.6-.7-.6-4.3-1.1-4.4-1.4 1.5 2.7 4.2 4.1 7 5M128.4 67.2c.1.6.4 1.2.7 1.8.1 0 1-4.2.9-4.5 0-.7-.4-4.5-1.2-4.5-1.3 0-.7 6.5-.4 7.2M155 65c-3 0-9.7 5.9-9 9a3.3 3.3 0 0 0 .5-.3c1.2-1 2.7-2 4-3.2.9-.9 2-1.6 2.8-2.6 0 0 2-2.9 1.7-2.9"/>
            </g>
          </g>
          <g fill="#000">
            <g>
              <g transform="matrix(1, 0, 0, 1, 1.045807, 1.332147)">
                <circle cx="107.127" cy="122.596" r="0.523" fill-opacity="1" fill="#a55517d4"/>
                <circle cx="102.947" cy="126.975" r="0.523" fill-opacity="1" fill="#a55517d4"/>
                <circle cx="111.62" cy="126.555" r="0.523" fill-opacity="1" fill="#a55517d4"/>
              </g>
              <g transform="matrix(1, 0, 0, 1, 47.461861, 1.332147)">
                <circle cx="107.127" cy="122.596" r="0.523" fill-opacity="1" fill="#a55517d4"/>
                <circle cx="102.947" cy="126.975" r="0.523" fill-opacity="1" fill="#a55517d4"/>
                <circle cx="111.62" cy="126.555" r="0.523" fill-opacity="1" fill="#a55517d4"/>
              </g>
            </g>
            <g transform="matrix(1.300103, 0, 0, 0.908065, 61.570538, 139.367722)">
              <defs>
                <path d="M35.1 15.1a19 19 0 0 0 37.8 0c0-.8-.8-2.1-1.9-2.1H37c-1 0-2 1.2-1.9 2.1z"/>
              </defs>
              <mask id="mask-2" fill="#fff">
                <path d="M35.1 15.1a19 19 0 0 0 37.8 0c0-.8-.8-2.1-1.9-2.1H37c-1 0-2 1.2-1.9 2.1z"/>
              </mask>
              <path d="M35.1 15.1a19 19 0 0 0 37.8 0c0-.8-.8-2.1-1.9-2.1H37c-1 0-2 1.2-1.9 2.1z"/>
              <rect fill="#FFF" mask="url(#mask-2)" x="39" y="2" width="31" height="16" rx="5"/>
              <g mask="url(#mask-2)" fill="#FF4F6D">
                <circle cx="49" cy="35" r="11"/>
                <circle cx="59" cy="35" r="11"/>
              </g>
            </g>
            <path d="M120 130c0 4.4 5.4 8 12 8s12-3.6 12-8" fill-opacity=".2"/>
            <g transform="translate(76 89)" fill-opacity=".6">
              <circle cx="30" cy="22" r="6" class="eye-open" fill-opacity="1" fill="#805a3c"/>
              <circle cx="82" cy="22" r="6" class="eye-open" fill-opacity="1" fill="#805a3c"/>
            </g>
            <g fill-opacity=".6" class="eyebrows" fill="#7a5c28">
              <path d="M 101.935 84.934 C 96.135 85.234 86.835 89.434 86.935 95.334 C 87.035 95.534 87.335 95.634 87.435 95.434 C 90.235 92.434 109.735 89.434 116.635 91.134 C 117.335 91.234 117.735 90.634 117.335 90.134 C 113.935 86.334 107.135 84.734 101.935 84.934 M 161.935 84.934 C 167.735 85.234 177.035 89.434 176.935 95.334 C 176.835 95.534 176.535 95.634 176.435 95.434 C 173.635 92.434 154.135 89.434 147.235 91.134 C 146.535 91.234 146.135 90.634 146.535 90.134 C 149.935 86.334 156.735 84.734 161.935 84.934" fill="#6e5436cc"/>
            </g>
            <path d="M 99.926 114.001 C 100.947 111.592 103.252 109.974 105.865 109.832 C 108.44 109.625 110.913 110.884 112.261 113.087 C 112.66 113.658 112.261 114.23 111.747 113.887 C 110.087 112.711 108.063 112.165 106.036 112.345 C 103.924 112.459 102.039 113.316 100.725 114.572 C 100.268 114.972 99.698 114.572 99.926 114.001 Z" class="right-eye eye-closed" fill="#473232"/>
            <path d="M 152.217 114.001 C 153.238 111.592 155.542 109.974 158.156 109.832 C 160.731 109.625 163.204 110.884 164.553 113.087 C 164.952 113.658 164.553 114.229 164.038 113.887 C 162.378 112.711 160.354 112.165 158.327 112.345 C 156.215 112.459 154.33 113.316 153.016 114.572 C 152.56 114.972 151.989 114.572 152.217 114.001 Z" class="left-eye eye-closed" fill="#473232"/>
          </g>
          <defs>
            <path d="M0 0h264v280H0z"/>
            <path d="M167.3 35a71.5 71.5 0 0 0-55.3-6c-15 3.8-24 14.7-31.6 30.6-3.8 7.9-6 17.2-6.4 25.9-.1 3.4.3 7 1.3 10.2.3 1.2 2.1 5.4 2.6 2 .2-1.1-.4-2.7-.5-3.9a40.5 40.5 0 0 1 7.4-25c6.4-8.3 17.5-8.8 26.3-13.3-.8 1.4-3.7 3.6-2.7 5.2.7 1.1 3.3.8 4.6.8 3.4-.1 6.7-.7 10-1.2 5.3-.7 10.1-2.2 15-4 4-1.6 8.7-3 11.7-6.2 4.8 5 11.1 9.8 17.4 13 5.6 3 14.6 4.4 18 10.2 4.1 7 2.3 15.4 3.5 22.9.5 2.9 1.6 2.8 2.2.2 1-4.3 1.4-8.8 1.1-13.2-.7-10-4.4-36.5-24.6-48.2z"/>
          </defs>
          <g transform="translate(-1)">
            <mask id="f" fill="#fff">
              <path d="M167.3 35a71.5 71.5 0 0 0-55.3-6c-15 3.8-24 14.7-31.6 30.6-3.8 7.9-6 17.2-6.4 25.9-.1 3.4.3 7 1.3 10.2.3 1.2 2.1 5.4 2.6 2 .2-1.1-.4-2.7-.5-3.9a40.2 40.2 0 0 1 1.8-13.3c1.3-4 3-8.3 5.6-11.7 6.4-8.3 17.5-8.8 26.3-13.3-.8 1.4-3.7 3.6-2.7 5.2.7 1.1 3.3.8 4.6.8 3.4-.1 6.7-.7 10-1.2 5.3-.7 10.1-2.2 15-4 4-1.6 8.7-3 11.7-6.2 4.8 5 11.1 9.8 17.4 13 5.6 3 14.6 4.4 18 10.2 4.1 7 2.3 15.4 3.5 22.9.5 2.8 1.6 2.8 2.2.2 1-4.3 1.4-8.8 1.1-13.2-.7-10-4.4-36.5-24.6-48.2z"/>
            </mask>
            <path d="M167.3 35a71.5 71.5 0 0 0-55.3-6c-15 3.8-24 14.7-31.6 30.6-3.8 7.9-6 17.2-6.4 25.9-.1 3.4.3 7 1.3 10.2.3 1.2 2.1 5.4 2.6 2 .2-1.1-.4-2.7-.5-3.9a40.2 40.2 0 0 1 1.8-13.3c1.3-4 3-8.3 5.6-11.7 6.4-8.3 17.5-8.8 26.3-13.3-.8 1.4-3.7 3.6-2.7 5.2.7 1.1 3.3.8 4.6.8 3.4-.1 6.7-.7 10-1.2 5.3-.7 10.1-2.2 15-4 4-1.6 8.7-3 11.7-6.2 4.8 5 11.1 9.8 17.4 13 5.6 3 14.6 4.4 18 10.2 4.1 7 2.3 15.4 3.5 22.9.5 2.8 1.6 2.8 2.2.2 1-4.3 1.4-8.8 1.1-13.2-.7-10-4.4-36.5-24.6-48.2z"/>
            <g mask="url(#f)" fill="#4A312C">
              <path d="M0 0h264v280H0z" fill="#715637"/>
            </g>
          </g>
          <g transform="matrix(0.991285, 0, 0, 0.991285, 61.720192, 85.150291)">
            <defs>
              <filter x="-.8%" y="-2.4%" width="101.5%" height="109.8%" filterUnits="objectBoundingBox" id="filter-1">
                <feOffset dy="2" in="SourceAlpha" result="shadowOffsetOuter1"/>
                <feColorMatrix values="0 0 0 0 0 0 0 0 0 0 0 0 0 0 0 0 0 0 0.2 0" in="shadowOffsetOuter1" result="shadowMatrixOuter1"/>
                <feMerge>
                  <feMergeNode in="shadowMatrixOuter1"/>
                  <feMergeNode in="SourceGraphic"/>
                </feMerge>
              </filter>
            </defs>
            <g filter="url(#filter-1)" transform="translate(6 7)" fill="#252C2F" fill-rule="nonzero">
              <path d="M 33.913 37.551 L 31.123 37.551 C 17.271 37.551 9 30.497 9 18.775 C 9 9.249 10.793 0 32.419 0 L 35.409 0 C 57.033 0 58.827 9.249 58.827 18.775 C 58.827 29.766 48.562 37.551 33.913 37.551 Z M 32.319 5.495 C 12.987 5.495 12.987 11.723 12.987 19.691 C 12.987 26.102 16.076 33.887 30.924 33.887 L 33.913 33.887 C 46.271 33.887 54.841 28.026 54.841 19.691 C 54.841 11.723 54.841 5.495 35.508 5.495 L 32.319 5.495 Z M 95.698 37.551 L 92.908 37.551 C 79.057 37.551 70.785 30.497 70.785 18.775 C 70.785 9.249 72.579 0 94.204 0 L 97.194 0 C 118.817 0 120.612 9.249 120.612 18.775 C 120.612 29.766 110.347 37.551 95.698 37.551 Z M 94.105 5.495 C 74.772 5.495 74.772 11.723 74.772 19.691 C 74.772 26.102 77.86 33.887 92.708 33.887 L 95.698 33.887 C 108.056 33.887 116.626 28.026 116.626 19.691 C 116.626 11.723 116.626 5.495 97.293 5.495 L 94.105 5.495 Z" fill="#000051"/>
              <path d="M 3 5.751 C 3.6 5.249 11.2 2.11 32.5 2.11 C 50.4 2.11 54.1 3.303 59.9 5.061 L 60.3 5.186 C 60.7 5.249 62.7 5.688 65.1 5.751 C 66.634 5.691 68.148 5.501 69.6 5.186 C 76.2 3.177 82.6 2.11 97.5 2.11 C 118.8 2.11 126.4 5.312 127 5.751 C 128.619 5.751 129.946 6.556 130 7.572 L 130 9.329 C 130 10.37 128.657 11.213 127 11.213 C 127 11.213 120.1 11.213 120.1 12.971 C 120.1 14.791 118.1 10.334 118.1 9.329 L 118.1 7.572 C 114.6 6.756 108.1 5.061 97.5 5.061 C 89.676 4.892 81.889 5.814 74.7 7.76 L 74.7 9.016 L 72.5 12.343 L 69.8 11.715 C 67.412 11.138 64.817 10.986 62.3 11.275 C 61.644 11.351 61.006 11.477 60.4 11.653 L 57.8 12.469 L 55.1 9.204 L 55.2 7.76 L 55.3 7.634 C 51 6.505 47 5.123 32.5 5.123 C 21.9 5.123 15.5 6.756 11.8 7.634 L 11.8 9.329 C 11.8 10.334 8.8 14.791 8.8 12.971 C 8.8 11.15 3 11.15 3 11.15 C 1.381 11.151 0.054 10.345 0 9.329 L 0 7.572 C 0 6.531 1.343 5.688 3 5.688 Z" fill="#000051"/>
            </g>
          </g>
        </g>
        <g mask="url(#mask-4)" transform="matrix(0.816866, -0.057121, 0.057121, 0.816866, -45.934608, 65.790642)" class="g">
          <g transform="translate(32 36)">
            <mask id="g" fill="#fff">
              <path d="M124 144.6V163h4a72 72 0 0 1 72 72v9H0v-9a72 72 0 0 1 72-72h4v-18.4A56 56 0 0 1 44.3 100 12 12 0 0 1 34 88V74a12 12 0 0 1 10-11.8V56a56 56 0 1 1 112 0v6.2A12 12 0 0 1 166 74v14c0 6-4.5 11-10.3 11.9a56 56 0 0 1-31.7 44.7z"/>
            </mask>
            <path d="M124 144.6V163h4a72 72 0 0 1 72 72v9H0v-9a72 72 0 0 1 72-72h4v-18.4A56 56 0 0 1 44.3 100 12 12 0 0 1 34 88V74a12 12 0 0 1 10-11.8V56a56 56 0 1 1 112 0v6.2A12 12 0 0 1 166 74v14c0 6-4.5 11-10.3 11.9a56 56 0 0 1-31.7 44.7z"/>
            <g mask="url(#g)" fill="#FFDBB4">
              <path d="M-32 0h264v244H-32z" fill="#f0c8a6"/>
            </g>
            <path d="M156 79v23a56 56 0 1 1-112 0V79v15a56 56 0 1 0 112 0V79z" fill-opacity=".1" fill="#000" mask="url(#g)"/>
          </g>
          <g transform="translate(0 170)">
            <defs>
              <path d="M108 13c-18 2-31.7 7.6-32 21.6A72 72 0 0 0 32 101v9h200v-9a72 72 0 0 0-44-66.4c-.3-14-14-19.5-32-21.5V32a24 24 0 1 1-48 0V13z"/>
            </defs>
            <mask id="h" fill="#fff">
              <path d="M108 13c-18 2-31.7 7.6-32 21.6A72 72 0 0 0 32 101v9h200v-9a72 72 0 0 0-44-66.4c-.3-14-14-19.5-32-21.5V32a24 24 0 1 1-48 0V13z"/>
            </mask>
            <path d="M108 13c-18 2-31.7 7.6-32 21.6A72 72 0 0 0 32 101v9h200v-9a72 72 0 0 0-44-66.4c-.3-14-14-19.5-32-21.5V32a24 24 0 1 1-48 0V13z"/>
            <g mask="url(#h)" fill="#65C9FF">
              <path d="M0 0h264v110H0z" fill="#0a2eff"/>
            </g>
            <path d="M102 61.7V110h-7V58.2c2.2 1.3 4.5 2.5 7 3.5zm67-3.5v40.3a3.5 3.5 0 1 1-7 0V61.7c2.5-1 4.8-2.2 7-3.5z" fill="#F4F4F4" mask="url(#h)"/>
            <path d="M91 12.7c-15 2.9-25.5 8.5-25.5 19.6C65.5 52 98.5 68 132 68s66.5-16 66.5-35.7c0-11-10.4-16.7-25.5-19.6 9.1 3.4 15 9 15 18.4 0 20.4-27.8 36.9-56 36.9S76 51.5 76 31c0-9.3 5.9-15 15-18.3z" fill-opacity=".2" fill="#000" mask="url(#h)"/>
          </g>
          <g fill="#000">
            <g transform="translate(78 134)">
              <defs>
                <path d="M35.1 15.1a19 19 0 0 0 37.8 0c0-.8-.8-2.1-1.9-2.1H37c-1 0-2 1.2-1.9 2.1z"/>
              </defs>
              <mask id="i" fill="#fff">
                <path d="M35.1 15.1a19 19 0 0 0 37.8 0c0-.8-.8-2.1-1.9-2.1H37c-1 0-2 1.2-1.9 2.1z"/>
              </mask>
              <path d="M35.1 15.1a19 19 0 0 0 37.8 0c0-.8-.8-2.1-1.9-2.1H37c-1 0-2 1.2-1.9 2.1z"/>
              <rect fill="#FFF" mask="url(#i)" x="39" y="2" width="31" height="16" rx="5"/>
              <g mask="url(#i)" fill="#FF4F6D">
                <circle cx="49" cy="35" r="11"/>
                <circle cx="59" cy="35" r="11"/>
              </g>
            </g>
            <path d="M125.9 129c0 4.4-.5 5.1 6.1 5.1s7.2-.7 7.2-5.1" fill-opacity=".2"/>
            <g transform="translate(76 90)" fill-opacity=".6">
              <circle cx="30" cy="22" r="6" class="eye-open" fill-opacity="1" fill="#5ea5e4"/>
              <circle cx="82" cy="22" r="6" class="eye-open" fill="#5ea5e4" fill-opacity="1"/>
            </g>
            <g fill-opacity=".6" class="eyebrows" fill="#7a5c28">
              <path d="M102.5 88.1c-5.8.3-15.1 4.5-15 10.4.1.2.4.3.5.1 2.8-3 22.3-6 29.2-4.3.7.1 1.1-.5.7-1-3.4-3.8-10.2-5.4-15.4-5.2M162.5 88.1c5.8.3 15.1 4.5 15 10.4-.1.2-.4.3-.5.1-2.8-3-22.3-6-29.2-4.3-.7.1-1.1-.5-.7-1 3.4-3.8 10.2-5.4 15.4-5.2" fill="#90723a"/>
            </g>
            <path d="M 152.936 115.614 C 153.73 113.738 155.525 112.478 157.559 112.369 C 159.564 112.207 161.489 113.186 162.538 114.902 C 162.85 115.346 162.538 115.792 162.138 115.526 C 160.846 114.61 159.27 114.184 157.693 114.326 C 156.047 114.414 154.581 115.081 153.557 116.058 C 153.201 116.37 152.757 116.058 152.936 115.614 Z" class="left-eye eye-closed" fill="#0074bd"/>
            <path d="M 101.645 115.614 C 102.44 113.738 104.234 112.479 106.269 112.369 C 108.273 112.207 110.198 113.187 111.248 114.902 C 111.559 115.347 111.248 115.792 110.848 115.525 C 109.555 114.61 107.98 114.184 106.402 114.325 C 104.757 114.413 103.29 115.08 102.268 116.058 C 101.912 116.37 101.468 116.058 101.645 115.614 Z" class="right-eye eye-closed" fill="#0074bd"/>
          </g>
          <defs>
            <path d="M0 0h264v280H0z"/>
            <path d="M180.1 40c-2.7-2.9-6-5.3-9-7.7l-2-1.6c-.2-.1-1.8-1.2-2-1.6-.4-1-.2-.3-.1-1.5 0-1.4 3.1-5.7.8-6.7-1-.4-2.8.8-3.7 1.1-1.9.8-3.8 1.4-5.8 2 1-2 2.8-5.6-.6-4.6-2.6.7-5 2.7-7.6 3.7.8-1.5 4.3-5.9 1.2-6.1-1 0-3.8 1.8-4.9 2.1-3.1 1.2-6.3 2-9.6 2.6-11.2 2-24.3 1.4-34.7 6.5A49 49 0 0 0 81.6 46a58.4 58.4 0 0 0-7 24.2c-.7 6.3-.7 12.8-.4 19.2 0 2 .3 11.6 3.3 8.7 1.5-1.5 1.5-7.3 1.9-9.2.7-4 1.5-7.9 2.7-11.7a38.9 38.9 0 0 1 10.3-18.4c3.6-3 6-7 9.4-9.9 1.5-1.3.4-1.2 2.8-1l5 .2h11.3c7.7.1 15.3.2 23-.2l10.1-.6c1.9-.1 5.3-1.4 6.8-.4 1.4.8 3 3.6 4 4.7 2.4 2.7 5.2 4.7 8 7A29.8 29.8 0 0 1 183.6 76c1.8 7.2 1.3 13.8 3.5 20.8.4 1.2 1.4 3.3 2.7 1.4.2-.3.2-2.3.2-3.4 0-4.5 1.1-7.9 1.1-12.4 0-13.9-.5-32-10.9-42.5z"/>
          </defs>
          <g stroke-width="1" fill-rule="evenodd" transform="matrix(0.985293, -0.000053, 0.004544, 0.98527, 0.485655, 2.633758)">
            <mask id="j" fill="white">
              <path d="M 59 102.34 C 59 118.921 59 145.474 59 182 C 59 186.418 62.582 190 67 190 L 109 190 L 109 180.611 C 91.469 172.283 78.952 155.115 77.209 134.867 C 71.431 134.002 67 129.019 67 123 L 67 110 C 67 106.509 68.49 103.367 70.869 101.174 C 82.409 98.555 94.971 93.638 107.342 86.495 C 119.473 79.491 129.844 71.258 137.821 62.752 C 134.394 70.66 130.245 77.588 125.372 83.535 C 138.047 78.012 146.678 69.132 151.264 56.896 C 151.641 57.818 152.035 58.739 152.444 59.658 C 162.7 82.693 180.318 99.019 198.206 104.403 C 198.719 106.513 199 108.484 199 110 L 199 123 C 199 129.019 194.569 134.002 188.791 134.867 C 187.048 155.115 174.531 172.283 157 180.611 L 157 190 L 175 190 C 192.673 190 207 175.673 207 158 C 207 133.944 207 115.903 207 103.875 C 207 103.808 206.991 103.721 206.972 103.615 C 206.828 91.354 206.624 84.224 206.36 82.226 C 201.577 45.976 170.556 18 133 18 C 96.915 18 66.863 43.828 60 78 C 54.477 78 50 83.596 50 90.5 C 50 95.051 51.695 99.143 54.853 101.273 C 55.758 101.883 57.324 102.198 59 102.34 Z"/>
            </mask>
            <path d="M 59 102.34 C 59 118.921 59 145.474 59 182 C 59 186.418 62.582 190 67 190 L 109 190 L 109 180.611 C 91.469 172.283 78.952 155.115 77.209 134.867 C 71.431 134.002 67 129.019 67 123 L 67 110 C 67 106.509 68.49 103.367 70.869 101.174 C 82.409 98.555 94.971 93.638 107.342 86.495 C 119.473 79.491 129.844 71.258 137.821 62.752 C 134.394 70.66 130.245 77.588 125.372 83.535 C 138.047 78.012 146.678 69.132 151.264 56.896 C 151.641 57.818 152.035 58.739 152.444 59.658 C 162.7 82.693 180.318 99.019 198.206 104.403 C 198.719 106.513 199 108.484 199 110 L 199 123 C 199 129.019 194.569 134.002 188.791 134.867 C 187.048 155.115 174.531 172.283 157 180.611 L 157 190 L 175 190 C 192.673 190 207 175.673 207 158 C 207 133.944 207 115.903 207 103.875 C 207 103.808 206.991 103.721 206.972 103.615 C 206.828 91.354 206.624 84.224 206.36 82.226 C 201.577 45.976 170.556 18 133 18 C 96.915 18 66.863 43.828 60 78 C 54.477 78 50 83.596 50 90.5 C 50 95.051 51.695 99.143 54.853 101.273 C 55.758 101.883 57.324 102.198 59 102.34 Z" fill="#944F23"/>
            <g mask="url(#j)" fill="#4A312C">
              <g transform="translate(0.000000, 0.000000) " id="Color">
                <rect x="0" y="0" width="264" height="280" fill="#90723a"/>
              </g>
            </g>
          </g>
        </g>
      </g>
      <g class="boris">
        <g transform="translate(32 36)">
          <mask id="l" fill="#fff">
            <path d="M124 144.6V163h4a72 72 0 0 1 72 72v9H0v-9a72 72 0 0 1 72-72h4v-18.4A56 56 0 0 1 44.3 100 12 12 0 0 1 34 88V74a12 12 0 0 1 10-11.8V56a56 56 0 1 1 112 0v6.2A12 12 0 0 1 166 74v14c0 6-4.5 11-10.3 11.9a56 56 0 0 1-31.7 44.7z"/>
          </mask>
          <path d="M124 144.6V163h4a72 72 0 0 1 72 72v9H0v-9a72 72 0 0 1 72-72h4v-18.4A56 56 0 0 1 44.3 100 12 12 0 0 1 34 88V74a12 12 0 0 1 10-11.8V56a56 56 0 1 1 112 0v6.2A12 12 0 0 1 166 74v14c0 6-4.5 11-10.3 11.9a56 56 0 0 1-31.7 44.7z"/>
          <g mask="url(#l)" fill="#EDB98A">
            <path d="M-32 0h264v244H-32z"/>
          </g>
          <path d="M156 79v23a56 56 0 1 1-112 0V79v15a56 56 0 1 0 112 0V79z" fill-opacity=".1" fill="#000" mask="url(#l)"/>
        </g>
        <g transform="translate(0 170)" class="bs-shirt">
          <defs>
            <path d="M105.2 29H104a72 72 0 0 0-72 72v9h200v-9a72 72 0 0 0-72-72h-1.2l.2 3c0 13.9-12 25-27 25S105 46 105 32c0-1 0-2 .2-3z"/>
          </defs>
          <mask id="m" fill="#fff">
            <path d="M105.2 29H104a72 72 0 0 0-72 72v9h200v-9a72 72 0 0 0-72-72h-1.2l.2 3c0 13.9-12 25-27 25S105 46 105 32c0-1 0-2 .2-3z"/>
          </mask>
          <path d="M105.2 29H104a72 72 0 0 0-72 72v9h200v-9a72 72 0 0 0-72-72h-1.2l.2 3c0 13.9-12 25-27 25S105 46 105 32c0-1 0-2 .2-3z"/>
          <g mask="url(#m)" fill="#FF488E">
            <path d="M0 0h264v110H0z" class="shirt"/>
          </g>
          <path d="M156 22.3c6.2 4.5 10 10.8 10 17.7 0 7.2-4.1 13.7-10.8 18.3l-5.6-4.4-4.6.3 1-3.1V51c6-3.1 10-8.3 10-14.1V22.3zm-48-.7c-6.8 4.6-11 11.1-11 18.4 0 7.4 4.4 14 11.3 18.7l6.1-4.8 4.6.3-1-3.1V51c-6-3.1-10-8.3-10-14.1V21.6z" fill="#F2F2F2"/>
        </g>
        <g transform="matrix(1.007409, 0, 0, 1.007409, -0.88548, 169.52356)" class="bs-hoodie">
          <defs>
            <path d="M108 13c-18 2-31.7 7.6-32 21.6A72 72 0 0 0 32 101v9h200v-9a72 72 0 0 0-44-66.4c-.3-14-14-19.5-32-21.5V32a24 24 0 1 1-48 0V13z"/>
          </defs>
          <mask id="mask-1" fill="#fff">
            <path d="M108 13c-18 2-31.7 7.6-32 21.6A72 72 0 0 0 32 101v9h200v-9a72 72 0 0 0-44-66.4c-.3-14-14-19.5-32-21.5V32a24 24 0 1 1-48 0V13z"/>
          </mask>
          <path d="M108 13c-18 2-31.7 7.6-32 21.6A72 72 0 0 0 32 101v9h200v-9a72 72 0 0 0-44-66.4c-.3-14-14-19.5-32-21.5V32a24 24 0 1 1-48 0V13z"/>
          <g mask="url(#mask-1)" fill="#65C9FF">
            <path d="M0 0h264v110H0z" fill="#FF0008" class="shirt"/>
          </g>
          <path d="M102 61.7V110h-7V58.2c2.2 1.3 4.5 2.5 7 3.5zm67-3.5v40.3a3.5 3.5 0 1 1-7 0V61.7c2.5-1 4.8-2.2 7-3.5z" fill="#F4F4F4" mask="url(#mask-1)"/>
          <path d="M91 12.7c-15 2.9-25.5 8.5-25.5 19.6C65.5 52 98.5 68 132 68s66.5-16 66.5-35.7c0-11-10.4-16.7-25.5-19.6 9.1 3.4 15 9 15 18.4 0 20.4-27.8 36.9-56 36.9S76 51.5 76 31c0-9.3 5.9-15 15-18.3z" fill-opacity=".2" fill="#000" mask="url(#mask-1)"/>
        </g>
        <g fill="#000">
          <g transform="translate(78 134)">
            <defs>
              <path d="M35.1 15.1a19 19 0 0 0 37.8 0c0-.8-.8-2.1-1.9-2.1H37c-1 0-2 1.2-1.9 2.1z"/>
            </defs>
            <mask id="n" fill="#fff">
              <path d="M35.1 15.1a19 19 0 0 0 37.8 0c0-.8-.8-2.1-1.9-2.1H37c-1 0-2 1.2-1.9 2.1z"/>
            </mask>
            <path d="M35.1 15.1a19 19 0 0 0 37.8 0c0-.8-.8-2.1-1.9-2.1H37c-1 0-2 1.2-1.9 2.1z"/>
            <rect fill="#FFF" mask="url(#n)" x="39" y="2" width="31" height="16" rx="5"/>
            <g mask="url(#n)" fill="#FF4F6D">
              <g transform="translate(38 24)">
                <circle cx="11" cy="11" r="11"/>
                <circle cx="21" cy="11" r="11"/>
              </g>
            </g>
          </g>
          <path d="M120 130c0 4.4 5.4 8 12 8s12-3.6 12-8" fill-opacity=".2"/>
          <g transform="translate(76 90)" fill-opacity=".6">
            <circle cx="30" cy="22" r="6" class="right-eye eye-open"/>
            <circle cx="56" cy="-18.1" r="6" transform="translate(26 40)" class="left-eye eye-open"/>
            <path d="M 75.057 24.409 C 76.1 21.885 78.494 20.18 81.22 20.023 C 83.893 19.809 86.459 21.114 87.858 23.401 C 88.213 23.994 87.858 24.586 87.265 24.231 C 85.542 23.011 83.441 22.443 81.339 22.63 C 79.206 22.749 77.191 23.638 75.887 24.942 C 75.354 25.357 74.821 24.942 75.057 24.349 Z" class="left-eye eye-closed"/>
            <path d="M 24.058 24.408 C 25.1 21.885 27.495 20.181 30.221 20.023 C 32.894 19.808 35.46 21.114 36.858 23.401 C 37.214 23.994 36.858 24.586 36.266 24.231 C 34.543 23.011 32.442 22.443 30.34 22.631 C 28.206 22.749 26.192 23.638 24.888 24.942 C 24.355 25.357 23.821 24.942 24.058 24.349 Z" class="right-eye eye-closed"/>
          </g>
          <path d="M91.6 99.2c4-5.6 14.7-8.6 24-6.4a2 2 0 0 0 .9-3.9c-10.8-2.6-23.2 1-28.1 8a2 2 0 0 0 3.2 2.3zm80.8 0c-4-5.6-14.7-8.6-24-6.4a2 2 0 0 1-.9-3.9c10.8-2.6 23.2 1 28.1 8a2 2 0 0 1-3.2 2.3z" class="eyebrows" fill-rule="nonzero" fill-opacity=".6"/>
        </g>
        <g mask="url(#o)">
          <g transform="translate(-1)">
            <g transform="translate(49 72)">
              <defs>
                <path d="M101.4 98.2c-2.5 2.3-5.2 3.3-8.5 2.6-.6-.2-3-4.6-8.9-4.6s-8.3 4.4-8.9 4.6c-3.3.7-6-.3-8.5-2.6-4.8-4.3-8.7-10.3-6.3-16.8 1.2-3.4 3.2-7 6.9-8.2 3.8-1.1 9.3 0 13.2-.7 1.3-.3 2.7-.7 3.6-1.5 1 .8 2.3 1.2 3.6 1.5 3.9.7 9.4-.4 13.2.7 3.7 1.1 5.7 4.8 7 8.2 2.3 6.5-1.6 12.5-6.4 16.8M140.1 26c-3.4 8.4-2.1 18.9-2.7 27.7-.6 7.1-2 17.9-8.4 22.5-3.3 2.4-9.2 6.4-13.5 5.3-2.9-.8-3.2-9.2-7-12.4A22.4 22.4 0 0 0 93 64.3c-2.3 0-7.1 0-9.1 1.9-2-1.9-6.8-1.8-9.1-2-5.5-.2-11 1.4-15.4 5-3.8 3-4.1 11.5-7 12.3-4.3 1-10.2-3-13.5-5.3-6.3-4.6-7.8-15.4-8.4-22.5-.6-8.8.7-19.3-2.7-27.7-1.6 0-.5 16.1-.5 16.1v20.4A53 53 0 0 0 58 109.4c5.2 2.1 17 5.6 25.9 5.6s20.7-3.1 25.9-5.3c21.2-8.7 30.7-32 30.7-47.2V42s1.1-16.1-.5-16.1"/>
              </defs>
              <mask id="p" fill="#fff">
                <path d="M101.4 98.2c-2.5 2.3-5.2 3.3-8.5 2.6-.6-.2-3-4.6-8.9-4.6s-8.3 4.4-8.9 4.6c-3.3.7-6-.3-8.5-2.6-4.8-4.3-8.7-10.3-6.3-16.8 1.2-3.4 3.2-7 6.9-8.2 3.8-1.1 9.3 0 13.2-.7 1.3-.3 2.7-.7 3.6-1.5 1 .8 2.3 1.2 3.6 1.5 3.9.7 9.4-.4 13.2.7 3.7 1.1 5.7 4.8 7 8.2 2.3 6.5-1.6 12.5-6.4 16.8M140.1 26c-3.4 8.4-2.1 18.9-2.7 27.7-.6 7.1-2 17.9-8.4 22.5-3.3 2.4-9.2 6.4-13.5 5.3-2.9-.8-3.2-9.2-7-12.4A22.4 22.4 0 0 0 93 64.3c-2.3 0-7.1 0-9.1 1.9-2-1.9-6.8-1.8-9.1-2-5.5-.2-11 1.4-15.4 5-3.8 3-4.1 11.5-7 12.3-4.3 1-10.2-3-13.5-5.3-6.3-4.6-7.8-15.4-8.4-22.5-.6-8.8.7-19.3-2.7-27.7-1.6 0-.5 16.1-.5 16.1v20.4A53 53 0 0 0 58 109.4c5.2 2.1 17 5.6 25.9 5.6 9 0 20.7-3.1 25.9-5.3 21.2-8.7 30.7-32 30.7-47.2V42s1.1-16.1-.5-16.1"/>
              </mask>
              <path d="M101.4 98.2c-2.5 2.3-5.2 3.3-8.5 2.6-.6-.2-3-4.6-8.9-4.6s-8.3 4.4-8.9 4.6c-3.3.7-6-.3-8.5-2.6-4.8-4.3-8.7-10.3-6.3-16.8 1.2-3.4 3.2-7 6.9-8.2 3.8-1.1 9.3 0 13.2-.7 1.3-.3 2.7-.7 3.6-1.5 1 .8 2.3 1.2 3.6 1.5 3.9.7 9.4-.4 13.2.7 3.7 1.1 5.7 4.8 7 8.2 2.3 6.5-1.6 12.5-6.4 16.8M140.1 26c-3.4 8.4-2.1 18.9-2.7 27.7-.6 7.1-2 17.9-8.4 22.5-3.3 2.4-9.2 6.4-13.5 5.3-2.9-.8-3.2-9.2-7-12.4A22.4 22.4 0 0 0 93 64.3c-2.3 0-7.1 0-9.1 1.9-2-1.9-6.8-1.8-9.1-2-5.5-.2-11 1.4-15.4 5-3.8 3-4.1 11.5-7 12.3-4.3 1-10.2-3-13.5-5.3-6.3-4.6-7.8-15.4-8.4-22.5-.6-8.8.7-19.3-2.7-27.7-1.6 0-.5 16.1-.5 16.1v20.4A53 53 0 0 0 58 109.4c5.2 2.1 17 5.6 25.9 5.6 9 0 20.7-3.1 25.9-5.3 21.2-8.7 30.7-32 30.7-47.2V42s1.1-16.1-.5-16.1"/>
              <g mask="url(#p)" fill="#4A312C">
                <path d="M-32 0h264v244H-32z"/>
              </g>
            </g>
            <mask id="q" fill="#fff">
              <path d="M94.3 52h-1 1M86 36.3s0 .2 0 0m107.7 34.5a63 63 0 0 0-4-17.4c-.7-1.5-2-3.5-2.2-5.1-.2-1.6 1-3.3 1.3-5.2a16 16 0 0 0-.2-5.4 11 11 0 0 0-7.8-8.8c-1-.3-3 0-3.7-.5-.7-.7-1.3-2.8-2-3.7a9 9 0 0 0-8.3-3.5c-2.4.4-1 1-2.9-.5-1-.8-1.7-2-2.7-2.9a24.7 24.7 0 0 0-4.9-3.2c-4.5-2.4-9.7-4.1-14.8-5a68.3 68.3 0 0 0-28.2 2.3c-4.5 1.2-9 2.7-13.2 4.7-1.8.9-2.8 1.6-4.7 1.8-2.9.4-5.4.4-8.1 1.6A16.3 16.3 0 0 0 81 45.8c1.5 1.6 2.1 1.3.8 3.2A52.8 52.8 0 0 0 73 85c.1 3.2.3 6.3.8 9.5.2 1.3.2 3.8 1.2 4.8a2 2 0 0 0 2 .6c1.7-.5 1.1-1.7 1.2-2.9.2-5.9-.1-11 1.3-16.9 1-4.3 2.8-8.2 5-12a72 72 0 0 1 9.8-13.4c1-1 1.1-1.4 2.3-1.5 1 0 2.3.6 3.2.8a58.3 58.3 0 0 0 17.3 1.8 100 100 0 0 0 22-2.6c4.9-1.2 9.1-3.4 13.7-5 0 0 1.2-1 1.4-.9.3 0 2 1.9 2.3 2 2.2 1.8 4.6 2.6 7 4 3 1.6.1-.8 1.8 1.3.4.6.7 1.7 1 2.4a18 18 0 0 0 5 5.6c2 1.5 4.9 2.2 5.9 4.1.8 1.5 1 3.5 1.6 5 1.7 4.2 3.8 8 6 12 1.7 3 3.6 5.8 3.8 9.4 0 1.3-1.1 8.7 1.8 6.5.4-.4 1.3-4.2 1.5-4.8.8-2.7 1-5.4 1.4-8.1.7-5.4 1-10.5.5-16"/>
            </mask>
            <path d="M94.3 52h-1 1M86 36.3s0 .2 0 0m107.7 34.5a63 63 0 0 0-4-17.4c-.7-1.5-2-3.5-2.2-5.1-.2-1.6 1-3.3 1.3-5.2a16 16 0 0 0-.2-5.4 11 11 0 0 0-7.8-8.8c-1-.3-3 0-3.7-.5-.7-.7-1.3-2.8-2-3.7a9 9 0 0 0-8.3-3.5c-2.4.4-1 1-2.9-.5-1-.8-1.7-2-2.7-2.9a24.7 24.7 0 0 0-4.9-3.2c-4.5-2.4-9.7-4.1-14.8-5a68.3 68.3 0 0 0-28.2 2.3c-4.5 1.2-9 2.7-13.2 4.7-1.8.9-2.8 1.6-4.7 1.8-2.9.4-5.4.4-8.1 1.6A16.3 16.3 0 0 0 81 45.8c1.5 1.6 2.1 1.3.8 3.2A52.8 52.8 0 0 0 73 85c.1 3.2.3 6.3.8 9.5.2 1.3.2 3.8 1.2 4.8a2 2 0 0 0 2 .6c1.7-.5 1.1-1.7 1.2-2.9.2-5.9-.1-11 1.3-16.9 1-4.3 2.8-8.2 5-12a72 72 0 0 1 9.8-13.4c1-1 1.1-1.4 2.3-1.5 1 0 2.3.6 3.2.8a58.3 58.3 0 0 0 17.3 1.8 100 100 0 0 0 22-2.6c4.9-1.2 9.1-3.4 13.7-5 0 0 1.2-1 1.4-.9.3 0 2 1.9 2.3 2 2.2 1.8 4.6 2.6 7 4 3 1.6.1-.8 1.8 1.3.4.6.7 1.7 1 2.4a18 18 0 0 0 5 5.6c2 1.5 4.9 2.2 5.9 4.1.8 1.5 1 3.5 1.6 5 1.7 4.2 3.8 8 6 12 1.7 3 3.6 5.8 3.8 9.4 0 1.3-1.1 8.7 1.8 6.5.4-.4 1.3-4.2 1.5-4.8.8-2.7 1-5.4 1.4-8.1.7-5.4 1-10.5.5-16"/>
            <g fill="#4A312C" mask="url(#q)">
              <path d="M0 0h264v280H0z"/>
              <path fill="#0bf" stroke="#3fb1bd" d="M79 27l20 28M83 23l23 32" class="blue-hair"/>
            </g>
            <g transform="translate(62 85)">
              <defs>
                <filter x="-.8%" y="-2.4%" width="101.5%" height="109.8%" filterUnits="objectBoundingBox" id="r">
                  <feOffset dy="2" in="SourceAlpha" result="shadowOffsetOuter1"/>
                  <feColorMatrix values="0 0 0 0 0 0 0 0 0 0 0 0 0 0 0 0 0 0 0.2 0" in="shadowOffsetOuter1" result="shadowMatrixOuter1"/>
                  <feMerge>
                    <feMergeNode in="shadowMatrixOuter1"/>
                    <feMergeNode in="SourceGraphic"/>
                  </feMerge>
                </filter>
              </defs>
              <g filter="url(#r)" transform="translate(6 7)" fill="#eb4cb3" fill-rule="nonzero" id="glasses">
                <path d="M34 41h-2.8C17.3 41 9 33.3 9 20.5 9 10.1 10.8 0 32.5 0h3C57.2 0 59 10.1 59 20.5 59 32.5 48.7 41 34 41zM32.4 6C13 6 13 12.8 13 21.5c0 7 3.1 15.5 18 15.5h3c12.4 0 21-6.4 21-15.5C55 12.8 55 6 35.6 6h-3.2zM96 41h-2.8C79.3 41 71 33.3 71 20.5 71 10.1 72.8 0 94.5 0h3C119.2 0 121 10.1 121 20.5c0 12-10.3 20.5-25 20.5zM94.4 6C75 6 75 12.8 75 21.5c0 7 3.1 15.5 18 15.5h3c12.4 0 21-6.4 21-15.5C117 12.8 117 6 97.6 6h-3.2z"/>
                <path d="M3 5.8C3.6 5 11.2 0 32.5 0c17.9 0 21.6 1.9 27.4 4.7l.4.2c.4.1 2.4.8 4.8.9a17 17 0 0 0 4.5-.9C76.2 1.7 82.6 0 97.5 0c21.3 0 28.9 5.1 29.5 5.8a3 3 0 0 1 3 2.9v2.8a3 3 0 0 1-3 3s-6.9 0-6.9 2.8c0 2.9-2-4.2-2-5.8V8.7c-3.5-1.3-10-4-20.6-4A53 53 0 0 0 74.7 9V11l-2.2 5.3-2.7-1a13.9 13.9 0 0 0-7.5-.7 8 8 0 0 0-1.9.6l-2.6 1.3-2.7-5.2.1-2.3.1-.2C51 7 47 4.8 32.5 4.8c-10.6 0-17 2.6-20.7 4v2.7c0 1.6-3 8.7-3 5.8 0-2.9-5.8-2.9-5.8-2.9a3 3 0 0 1-3-2.9V8.7a3 3 0 0 1 3-3z"/>
              </g>
            </g>
          </g>
        </g>
        <path class="cs-logo" fill="#3640e8" d="M 146.776 251.123 L 146.422 250.43 C 141.036 239.846 126.212 239.062 119.739 249.019 C 113.266 258.975 119.999 272.205 131.858 272.833 C 137.948 273.155 143.656 269.86 146.422 264.424 L 146.776 263.73 L 140.472 257.427 L 146.776 251.123 Z M 144.147 264.124 C 138.988 272.958 126.202 272.894 121.131 264.01 C 116.061 255.126 122.509 244.084 132.738 244.135 C 137.438 244.159 141.777 246.663 144.147 250.722 L 138.959 255.913 L 132.674 249.628 L 124.875 257.427 L 132.674 265.225 L 138.959 258.94 L 144.147 264.124 Z M 137.445 257.427 L 132.674 262.198 L 127.903 257.427 L 132.674 252.655 L 137.445 257.427 Z"/>
      </g>
    </g>
  </g>
</svg>
