<svg xmlns="http://www.w3.org/2000/svg" style="display: none;">
    <symbol id="icon-mode-auto" viewBox="0 0 100 100">
        <g>
            <path d="M29.6,40.5c0.6,4.5,4.2,8.1,8.6,8.6c6.5,0.8,12.1-4.7,11.2-11.2c-0.6-4.5-4.2-8.1-8.6-8.6C34.3,28.4,28.8,33.9,29.6,40.5z"></path>
            <path d="M24.2,40.6c0.8,0,1.4-0.6,1.4-1.4c0,0,0,0,0,0s0,0,0,0c0-0.8-0.6-1.4-1.4-1.4h-1.4h-10c-0.8,0-1.4,0.6-1.4,1.4v0.1   c0,0.8,0.6,1.4,1.4,1.4h10H24.2z"></path>
            <path d="M39.5,25.3C39.5,25.3,39.5,25.3,39.5,25.3C39.5,25.3,39.6,25.3,39.5,25.3c0.8,0,1.4-0.6,1.4-1.4v-1.4v-10   c0-0.8-0.6-1.4-1.4-1.4h-0.1c-0.8,0-1.4,0.6-1.4,1.4v10v1.4C38.1,24.7,38.8,25.3,39.5,25.3z"></path>
            <path d="M49.4,29.3c0.6,0.6,1.5,0.6,2,0l1-1l7-7c0.5-0.5,0.5-1.4,0-2l0,0c-0.5-0.5-1.4-0.5-2,0l-7,7l-1,1   C48.8,27.9,48.8,28.8,49.4,29.3L49.4,29.3z"></path>
            <path d="M27.7,49l-1,1l-7,7c-0.5,0.5-0.5,1.4,0,2l0.1,0.1c0.5,0.5,1.4,0.5,2,0l7-7l1-1c0.5-0.5,0.5-1.4,0-2c0,0,0,0,0,0   C29.1,48.5,28.3,48.5,27.7,49z"></path>
            <path d="M26.7,28.4l1,1c0.5,0.5,1.4,0.5,2,0c0,0,0,0,0,0c0.5-0.5,0.6-1.4,0-2l-1-1l-7-7c-0.5-0.5-1.4-0.5-2,0l-0.1,0.1   c-0.5,0.5-0.5,1.4,0,2L26.7,28.4z"></path>
            <path d="M87.9,14.8c-0.8-0.8-2.2-0.8-3,0l-23,23h-5.6h-1.4c-0.8,0-1.4,0.6-1.4,1.4v0v0c0,0.8,0.6,1.4,1.4,1.4h1.4H59l-8.1,8.1   c-0.5-0.2-1.1-0.1-1.5,0.3c0,0,0,0,0,0c-0.4,0.4-0.5,1-0.3,1.5L41,58.7v-2.8v-1.4c0-0.8-0.6-1.4-1.4-1.4c0,0,0,0,0,0c0,0,0,0,0,0   c-0.8,0-1.4,0.6-1.4,1.4v1.4v5.6L14.4,85.2c-0.8,0.8-0.8,2.2,0,3c0.4,0.4,1,0.6,1.5,0.6c0.5,0,1.1-0.2,1.5-0.6l70.4-70.4   C88.7,17,88.7,15.6,87.9,14.8z"></path>
            <path d="M76.5,55.3c0.9-0.3,1.2-1.6,0.3-2.1c-3.2-2.1-7.2-3.1-11.4-2.4c-7.4,1.1-13,6.9-13.8,14.4c-1.1,9.9,6.6,18.3,16.3,18.3   c3.3,0,6.3-1,8.9-2.6c0.8-0.5,0.6-1.8-0.3-2.1c-5-1.6-8.6-6.2-8.6-11.7C67.9,61.5,71.5,56.9,76.5,55.3z"></path>
        </g>
    </symbol>

    <symbol id="icon-mode-dark" viewBox="-30 -4 130 78">
        <polygon points="46.485,47.328 45.234,54.623 51.786,51.179 58.338,54.624 57.087,47.328 62.386,42.162 55.062,41.098   51.786,34.458 48.511,41.098 41.186,42.162 "></polygon>
        <polygon points="98.352,51.75 89.554,50.471 85.619,42.499 81.684,50.471 72.886,51.75 79.251,57.956 77.748,66.719 85.619,62.581   93.489,66.72 91.986,57.956 "></polygon>
        <polygon points="69.213,30.436 77.083,26.298 84.954,30.437 83.451,21.673 89.816,15.467 81.019,14.188 77.083,6.215 73.148,14.188   64.351,15.467 70.716,21.673 "></polygon>
        <path d="M31.559,39.086c0-12.887,5.054-24.976,14.232-34.039l1.931-1.907l-2.707,0.198C20.697,5.119,1.648,25.628,1.648,50.028  c0,25.822,21.008,46.831,46.83,46.831c9.588,0,18.812-2.887,26.674-8.348l2.233-1.552l-2.706-0.265  C50.097,84.287,31.559,63.819,31.559,39.086z"></path>
    </symbol>

    <symbol id="icon-mode-light" viewBox="0 26 100 48">
        <g stroke="none" stroke-width="1" fill="none" fill-rule="evenodd">
            <g>
                <circle fill="currentColor" cx="50" cy="50" r="16"></circle>
                <g transform="translate(48.000000, 18.000000)" stroke="currentColor" stroke-width="4">
                    <path d="M7,5 L-3,5" transform="translate(2.000000, 5.000000) rotate(90.000000) translate(-2.000000, -5.000000) "></path>
                    <path d="M7,59 L-3,59" transform="translate(2.000000, 59.000000) rotate(90.000000) translate(-2.000000, -59.000000) "></path>
                </g>
                <g transform="translate(50.000000, 50.000000) rotate(90.000000) translate(-50.000000, -50.000000) translate(48.000000, 18.000000)" stroke="currentColor" stroke-width="4">
                    <path d="M7,5 L-3,5" transform="translate(2.000000, 5.000000) rotate(90.000000) translate(-2.000000, -5.000000) "></path>
                    <path d="M7,59 L-3,59" transform="translate(2.000000, 59.000000) rotate(90.000000) translate(-2.000000, -59.000000) "></path>
                </g>
                <g transform="translate(50.000000, 50.000000) rotate(45.000000) translate(-50.000000, -50.000000) translate(48.000000, 18.000000)" stroke="currentColor" stroke-width="4">
                    <path d="M7,5 L-3,5" transform="translate(2.000000, 5.000000) rotate(90.000000) translate(-2.000000, -5.000000) "></path>
                    <path d="M7,59 L-3,59" transform="translate(2.000000, 59.000000) rotate(90.000000) translate(-2.000000, -59.000000) "></path>
                </g>
                <g transform="translate(50.000000, 50.000000) rotate(135.000000) translate(-50.000000, -50.000000) translate(48.000000, 18.000000)" stroke="currentColor" stroke-width="4">
                    <path d="M7,5 L-3,5" transform="translate(2.000000, 5.000000) rotate(90.000000) translate(-2.000000, -5.000000) "></path>
                    <path d="M7,59 L-3,59" transform="translate(2.000000, 59.000000) rotate(90.000000) translate(-2.000000, -59.000000) "></path>
                </g>
            </g>
        </g>
    </symbol>
</svg>
