<?xml version="1.0" encoding="utf-8"?>
<svg viewBox="0 0 264 280" class="avatar" xmlns="http://www.w3.org/2000/svg">
  <defs>
    <circle id="a" cx="120" cy="120" r="120"/>
    <path d="M12 160c0 66.274 53.726 120 120 120s120-53.726 120-120h12V0H0v160h12z" id="c"/>
    <path d="M124 144.611V163h4c39.765 0 72 32.235 72 72v9H0v-9c0-39.765 32.235-72 72-72h4v-18.389c-17.237-8.189-29.628-24.924-31.695-44.73C38.48 99.058 34 94.052 34 88V74c0-5.946 4.325-10.882 10-11.834V56c0-30.928 25.072-56 56-56s56 25.072 56 56v6.166c5.675.952 10 5.888 10 11.834v14c0 6.052-4.48 11.058-10.305 11.881-2.067 19.806-14.458 36.541-31.695 44.73z" id="e"/>
  </defs>
  <g fill="none" fill-rule="evenodd">
    <g transform="translate(12 40)">
      <mask id="b" fill="#fff">
        <circle cx="120" cy="120" r="120"/>
      </mask>
      <circle cx="120" cy="120" r="120"/>
      <g mask="url(#b)" fill="#65C9FF">
        <path d="M0 0h240v240H0z"/>
      </g>
    </g>
    <mask id="d" fill="#fff">
      <path d="M 12 160 C 12 226.274 65.726 280 132 280 C 198.274 280 252 226.274 252 160 L 264 160 L 264 0 L 0 0 L 0 160 L 12 160 Z"/>
    </mask>
    <g mask="url(#d)">
      <g transform="translate(32 36)">
        <mask id="f" fill="#fff">
          <path d="M 124 144.611 L 124 163 L 128 163 C 167.765 163 200 195.235 200 235 L 200 244 L 0 244 L 0 235 C 0 195.235 32.235 163 72 163 L 76 163 L 76 144.611 C 58.763 136.422 46.372 119.687 44.305 99.881 C 38.48 99.058 34 94.052 34 88 L 34 74 C 34 68.054 38.325 63.118 44 62.166 L 44 56 C 44 25.072 69.072 0 100 0 C 130.928 0 156 25.072 156 56 L 156 62.166 C 161.675 63.118 166 68.054 166 74 L 166 88 C 166 94.052 161.52 99.058 155.695 99.881 C 153.628 119.687 141.237 136.422 124 144.611 Z"/>
        </mask>
        <path d="M 124 144.611 L 124 163 L 128 163 C 167.765 163 200 195.235 200 235 L 200 244 L 0 244 L 0 235 C 0 195.235 32.235 163 72 163 L 76 163 L 76 144.611 C 58.763 136.422 46.372 119.687 44.305 99.881 C 38.48 99.058 34 94.052 34 88 L 34 74 C 34 68.054 38.325 63.118 44 62.166 L 44 56 C 44 25.072 69.072 0 100 0 C 130.928 0 156 25.072 156 56 L 156 62.166 C 161.675 63.118 166 68.054 166 74 L 166 88 C 166 94.052 161.52 99.058 155.695 99.881 C 153.628 119.687 141.237 136.422 124 144.611 Z"/>
        <g mask="url(#f)" fill="#EDB98A">
          <path d="M-32 0h264v244H-32z"/>
        </g>
        <path d="M156 79v23c0 30.928-25.072 56-56 56s-56-25.072-56-56V79v15c0 30.928 25.072 56 56 56s56-25.072 56-56V79z" fill-opacity=".1" fill="#000" mask="url(#f)"/>
      </g>
      <g transform="translate(0 170)">
        <defs>
          <path d="M105.192 29.052H104c-39.765 0-72 32.235-72 72V110h200v-8.948c0-39.765-32.235-72-72-72h-1.192c.127.983.192 1.984.192 3 0 13.807-12.088 25-27 25s-27-11.193-27-25c0-1.016.065-2.017.192-3z" id="g"/>
        </defs>
        <mask id="h" fill="#fff">
          <path d="M 105.192 29.052 L 104 29.052 C 64.235 29.052 32 61.287 32 101.052 L 32 110 L 232 110 L 232 101.052 C 232 61.287 199.765 29.052 160 29.052 L 158.808 29.052 C 158.935 30.035 159 31.036 159 32.052 C 159 45.859 146.912 57.052 132 57.052 C 117.088 57.052 105 45.859 105 32.052 C 105 31.036 105.065 30.035 105.192 29.052 Z"/>
        </mask>
        <path d="M 105.192 29.052 L 104 29.052 C 64.235 29.052 32 61.287 32 101.052 L 32 110 L 232 110 L 232 101.052 C 232 61.287 199.765 29.052 160 29.052 L 158.808 29.052 C 158.935 30.035 159 31.036 159 32.052 C 159 45.859 146.912 57.052 132 57.052 C 117.088 57.052 105 45.859 105 32.052 C 105 31.036 105.065 30.035 105.192 29.052 Z"/>
        <g mask="url(#h)" fill="#FF488E">
          <path d="M0 0h264v110H0z"/>
        </g>
        <path d="M156 22.28c6.182 4.555 10 10.826 10 17.748 0 7.205-4.137 13.705-10.771 18.3l-5.65-4.452-4.579.332 1-3.151-.078-.061C152.022 47.853 156 42.7 156 36.876V22.28zm-48-.709c-6.767 4.603-11 11.169-11 18.457 0 7.398 4.362 14.052 11.308 18.664l6.113-4.816 4.579.332-1-3.151.078-.061C111.978 47.853 108 42.7 108 36.876V21.572z" fill="#F2F2F2"/>
      </g>
      <g fill="#000">
        <g transform="translate(78 134)">
          <defs>
            <path d="M35.118 15.128C36.176 24.62 44.226 32 54 32c9.804 0 17.874-7.426 18.892-16.96.082-.767-.775-2.04-1.85-2.04H37.088c-1.08 0-2.075 1.178-1.97 2.128z" id="i"/>
          </defs>
          <mask id="j" fill="#fff">
            <path d="M 35.118 15.128 C 36.176 24.62 44.226 32 54 32 C 63.804 32 71.874 24.574 72.892 15.04 C 72.974 14.273 72.117 13 71.042 13 L 37.088 13 C 36.008 13 35.013 14.178 35.118 15.128 Z"/>
          </mask>
          <path d="M 35.118 15.128 C 36.176 24.62 44.226 32 54 32 C 63.804 32 71.874 24.574 72.892 15.04 C 72.974 14.273 72.117 13 71.042 13 L 37.088 13 C 36.008 13 35.013 14.178 35.118 15.128 Z"/>
          <rect fill="#FFF" mask="url(#j)" x="39" y="2" width="31" height="16" rx="5"/>
          <g mask="url(#j)" fill="#FF4F6D">
            <g transform="translate(38 24)">
              <circle cx="11" cy="11" r="11"/>
              <circle cx="21" cy="11" r="11"/>
            </g>
          </g>
        </g>
        <path d="M120 130c0 4.418 5.373 8 12 8s12-3.582 12-8" fill-opacity=".16"/>
        <g transform="translate(76 90)" fill-opacity=".6">
          <circle cx="30" cy="22" r="6" class="right-eye eye-open"/>
          <circle cx="56" cy="-18.072" r="6" transform="matrix(1, 0, 0, 1, 25.999997, 40.072162)" class="left-eye eye-open"/>
          <path d="M 70.619 24.92 C 72.196 21.002 76.159 18.07 80.979 17.732 C 85.784 17.397 90.103 19.731 92.219 23.369 C 92.846 24.45 92.128 25.421 91.291 24.797 C 88.699 22.867 85.135 21.797 81.283 22.066 C 77.552 22.326 74.263 23.795 71.971 25.953 C 71.133 26.742 70.157 26.066 70.619 24.92 Z" class="left-eye eye-closed" style="opacity: 0;"/>
          <path d="M 18.619 24.92 C 20.196 21.002 24.159 18.07 28.979 17.732 C 33.784 17.397 38.103 19.731 40.219 23.369 C 40.846 24.45 40.128 25.421 39.291 24.797 C 36.699 22.867 33.135 21.797 29.283 22.066 C 25.552 22.326 22.263 23.795 19.971 25.953 C 19.133 26.742 18.157 26.066 18.619 24.92 Z" class="right-eye eye-closed" style="opacity: 0;"/>
        </g>
        <g fill-rule="nonzero" fill-opacity=".6">
          <path d="M91.63 99.159c3.915-5.51 14.648-8.598 23.893-6.328a2 2 0 0 0 .954-3.884c-10.737-2.637-23.165.94-28.107 7.894a2 2 0 0 0 3.26 2.318zM172.37 99.159c-3.915-5.51-14.648-8.598-23.893-6.328a2 2 0 0 1-.954-3.884c10.737-2.637 23.165.94 28.108 7.894a2 2 0 0 1-3.26 2.318z" class="eyebrows"/>
        </g>
      </g>
      <defs>
        <path id="k" d="M0 0h264v280H0z"/>
        <path d="M94.252 52.022c.123-.054-.182-.075-.916-.062.892-.002 1.197.019.916.062m-8.135-15.72c-.002-.02.017.15 0 0m107.648 34.464c-.264-3.317-.732-6.614-1.518-9.855-.625-2.576-1.478-5.033-2.487-7.491-.61-1.485-2.032-3.524-2.2-5.126-.165-1.577 1.067-3.325 1.33-5.162a15.981 15.981 0 0 0-.156-5.438c-.833-4.023-3.594-7.764-7.857-8.813-.952-.234-2.964.055-3.636-.5-.771-.635-1.308-2.8-2.006-3.669-1.99-2.476-5.095-4.07-8.37-3.514-2.41.409-1.026.907-2.833-.512-1.005-.788-1.756-1.993-2.732-2.847-1.467-1.283-3.15-2.38-4.892-3.282-4.557-2.358-9.754-4.072-14.844-4.908-9.285-1.524-19.195-.195-28.195 2.22-4.479 1.201-8.987 2.726-13.147 4.743-1.783.864-2.813 1.582-4.673 1.808-2.928.357-5.409.339-8.183 1.581-8.536 3.822-12.381 12.689-9.06 21.174a14.64 14.64 0 0 0 2.82 4.584c1.521 1.68 2.072 1.35.762 3.282a52.787 52.787 0 0 0-4.955 9.172c-3.529 8.402-4.12 17.864-3.89 26.824.081 3.137.216 6.313.71 9.42.214 1.344.274 3.872 1.282 4.87.512.506 1.241.788 1.969.587 1.71-.474 1.121-1.735 1.161-2.906.2-5.884-.07-11.089 1.33-16.902 1.033-4.294 2.755-8.195 4.988-12.035 2.838-4.884 5.903-9.173 9.807-13.355.917-.984 1.118-1.4 2.349-1.472.932-.054 2.295.584 3.2.805 1.999.487 4 .968 6.034 1.296 3.74.603 7.444.644 11.217.525 7.426-.232 14.885-.753 22.085-2.623 4.782-1.242 9.022-3.47 13.602-5.105.082-.029 1.23-.847 1.43-.814.282.047 1.978 1.826 2.264 2.05 2.226 1.746 4.667 2.479 7.07 3.83 2.964 1.667.094-.718 1.728 1.359.477.605.72 1.726 1.103 2.411a18.08 18.08 0 0 0 4.93 5.624c1.956 1.47 4.894 2.18 5.891 4.095.769 1.477 1.028 3.484 1.648 5.06 1.628 4.136 3.777 7.992 5.926 11.887 1.732 3.14 3.625 5.881 3.818 9.468.067 1.248-1.121 8.737 1.773 6.46.429-.338 1.353-4.156 1.543-4.804.772-2.633 1.046-5.381 1.395-8.086.694-5.38.923-10.498.47-15.916" id="o"/>
      </defs>
      <mask id="l" fill="#fff">
        <path d="M 0 0 L 264 0 L 264 280 L 0 280 Z"/>
      </mask>
      <g mask="url(#l)">
        <g transform="translate(-1)">
          <g transform="translate(49 72)">
            <defs>
              <path d="M101.428 98.169c-2.513 2.294-5.19 3.325-8.575 2.604-.582-.124-2.957-4.538-8.853-4.538-5.897 0-8.27 4.414-8.853 4.538-3.385.721-6.062-.31-8.576-2.604-4.725-4.313-8.654-10.26-6.293-16.75 1.23-3.382 3.232-7.095 6.873-8.173 3.887-1.15 9.346-.002 13.264-.788 1.27-.254 2.656-.707 3.585-1.458.929.75 2.316 1.204 3.585 1.458 3.918.786 9.376-.362 13.264.788 3.64 1.078 5.642 4.79 6.873 8.173 2.361 6.49-1.568 12.437-6.294 16.75M140.081 26c-3.41 8.4-2.093 18.858-2.724 27.676-.513 7.167-2.02 17.91-8.384 22.539-3.255 2.367-9.179 6.345-13.431 5.235-2.927-.764-3.24-9.16-7.087-12.303-4.363-3.565-9.812-5.131-15.306-4.89-2.37.105-7.165.08-9.15 1.903-1.983-1.823-6.777-1.798-9.148-1.902-5.494-.242-10.943 1.324-15.306 4.889-3.847 3.143-4.16 11.54-7.087 12.303-4.252 1.11-10.176-2.868-13.431-5.235-6.365-4.63-7.87-15.372-8.384-22.54-.63-8.817.686-19.275-2.724-27.675-1.66 0-.565 16.129-.565 16.129v20.356c.032 15.288 9.581 38.17 30.754 46.908C63.286 111.53 75.015 115 84 115s20.714-3.14 25.892-5.277c21.173-8.737 30.722-31.95 30.754-47.238V42.13S141.74 26 140.081 26" id="m"/>
            </defs>
            <mask id="n" fill="#fff">
              <path d="M 101.428 98.169 C 98.915 100.463 96.238 101.494 92.853 100.773 C 92.271 100.649 89.896 96.235 84 96.235 C 78.103 96.235 75.73 100.649 75.147 100.773 C 71.762 101.494 69.085 100.463 66.571 98.169 C 61.846 93.856 57.917 87.909 60.278 81.419 C 61.508 78.037 63.51 74.324 67.151 73.246 C 71.038 72.096 76.497 73.244 80.415 72.458 C 81.685 72.204 83.071 71.751 84 71 C 84.929 71.75 86.316 72.204 87.585 72.458 C 91.503 73.244 96.961 72.096 100.849 73.246 C 104.489 74.324 106.491 78.036 107.722 81.419 C 110.083 87.909 106.154 93.856 101.428 98.169 M 140.081 26 C 136.671 34.4 137.988 44.858 137.357 53.676 C 136.844 60.843 135.337 71.586 128.973 76.215 C 125.718 78.582 119.794 82.56 115.542 81.45 C 112.615 80.686 112.302 72.29 108.455 69.147 C 104.092 65.582 98.643 64.016 93.149 64.257 C 90.779 64.362 85.984 64.337 83.999 66.16 C 82.016 64.337 77.222 64.362 74.851 64.258 C 69.357 64.016 63.908 65.582 59.545 69.147 C 55.698 72.29 55.385 80.687 52.458 81.45 C 48.206 82.56 42.282 78.582 39.027 76.215 C 32.662 71.585 31.157 60.843 30.643 53.675 C 30.013 44.858 31.329 34.4 27.919 26 C 26.259 26 27.354 42.129 27.354 42.129 L 27.354 62.485 C 27.386 77.773 36.935 100.655 58.108 109.393 C 63.286 111.53 75.015 115 84 115 C 92.985 115 104.714 111.86 109.892 109.723 C 131.065 100.986 140.614 77.773 140.646 62.485 L 140.646 42.13 C 140.646 42.13 141.74 26 140.081 26"/>
            </mask>
            <path d="M 101.428 98.169 C 98.915 100.463 96.238 101.494 92.853 100.773 C 92.271 100.649 89.896 96.235 84 96.235 C 78.103 96.235 75.73 100.649 75.147 100.773 C 71.762 101.494 69.085 100.463 66.571 98.169 C 61.846 93.856 57.917 87.909 60.278 81.419 C 61.508 78.037 63.51 74.324 67.151 73.246 C 71.038 72.096 76.497 73.244 80.415 72.458 C 81.685 72.204 83.071 71.751 84 71 C 84.929 71.75 86.316 72.204 87.585 72.458 C 91.503 73.244 96.961 72.096 100.849 73.246 C 104.489 74.324 106.491 78.036 107.722 81.419 C 110.083 87.909 106.154 93.856 101.428 98.169 M 140.081 26 C 136.671 34.4 137.988 44.858 137.357 53.676 C 136.844 60.843 135.337 71.586 128.973 76.215 C 125.718 78.582 119.794 82.56 115.542 81.45 C 112.615 80.686 112.302 72.29 108.455 69.147 C 104.092 65.582 98.643 64.016 93.149 64.257 C 90.779 64.362 85.984 64.337 83.999 66.16 C 82.016 64.337 77.222 64.362 74.851 64.258 C 69.357 64.016 63.908 65.582 59.545 69.147 C 55.698 72.29 55.385 80.687 52.458 81.45 C 48.206 82.56 42.282 78.582 39.027 76.215 C 32.662 71.585 31.157 60.843 30.643 53.675 C 30.013 44.858 31.329 34.4 27.919 26 C 26.259 26 27.354 42.129 27.354 42.129 L 27.354 62.485 C 27.386 77.773 36.935 100.655 58.108 109.393 C 63.286 111.53 75.015 115 84 115 C 92.985 115 104.714 111.86 109.892 109.723 C 131.065 100.986 140.614 77.773 140.646 62.485 L 140.646 42.13 C 140.646 42.13 141.74 26 140.081 26"/>
            <g mask="url(#n)" fill="#4A312C">
              <path d="M-32 0h264v244H-32z"/>
            </g>
          </g>
          <mask id="p" fill="#fff">
            <path d="M 94.252 52.022 C 94.375 51.968 94.07 51.947 93.336 51.96 C 94.228 51.958 94.533 51.979 94.252 52.022 M 86.117 36.302 C 86.115 36.282 86.134 36.452 86.117 36.302 M 193.765 70.766 C 193.501 67.449 193.033 64.152 192.247 60.911 C 191.622 58.335 190.769 55.878 189.76 53.42 C 189.15 51.935 187.728 49.896 187.56 48.294 C 187.395 46.717 188.627 44.969 188.89 43.132 C 189.149 41.324 189.096 39.484 188.734 37.694 C 187.901 33.671 185.14 29.93 180.877 28.881 C 179.925 28.647 177.913 28.936 177.241 28.381 C 176.47 27.746 175.933 25.581 175.235 24.712 C 173.245 22.236 170.14 20.642 166.865 21.198 C 164.455 21.607 165.839 22.105 164.032 20.686 C 163.027 19.898 162.276 18.693 161.3 17.839 C 159.833 16.556 158.15 15.459 156.408 14.557 C 151.851 12.199 146.654 10.485 141.564 9.649 C 132.279 8.125 122.369 9.454 113.369 11.869 C 108.89 13.07 104.382 14.595 100.222 16.612 C 98.439 17.476 97.409 18.194 95.549 18.42 C 92.621 18.777 90.14 18.759 87.366 20.001 C 78.83 23.823 74.985 32.69 78.306 41.175 C 78.955 42.864 79.911 44.418 81.126 45.759 C 82.647 47.439 83.198 47.109 81.888 49.041 C 79.938 51.927 78.278 55 76.933 58.213 C 73.404 66.615 72.813 76.077 73.043 85.037 C 73.124 88.174 73.259 91.35 73.753 94.457 C 73.967 95.801 74.027 98.329 75.035 99.327 C 75.547 99.833 76.276 100.115 77.004 99.914 C 78.714 99.44 78.125 98.179 78.165 97.008 C 78.365 91.124 78.095 85.919 79.495 80.106 C 80.528 75.812 82.25 71.911 84.483 68.071 C 87.321 63.187 90.386 58.898 94.29 54.716 C 95.207 53.732 95.408 53.316 96.639 53.244 C 97.571 53.19 98.934 53.828 99.839 54.049 C 101.838 54.536 103.839 55.017 105.873 55.345 C 109.613 55.948 113.317 55.989 117.09 55.87 C 124.516 55.638 131.975 55.117 139.175 53.247 C 143.957 52.005 148.197 49.777 152.777 48.142 C 152.859 48.113 154.007 47.295 154.207 47.328 C 154.489 47.375 156.185 49.154 156.471 49.378 C 158.697 51.124 161.138 51.857 163.541 53.208 C 166.505 54.875 163.635 52.49 165.269 54.567 C 165.746 55.172 165.989 56.293 166.372 56.978 C 167.605 59.176 169.285 61.091 171.302 62.602 C 173.258 64.072 176.196 64.782 177.193 66.697 C 177.962 68.174 178.221 70.181 178.841 71.757 C 180.469 75.893 182.618 79.749 184.767 83.644 C 186.499 86.784 188.392 89.525 188.585 93.112 C 188.652 94.36 187.464 101.849 190.358 99.572 C 190.787 99.234 191.711 95.416 191.901 94.768 C 192.673 92.135 192.947 89.387 193.296 86.682 C 193.99 81.302 194.219 76.184 193.766 70.766"/>
          </mask>
          <path d="M 94.252 52.022 C 94.375 51.968 94.07 51.947 93.336 51.96 C 94.228 51.958 94.533 51.979 94.252 52.022 M 86.117 36.302 C 86.115 36.282 86.134 36.452 86.117 36.302 M 193.765 70.766 C 193.501 67.449 193.033 64.152 192.247 60.911 C 191.622 58.335 190.769 55.878 189.76 53.42 C 189.15 51.935 187.728 49.896 187.56 48.294 C 187.395 46.717 188.627 44.969 188.89 43.132 C 189.149 41.324 189.096 39.484 188.734 37.694 C 187.901 33.671 185.14 29.93 180.877 28.881 C 179.925 28.647 177.913 28.936 177.241 28.381 C 176.47 27.746 175.933 25.581 175.235 24.712 C 173.245 22.236 170.14 20.642 166.865 21.198 C 164.455 21.607 165.839 22.105 164.032 20.686 C 163.027 19.898 162.276 18.693 161.3 17.839 C 159.833 16.556 158.15 15.459 156.408 14.557 C 151.851 12.199 146.654 10.485 141.564 9.649 C 132.279 8.125 122.369 9.454 113.369 11.869 C 108.89 13.07 104.382 14.595 100.222 16.612 C 98.439 17.476 97.409 18.194 95.549 18.42 C 92.621 18.777 90.14 18.759 87.366 20.001 C 78.83 23.823 74.985 32.69 78.306 41.175 C 78.955 42.864 79.911 44.418 81.126 45.759 C 82.647 47.439 83.198 47.109 81.888 49.041 C 79.938 51.927 78.278 55 76.933 58.213 C 73.404 66.615 72.813 76.077 73.043 85.037 C 73.124 88.174 73.259 91.35 73.753 94.457 C 73.967 95.801 74.027 98.329 75.035 99.327 C 75.547 99.833 76.276 100.115 77.004 99.914 C 78.714 99.44 78.125 98.179 78.165 97.008 C 78.365 91.124 78.095 85.919 79.495 80.106 C 80.528 75.812 82.25 71.911 84.483 68.071 C 87.321 63.187 90.386 58.898 94.29 54.716 C 95.207 53.732 95.408 53.316 96.639 53.244 C 97.571 53.19 98.934 53.828 99.839 54.049 C 101.838 54.536 103.839 55.017 105.873 55.345 C 109.613 55.948 113.317 55.989 117.09 55.87 C 124.516 55.638 131.975 55.117 139.175 53.247 C 143.957 52.005 148.197 49.777 152.777 48.142 C 152.859 48.113 154.007 47.295 154.207 47.328 C 154.489 47.375 156.185 49.154 156.471 49.378 C 158.697 51.124 161.138 51.857 163.541 53.208 C 166.505 54.875 163.635 52.49 165.269 54.567 C 165.746 55.172 165.989 56.293 166.372 56.978 C 167.605 59.176 169.285 61.091 171.302 62.602 C 173.258 64.072 176.196 64.782 177.193 66.697 C 177.962 68.174 178.221 70.181 178.841 71.757 C 180.469 75.893 182.618 79.749 184.767 83.644 C 186.499 86.784 188.392 89.525 188.585 93.112 C 188.652 94.36 187.464 101.849 190.358 99.572 C 190.787 99.234 191.711 95.416 191.901 94.768 C 192.673 92.135 192.947 89.387 193.296 86.682 C 193.99 81.302 194.219 76.184 193.766 70.766"/>
          <g mask="url(#p)" fill="#4A312C">
            <path d="M0 0h264v280H0z"/>
          </g>
          <g transform="translate(62 85)">
            <defs>
              <filter x="-.8%" y="-2.4%" width="101.5%" height="109.8%" filterUnits="objectBoundingBox" id="q">
                <feOffset dy="2" in="SourceAlpha" result="shadowOffsetOuter1"/>
                <feColorMatrix values="0 0 0 0 0 0 0 0 0 0 0 0 0 0 0 0 0 0 0.2 0" in="shadowOffsetOuter1" result="shadowMatrixOuter1"/>
                <feMerge>
                  <feMergeNode in="shadowMatrixOuter1"/>
                  <feMergeNode in="SourceGraphic"/>
                </feMerge>
              </filter>
            </defs>
            <g filter="url(#q)" transform="translate(6 7)" fill="#252C2F" fill-rule="nonzero">
              <path d="M34 41h-2.758C17.315 41 9 33.336 9 20.5 9 10.127 10.817 0 32.53 0h2.94C57.183 0 59 10.127 59 20.5 59 32.569 48.721 41 34 41zM32.385 6C13 6 13 12.841 13 21.502 13 28.572 16.116 37 30.97 37H34c12.365 0 21-6.373 21-15.498C55 12.84 55 6 35.615 6h-3.23zM96 41h-2.758C79.315 41 71 33.336 71 20.5 71 10.127 72.817 0 94.53 0h2.94C119.183 0 121 10.127 121 20.5 121 32.569 110.721 41 96 41zM94.385 6C75 6 75 12.841 75 21.502 75 28.572 78.12 37 92.97 37H96c12.365 0 21-6.373 21-15.498C117 12.84 117 6 97.615 6h-3.23z"/>
              <path d="M2.955 5.772C3.645 5.096 11.21 0 32.5 0c17.851 0 21.63 1.853 27.35 4.652l.419.207c.398.14 2.431.83 4.81.907a16.998 16.998 0 0 0 4.563-.869C76.17 1.722 82.562 0 97.5 0c21.29 0 28.854 5.096 29.545 5.772 1.634 0 2.955 1.29 2.955 2.885v2.886c0 1.596-1.32 2.886-2.955 2.886 0 0-6.901 0-6.901 2.886 0 2.885-1.962-4.176-1.962-5.772v-2.81c-3.603-1.38-10.054-3.947-20.682-3.947-11.842 0-17.739 2.1-22.798 4.185l.057.137-.003 1.986-2.217 5.35L69.8 15.36c-.244-.097-.772-.27-1.504-.451-2.04-.503-4.137-.656-5.992-.276-.68.14-1.312.35-1.891.633l-2.643 1.29-2.643-5.16.117-2.295.08-.195c-4.362-2.033-8.385-4.12-22.824-4.12-10.628 0-17.078 2.565-20.682 3.944v2.812c0 1.596-2.954 8.657-2.954 5.772 0-2.886-5.91-2.886-5.91-2.886-1.63 0-2.954-1.29-2.954-2.886V8.657c0-1.595 1.324-2.885 2.955-2.885z"/>
            </g>
          </g>
        </g>
      </g>
    </g>
  </g>
</svg>