<svg viewBox="0 0 264 280" class="avatar" xmlns="http://www.w3.org/2000/svg">
  <defs>
    <circle cx="120" cy="120" r="120"/>
    <path d="M12 160a120 120 0 0 0 240 0h12V0H0v160h12z"/>
    <path d="M124 144.6V163h4a72 72 0 0 1 72 72v9H0v-9a72 72 0 0 1 72-72h4v-18.4A56 56 0 0 1 44.3 100 12 12 0 0 1 34 88V74a12 12 0 0 1 10-11.8V56a56 56 0 1 1 112 0v6.2A12 12 0 0 1 166 74v14c0 6-4.5 11-10.3 11.9a56 56 0 0 1-31.7 44.7z"/>
  </defs>
  <g fill="none" fill-rule="evenodd">
    <g transform="translate(12 40)">
      <mask id="a" fill="#fff">
        <circle cx="120" cy="120" r="120"/>
      </mask>
      <circle cx="120" cy="120" r="120"/>
      <g mask="url(#a)" fill="#65C9FF">
        <path d="M0 0h240v240H0z" class="bg"/>
      </g>
    </g>
    <mask id="b" fill="#fff">
      <path d="M12 160a120 120 0 0 0 240 0h12V0H0v160h12z"/>
    </mask>
    <g mask="url(#b)">
      <defs>
        <path d="M0 0h264v280H0z"/>
        <path d="M94.3 52h-1 1M86 36.3s0 .2 0 0m107.7 34.5a63 63 0 0 0-4-17.4c-.7-1.5-2-3.5-2.2-5.1-.2-1.6 1-3.3 1.3-5.2a16 16 0 0 0-.2-5.4 11 11 0 0 0-7.8-8.8c-1-.3-3 0-3.7-.5-.7-.7-1.3-2.8-2-3.7a9 9 0 0 0-8.3-3.5c-2.4.4-1 .9-2.9-.5-1-.8-1.7-2-2.7-2.9a24.7 24.7 0 0 0-4.9-3.2c-4.5-2.4-9.7-4.1-14.8-5a68.3 68.3 0 0 0-28.2 2.3c-4.5 1.2-9 2.7-13.2 4.7-1.8.9-2.8 1.6-4.7 1.8-2.9.4-5.4.4-8.1 1.6a16.3 16.3 0 0 0-9 21.2 14.6 14.6 0 0 0 2.7 4.6c1.5 1.6 2.1 1.3.8 3.2a52.8 52.8 0 0 0-5 9.2A65.2 65.2 0 0 0 73 85c.1 3.2.3 6.3.8 9.5.2 1.3.2 3.8 1.2 4.8a2 2 0 0 0 2 .6c1.7-.5 1.1-1.7 1.2-2.9.2-5.9-.1-11 1.3-16.9 1-4.3 2.7-8.2 5-12a72 72 0 0 1 9.8-13.4c1-1 1.1-1.4 2.3-1.5 1 0 2.3.6 3.2.8a58.3 58.3 0 0 0 17.3 1.8 100 100 0 0 0 22-2.6c4.9-1.2 9.1-3.4 13.7-5 0 0 1.2-1 1.4-.9.3 0 2 1.9 2.3 2 2.2 1.8 4.6 2.6 7 4 3 1.6.1-.8 1.8 1.3.4.6.7 1.7 1 2.4a18 18 0 0 0 5 5.6c2 1.5 4.9 2.2 5.9 4.1.8 1.5 1 3.5 1.6 5 1.7 4.2 3.8 8 6 12 1.7 3 3.6 5.8 3.8 9.4 0 1.3-1.1 8.7 1.8 6.5.4-.4 1.3-4.2 1.5-4.8.8-2.7 1-5.4 1.4-8.1.7-5.4 1-10.5.5-16"/>
      </defs>
      <mask id="o" fill="#fff">
        <path d="M0 0h264v280H0z"/>
      </mask>
      <g class="kids">
        <g mask="url(#mask-4)" transform="translate(55.5 11) scale(.9562)">
          <g transform="translate(32 36)">
            <mask id="c" fill="#fff">
              <path d="M124 144.6V163h4a72 72 0 0 1 72 72v9H0v-9a72 72 0 0 1 72-72h4v-18.4A56 56 0 0 1 44.3 100 12 12 0 0 1 34 88V74a12 12 0 0 1 10-11.8V56a56 56 0 1 1 112 0v6.2A12 12 0 0 1 166 74v14c0 6-4.5 11-10.3 11.9a56 56 0 0 1-31.7 44.7z"/>
            </mask>
            <path d="M124 144.6V163h4a72 72 0 0 1 72 72v9H0v-9a72 72 0 0 1 72-72h4v-18.4A56 56 0 0 1 44.3 100 12 12 0 0 1 34 88V74a12 12 0 0 1 10-11.8V56a56 56 0 1 1 112 0v6.2A12 12 0 0 1 166 74v14c0 6-4.5 11-10.3 11.9a56 56 0 0 1-31.7 44.7z"/>
            <g mask="url(#c)" fill="#EDB98A">
              <path d="M-32 0h264v244H-32z"/>
            </g>
            <path d="M156 79v23a56 56 0 1 1-112 0V79v15a56 56 0 1 0 112 0V79z" fill-opacity=".1" fill="#000" mask="url(#c)"/>
          </g>
          <g transform="translate(0 170)">
            <defs>
              <path d="M165.6 29.3A72 72 0 0 1 232 101v8.9H32v-9a72 72 0 0 1 67.4-71.8c-.3 1-.4 2.2-.4 3.3C99 44.4 114 54 132.5 54S166 44.4 166 32.5c0-1.1-.1-2.2-.4-3.2z"/>
            </defs>
            <mask id="d" fill="#fff">
              <path d="M165.6 29.3A72 72 0 0 1 232 101v8.9H32v-9a72 72 0 0 1 67.4-71.8 14 14 0 0 0-.4 3.3C99 44.4 114 54 132.5 54S166 44.4 166 32.5a14 14 0 0 0-.4-3.2z"/>
            </mask>
            <path d="M165.6 29.3A72 72 0 0 1 232 101v8.9H32v-9a72 72 0 0 1 67.4-71.8 14 14 0 0 0-.4 3.3C99 44.4 114 54 132.5 54S166 44.4 166 32.5a14 14 0 0 0-.4-3.2z"/>
            <g mask="url(#d)" fill="#FF5C5C">
              <path d="M0 0h264v110H0z"/>
            </g>
            <g fill="#FFF" mask="url(#d)">
              <path d="M140.8 87.7l-7.4 7.9c1-3.6 1.8-7.6 3.2-11 .5-1 .1-1 1-1.5.6-.3 2 0 2.8 0 1.5.1 3.1.3 4.7 0-1.5 1.5-3 3-4.3 4.6m-15.3 4.1c-2.7-3.3-5.4-6.6-8.6-9.3 1.2.1 2.7 0 4 .2 1.9.4 1.8 1 2.7 3 1.5 2.9 3 5.7 4 8.8-.6-1-1.4-1.8-2-2.7m-9.2-12.5c1-1.6 1.2-3 3-3.8 2-1 5.2-.8 7.4-1-1.3 1.6-3 3.2-3.6 5.2-.9-1.7-2-3.2-3.6-4.2-.3 0 1.1 4.6 1.3 4.9-1.7-.1-3.5-.4-5.2-.1l.7-1m16.4-5c1.6 0 3.2.1 4.8.4-1.3 1.7-1.7 3.6-2.1 5.6-.5-2.2-2.2-4.4-3.8-6h1.1m-3.5 1c.3-.1 4.5 5.1 5 5.6l-9.8-.3c1.9-1.5 3-3.7 4.8-5.3m2.7 17.1l-1.2 4c-1.6-4.7-3.9-9.1-6-13.6l10 .3c-.8 3.1-1.9 6.2-2.8 9.3m7.2-17.4a36.2 36.2 0 0 1 4 4.4l1.2 1.7c-2.3-.3-4.6-.2-6.8-.2.5-2 1-4 .6-6.1l1 .2m7.7 5.6c-2.2-2.7-4.4-7.3-7.9-8-3.4-1-7.5-.5-11-.3-3.1.2-8.1-.2-10.8 1.6-1.4.9-2.5 3-3 4.5-.4 1.4.3 2.3-1.2 2.3l2.8 4a78 78 0 0 1 6.5 6.6c2.8 3.3 5.4 8.3 9.1 9.7-.7-.3 2.8-3 3.2-3.4l6.4-6.8 6-6.2c1.4-1.6 1.4-2.2-.1-4M113 72s-1-2-.8-2c-.5-.6-1-1.2-1.8-1.6-.7-.6-4.3-1.1-4.4-1.4 1.5 2.7 4.2 4.1 7 5M128.4 67.2c.1.6.4 1.2.7 1.8.1 0 1-4.2.9-4.5 0-.7-.4-4.5-1.2-4.5-1.3 0-.7 6.5-.4 7.2M155 65c-3 0-9.7 5.9-9 9a3.3 3.3 0 0 0 .5-.3c1.2-1 2.7-2 4-3.2.9-.9 2-1.6 2.8-2.6 0 0 2-2.9 1.7-2.9"/>
            </g>
          </g>
          <g fill="#000">
            <g>
              <g transform="matrix(1, 0, 0, 1, 1.045807, 1.332147)">
                <circle cx="107.127" cy="122.596" r="0.523" fill-opacity="1" style="fill: rgba(165, 85, 23, 0.83);"/>
                <circle cx="102.947" cy="126.975" r="0.523" fill-opacity="1" style="fill: rgba(165, 85, 23, 0.83);"/>
                <circle cx="111.62" cy="126.555" r="0.523" fill-opacity="1" style="fill: rgba(165, 85, 23, 0.83);"/>
              </g>
              <g transform="matrix(1, 0, 0, 1, 47.461861, 1.332147)">
                <circle cx="107.127" cy="122.596" r="0.523" fill-opacity="1" style="fill: rgba(165, 85, 23, 0.83);"/>
                <circle cx="102.947" cy="126.975" r="0.523" fill-opacity="1" style="fill: rgba(165, 85, 23, 0.83);"/>
                <circle cx="111.62" cy="126.555" r="0.523" fill-opacity="1" style="fill: rgba(165, 85, 23, 0.83);"/>
              </g>
            </g>
            <path d="M 147.1 115 C 148.888 110.78 152.924 107.948 157.5 107.7 C 162.009 107.337 166.34 109.541 168.7 113.4 C 169.4 114.4 168.7 115.4 167.8 114.8 C 164.893 112.741 161.348 111.784 157.8 112.1 C 154.1 112.3 150.8 113.8 148.5 116 C 147.7 116.7 146.7 116 147.1 115 Z" class="left-eye eye-closed" fill="#473232"/>
            <path d="M 95.1 115 C 96.888 110.78 100.924 107.948 105.5 107.7 C 110.009 107.337 114.34 109.541 116.7 113.4 C 117.4 114.4 116.7 115.4 115.8 114.8 C 112.893 112.741 109.348 111.784 105.8 112.1 C 102.1 112.3 98.8 113.8 96.5 116 C 95.7 116.7 94.7 116 95.1 115 Z" class="right-eye eye-closed" fill="#473232"/>
            <g transform="translate(78 134)">
              <defs>
                <path d="M29 15.6C30.4 25.2 41 33 54 33s23.6-7.8 25-18.3c.1-.4-.2-1.7-2.2-1.7H31.2c-1.8 0-2.3 1.2-2.2 2.6z"/>
              </defs>
              <mask id="e" fill="#fff">
                <path d="M29 15.6C30.4 25.2 41 33 54 33s23.6-7.8 25-18.3c.1-.4-.2-1.7-2.2-1.7H31.2c-1.8 0-2.3 1.2-2.2 2.6z"/>
              </mask>
              <path d="M29 15.6C30.4 25.2 41 33 54 33s23.6-7.8 25-18.3c.1-.4-.2-1.7-2.2-1.7H31.2c-1.8 0-2.3 1.2-2.2 2.6z"/>
              <rect fill="#FFF" mask="url(#e)" x="39" y="2" width="31" height="16" rx="5"/>
              <path d="M66 23.7V33c0 6-5 11-11 11h-1c-6 0-11-5-11-11v-9-.3-.2c0-2 3-3.5 6.5-3.5 2 0 3.8.5 5 1.3 1.2-.8 3-1.3 5-1.3 3.6 0 6.5 1.6 6.5 3.5v.2z" fill="#FF4F6D"/>
            </g>
            <path d="M120 130c0 4.4 5.4 8 12 8s12-3.6 12-8" fill-opacity=".2"/>
            <g transform="translate(76 89)" fill-opacity=".6">
              <circle cx="30" cy="22" r="6" class="eye-open" fill-opacity="1" fill="#805a3c"/>
              <circle cx="82" cy="22" r="6" class="eye-open" fill-opacity="1" fill="#805a3c"/>
            </g>
            <g fill-opacity=".7" class="eyebrows" fill="#4e3c2c">
              <path d="M107.1 98.5l-1 .4c-5.2 2-13.1 1.2-18-1.1-.5-.3 0-1.2.5-1.2a30.7 30.7 0 0 0 28.6-14.4c.1-.2.4-.2.5 0 2.2 5.3-4.7 14-10.6 16.3zM156.6 98.5l1 .4c5.2 2 13.1 1.2 18-1.1.6-.3.2-1.2-.4-1.2a29.5 29.5 0 0 1-28-14.4c-.2-.2-.5-.2-.6 0-2.4 5.3 4.2 14 10 16.3z" style="fill: rgb(113, 86, 55);"/>
            </g>
          </g>
          <defs>
            <path d="M0 0h264v280H0z"/>
            <path d="M167.3 35a71.5 71.5 0 0 0-55.3-6c-15 3.8-24 14.7-31.6 30.6-3.8 7.9-6 17.2-6.4 25.9-.1 3.4.3 7 1.3 10.2.3 1.2 2.1 5.4 2.6 2 .2-1.1-.4-2.7-.5-3.9a40.5 40.5 0 0 1 7.4-25c6.4-8.3 17.5-8.8 26.3-13.3-.8 1.4-3.7 3.6-2.7 5.2.7 1.1 3.3.8 4.6.8 3.4-.1 6.7-.7 10-1.2 5.3-.7 10.1-2.2 15-4 4-1.6 8.7-3 11.7-6.2 4.8 5 11.1 9.8 17.4 13 5.6 3 14.6 4.4 18 10.2 4.1 7 2.3 15.4 3.5 22.9.5 2.9 1.6 2.8 2.2.2 1-4.3 1.4-8.8 1.1-13.2-.7-10-4.4-36.5-24.6-48.2z"/>
          </defs>
          <g transform="translate(-1)">
            <mask id="f" fill="#fff">
              <path d="M167.3 35a71.5 71.5 0 0 0-55.3-6c-15 3.8-24 14.7-31.6 30.6-3.8 7.9-6 17.2-6.4 25.9-.1 3.4.3 7 1.3 10.2.3 1.2 2.1 5.4 2.6 2 .2-1.1-.4-2.7-.5-3.9a40.2 40.2 0 0 1 1.8-13.3c1.3-4 3-8.3 5.6-11.7 6.4-8.3 17.5-8.8 26.3-13.3-.8 1.4-3.7 3.6-2.7 5.2.7 1.1 3.3.8 4.6.8 3.4-.1 6.7-.7 10-1.2 5.3-.7 10.1-2.2 15-4 4-1.6 8.7-3 11.7-6.2 4.8 5 11.1 9.8 17.4 13 5.6 3 14.6 4.4 18 10.2 4.1 7 2.3 15.4 3.5 22.9.5 2.8 1.6 2.8 2.2.2 1-4.3 1.4-8.8 1.1-13.2-.7-10-4.4-36.5-24.6-48.2z"/>
            </mask>
            <path d="M167.3 35a71.5 71.5 0 0 0-55.3-6c-15 3.8-24 14.7-31.6 30.6-3.8 7.9-6 17.2-6.4 25.9-.1 3.4.3 7 1.3 10.2.3 1.2 2.1 5.4 2.6 2 .2-1.1-.4-2.7-.5-3.9a40.2 40.2 0 0 1 1.8-13.3c1.3-4 3-8.3 5.6-11.7 6.4-8.3 17.5-8.8 26.3-13.3-.8 1.4-3.7 3.6-2.7 5.2.7 1.1 3.3.8 4.6.8 3.4-.1 6.7-.7 10-1.2 5.3-.7 10.1-2.2 15-4 4-1.6 8.7-3 11.7-6.2 4.8 5 11.1 9.8 17.4 13 5.6 3 14.6 4.4 18 10.2 4.1 7 2.3 15.4 3.5 22.9.5 2.8 1.6 2.8 2.2.2 1-4.3 1.4-8.8 1.1-13.2-.7-10-4.4-36.5-24.6-48.2z"/>
            <g mask="url(#f)" fill="#4A312C">
              <path d="M0 0h264v280H0z" style="fill: rgb(113, 86, 55);"/>
            </g>
          </g>
        </g>
        <g mask="url(#mask-4)" transform="matrix(.81886 0 0 .81886 -38.2 58)">
          <g transform="translate(32 36)">
            <mask id="g" fill="#fff">
              <path d="M124 144.6V163h4a72 72 0 0 1 72 72v9H0v-9a72 72 0 0 1 72-72h4v-18.4A56 56 0 0 1 44.3 100 12 12 0 0 1 34 88V74a12 12 0 0 1 10-11.8V56a56 56 0 1 1 112 0v6.2A12 12 0 0 1 166 74v14c0 6-4.5 11-10.3 11.9a56 56 0 0 1-31.7 44.7z"/>
            </mask>
            <path d="M124 144.6V163h4a72 72 0 0 1 72 72v9H0v-9a72 72 0 0 1 72-72h4v-18.4A56 56 0 0 1 44.3 100 12 12 0 0 1 34 88V74a12 12 0 0 1 10-11.8V56a56 56 0 1 1 112 0v6.2A12 12 0 0 1 166 74v14c0 6-4.5 11-10.3 11.9a56 56 0 0 1-31.7 44.7z"/>
            <g mask="url(#g)" fill="#FFDBB4">
              <path d="M-32 0h264v244H-32z" style="fill: rgb(240, 200, 166);"/>
            </g>
            <path d="M156 79v23a56 56 0 1 1-112 0V79v15a56 56 0 1 0 112 0V79z" fill-opacity=".1" fill="#000" mask="url(#g)"/>
          </g>
          <g transform="translate(0 170)">
            <defs>
              <path d="M108 13c-18 2-31.7 7.6-32 21.6A72 72 0 0 0 32 101v9h200v-9a72 72 0 0 0-44-66.4c-.3-14-14-19.5-32-21.5V32a24 24 0 1 1-48 0V13z"/>
            </defs>
            <mask id="h" fill="#fff">
              <path d="M108 13c-18 2-31.7 7.6-32 21.6A72 72 0 0 0 32 101v9h200v-9a72 72 0 0 0-44-66.4c-.3-14-14-19.5-32-21.5V32a24 24 0 1 1-48 0V13z"/>
            </mask>
            <path d="M108 13c-18 2-31.7 7.6-32 21.6A72 72 0 0 0 32 101v9h200v-9a72 72 0 0 0-44-66.4c-.3-14-14-19.5-32-21.5V32a24 24 0 1 1-48 0V13z"/>
            <g mask="url(#h)" fill="#65C9FF">
              <path d="M0 0h264v110H0z"/>
            </g>
            <path d="M102 61.7V110h-7V58.2c2.2 1.3 4.5 2.5 7 3.5zm67-3.5v40.3a3.5 3.5 0 1 1-7 0V61.7c2.5-1 4.8-2.2 7-3.5z" fill="#F4F4F4" mask="url(#h)"/>
            <path d="M91 12.7c-15 2.9-25.5 8.5-25.5 19.6C65.5 52 98.5 68 132 68s66.5-16 66.5-35.7c0-11-10.4-16.7-25.5-19.6 9.1 3.4 15 9 15 18.4 0 20.4-27.8 36.9-56 36.9S76 51.5 76 31c0-9.3 5.9-15 15-18.3z" fill-opacity=".2" fill="#000" mask="url(#h)"/>
          </g>
          <g fill="#000">
            <g transform="translate(78 134)">
              <defs>
                <path d="M35.1 15.1a19 19 0 0 0 37.8 0c0-.8-.8-2.1-1.9-2.1H37c-1 0-2 1.2-1.9 2.1z"/>
              </defs>
              <mask id="i" fill="#fff">
                <path d="M35.1 15.1a19 19 0 0 0 37.8 0c0-.8-.8-2.1-1.9-2.1H37c-1 0-2 1.2-1.9 2.1z"/>
              </mask>
              <path d="M35.1 15.1a19 19 0 0 0 37.8 0c0-.8-.8-2.1-1.9-2.1H37c-1 0-2 1.2-1.9 2.1z"/>
              <rect fill="#FFF" mask="url(#i)" x="39" y="2" width="31" height="16" rx="5"/>
              <g mask="url(#i)" fill="#FF4F6D">
                <circle cx="49" cy="35" r="11"/>
                <circle cx="59" cy="35" r="11"/>
              </g>
            </g>
            <path d="M125.9 129c0 4.4-.5 5.1 6.1 5.1s7.2-.7 7.2-5.1" fill-opacity=".2"/>
            <g transform="translate(76 90)" fill-opacity=".6">
              <circle cx="30" cy="22" r="6" class="eye-open" fill-opacity="1" fill="#5ea5e4"/>
              <circle cx="82" cy="22" r="6" class="eye-open" fill="#5ea5e4" fill-opacity="1"/>
            </g>
            <g fill-opacity=".6" class="eyebrows" fill="#7a5c28">
              <path d="M102.5 88.1c-5.8.3-15.1 4.5-15 10.4.1.2.4.3.5.1 2.8-3 22.3-6 29.2-4.3.7.1 1.1-.5.7-1-3.4-3.8-10.2-5.4-15.4-5.2M162.5 88.1c5.8.3 15.1 4.5 15 10.4-.1.2-.4.3-.5.1-2.8-3-22.3-6-29.2-4.3-.7.1-1.1-.5-.7-1 3.4-3.8 10.2-5.4 15.4-5.2" style="fill: rgb(181, 142, 0);"/>
            </g>
            <path d="M147.1 116a12 12 0 0 1 10.4-7.3 12 12 0 0 1 11.2 5.7c.7 1 0 2-.9 1.4a15 15 0 0 0-10-2.7c-3.7.2-7 1.7-9.3 3.9-.8.7-1.8 0-1.4-1z" class="left-eye eye-closed" fill="#0074bd"/>
            <path d="M95.1 116a12 12 0 0 1 10.4-7.3 12 12 0 0 1 11.2 5.7c.7 1 0 2-.9 1.4a15 15 0 0 0-10-2.7c-3.7.2-7 1.7-9.3 3.9-.8.7-1.8 0-1.4-1z" class="right-eye eye-closed" fill="#0074bd"/>
          </g>
          <defs>
            <path d="M0 0h264v280H0z"/>
            <path d="M180.1 40c-2.7-2.9-6-5.3-9-7.7l-2-1.6c-.2-.1-1.8-1.2-2-1.6-.4-1-.2-.3-.1-1.5 0-1.4 3.1-5.7.8-6.7-1-.4-2.8.8-3.7 1.1-1.9.8-3.8 1.4-5.8 2 1-2 2.8-5.6-.6-4.6-2.6.7-5 2.7-7.6 3.7.8-1.5 4.3-5.9 1.2-6.1-1 0-3.8 1.8-4.9 2.1-3.1 1.2-6.3 2-9.6 2.6-11.2 2-24.3 1.4-34.7 6.5A49 49 0 0 0 81.6 46a58.4 58.4 0 0 0-7 24.2c-.7 6.3-.7 12.8-.4 19.2 0 2 .3 11.6 3.3 8.7 1.5-1.5 1.5-7.3 1.9-9.2.7-4 1.5-7.9 2.7-11.7a38.9 38.9 0 0 1 10.3-18.4c3.6-3 6-7 9.4-9.9 1.5-1.3.4-1.2 2.8-1l5 .2h11.3c7.7.1 15.3.2 23-.2l10.1-.6c1.9-.1 5.3-1.4 6.8-.4 1.4.8 3 3.6 4 4.7 2.4 2.7 5.2 4.7 8 7A29.8 29.8 0 0 1 183.6 76c1.8 7.2 1.3 13.8 3.5 20.8.4 1.2 1.4 3.3 2.7 1.4.2-.3.2-2.3.2-3.4 0-4.5 1.1-7.9 1.1-12.4 0-13.9-.5-32-10.9-42.5z"/>
          </defs>
          <mask id="j" fill="#fff">
            <path d="M0 0h264v280H0z"/>
          </mask>
          <g mask="url(#j)">
            <path d="M179.2 40c-2.8-2.9-6-5.3-9.1-7.7l-2-1.6c-.2-.1-1.8-1.2-2-1.6-.4-1-.2-.3-.1-1.5 0-1.4 3.1-5.7.8-6.7-1-.4-2.8.8-3.7 1.1-1.9.8-3.8 1.4-5.8 2 1-2 2.8-5.6-.6-4.6-2.6.7-5 2.7-7.6 3.7.8-1.5 4.3-5.9 1.2-6.1-1 0-3.8 1.8-4.9 2.1a56 56 0 0 1-9.6 2.6c-11.2 2-24.3 1.4-34.7 6.5A49 49 0 0 0 80.6 46a58.4 58.4 0 0 0-7 24.2c-.7 6.3-.7 12.8-.4 19.2 0 2 .3 11.6 3.3 8.7 1.5-1.5 1.5-7.3 1.9-9.2.7-4 1.5-7.9 2.7-11.7a38.9 38.9 0 0 1 10.3-18.4c3.6-3 6-7 9.4-9.9 1.5-1.3.4-1.2 2.8-1l5 .2h11.3c7.7.1 15.3.2 23-.2l10.1-.6c1.9-.1 5.3-1.4 6.8-.4 1.4.8 3 3.6 4 4.7 2.4 2.7 5.2 4.7 8 7A29.8 29.8 0 0 1 182.6 76c1.8 7.2 1.3 13.8 3.5 20.8.4 1.2 1.4 3.3 2.7 1.4.2-.3.2-2.3.2-3.4 0-4.5 1.1-7.9 1.1-12.4 0-13.9-.5-32-10.8-42.5z"/>
            <g mask="url(#k)" fill="#724133" transform="translate(-1)">
              <path d="M0 0h264v280H0z" style="fill: rgb(181, 142, 0);"/>
            </g>
            <g transform="translate(-1)">
              <mask id="k" fill="#fff">
                <path d="M180.2 40c-2.8-2.9-6-5.3-9.1-7.7l-2-1.6c-.2-.1-1.8-1.2-2-1.6-.4-1-.2-.3-.1-1.5 0-1.4 3.1-5.7.8-6.7-1-.4-2.8.8-3.7 1.1-1.9.8-3.8 1.4-5.8 2 1-2 2.8-5.6-.6-4.6-2.6.7-5 2.7-7.6 3.7.8-1.5 4.3-5.9 1.2-6.1-1 0-3.8 1.8-4.9 2.1a56 56 0 0 1-9.6 2.6c-11.2 2-24.3 1.4-34.7 6.5A49 49 0 0 0 81.6 46a58.4 58.4 0 0 0-7 24.2c-.7 6.3-.7 12.8-.4 19.2 0 2 .3 11.6 3.3 8.7 1.5-1.5 1.5-7.3 1.9-9.2.7-4 1.5-7.9 2.7-11.7a38.9 38.9 0 0 1 10.3-18.4c3.6-3 6-7 9.4-9.9 1.5-1.3.4-1.2 2.8-1l5 .2h11.3c7.7.1 15.3.2 23-.2l10.1-.6c1.9-.1 5.3-1.4 6.8-.4 1.4.8 3 3.6 4 4.7 2.4 2.7 5.2 4.7 8 7A29.8 29.8 0 0 1 183.6 76c1.8 7.2 1.3 13.8 3.5 20.8.4 1.2 1.4 3.3 2.7 1.4.2-.3.2-2.3.2-3.4 0-4.5 1.1-7.9 1.1-12.4 0-13.9-.5-32-10.8-42.5z"/>
              </mask>
            </g>
          </g>
        </g>
      </g>
      <g class="boris">
        <g transform="translate(32 36)">
          <mask id="l" fill="#fff">
            <path d="M124 144.6V163h4a72 72 0 0 1 72 72v9H0v-9a72 72 0 0 1 72-72h4v-18.4A56 56 0 0 1 44.3 100 12 12 0 0 1 34 88V74a12 12 0 0 1 10-11.8V56a56 56 0 1 1 112 0v6.2A12 12 0 0 1 166 74v14c0 6-4.5 11-10.3 11.9a56 56 0 0 1-31.7 44.7z"/>
          </mask>
          <path d="M124 144.6V163h4a72 72 0 0 1 72 72v9H0v-9a72 72 0 0 1 72-72h4v-18.4A56 56 0 0 1 44.3 100 12 12 0 0 1 34 88V74a12 12 0 0 1 10-11.8V56a56 56 0 1 1 112 0v6.2A12 12 0 0 1 166 74v14c0 6-4.5 11-10.3 11.9a56 56 0 0 1-31.7 44.7z"/>
          <g mask="url(#l)" fill="#EDB98A">
            <path d="M-32 0h264v244H-32z"/>
          </g>
          <path d="M156 79v23a56 56 0 1 1-112 0V79v15a56 56 0 1 0 112 0V79z" fill-opacity=".1" fill="#000" mask="url(#l)"/>
        </g>
        <g transform="translate(0 170)">
          <defs>
            <path d="M105.2 29H104a72 72 0 0 0-72 72v9h200v-9a72 72 0 0 0-72-72h-1.2l.2 3c0 13.9-12 25-27 25S105 46 105 32c0-1 0-2 .2-3z"/>
          </defs>
          <mask id="m" fill="#fff">
            <path d="M105.2 29H104a72 72 0 0 0-72 72v9h200v-9a72 72 0 0 0-72-72h-1.2l.2 3c0 13.9-12 25-27 25S105 46 105 32c0-1 0-2 .2-3z"/>
          </mask>
          <path d="M105.2 29H104a72 72 0 0 0-72 72v9h200v-9a72 72 0 0 0-72-72h-1.2l.2 3c0 13.9-12 25-27 25S105 46 105 32c0-1 0-2 .2-3z"/>
          <g mask="url(#m)" fill="#FF488E">
            <path d="M0 0h264v110H0z" class="shirt"/>
          </g>
          <path d="M156 22.3c6.2 4.5 10 10.8 10 17.7 0 7.2-4.1 13.7-10.8 18.3l-5.6-4.4-4.6.3 1-3.1V51c6-3.1 10-8.3 10-14.1V22.3zm-48-.7c-6.8 4.6-11 11.1-11 18.4 0 7.4 4.4 14 11.3 18.7l6.1-4.8 4.6.3-1-3.1V51c-6-3.1-10-8.3-10-14.1V21.6z" fill="#F2F2F2"/>
        </g>
        <g fill="#000">
          <g transform="translate(78 134)">
            <defs>
              <path d="M35.1 15.1a19 19 0 0 0 37.8 0c0-.8-.8-2.1-1.9-2.1H37c-1 0-2 1.2-1.9 2.1z"/>
            </defs>
            <mask id="n" fill="#fff">
              <path d="M35.1 15.1a19 19 0 0 0 37.8 0c0-.8-.8-2.1-1.9-2.1H37c-1 0-2 1.2-1.9 2.1z"/>
            </mask>
            <path d="M35.1 15.1a19 19 0 0 0 37.8 0c0-.8-.8-2.1-1.9-2.1H37c-1 0-2 1.2-1.9 2.1z"/>
            <rect fill="#FFF" mask="url(#n)" x="39" y="2" width="31" height="16" rx="5"/>
            <g mask="url(#n)" fill="#FF4F6D">
              <g transform="translate(38 24)">
                <circle cx="11" cy="11" r="11"/>
                <circle cx="21" cy="11" r="11"/>
              </g>
            </g>
          </g>
          <path d="M120 130c0 4.4 5.4 8 12 8s12-3.6 12-8" fill-opacity=".2"/>
          <g transform="translate(76 90)" fill-opacity=".6">
            <circle cx="30" cy="22" r="6" class="right-eye eye-open"/>
            <circle cx="56" cy="-18.1" r="6" transform="translate(26 40)" class="left-eye eye-open"/>
            <path d="M70.6 25A12 12 0 0 1 81 17.6a12 12 0 0 1 11.2 5.7c.6 1 0 2-1 1.4a15 15 0 0 0-10-2.7c-3.6.2-7 1.7-9.2 3.9-.9.7-1.8 0-1.4-1z" class="left-eye eye-closed"/>
            <path d="M18.6 25A12 12 0 0 1 29 17.6a12 12 0 0 1 11.2 5.7c.6 1 0 2-1 1.4a15 15 0 0 0-10-2.7c-3.6.2-7 1.7-9.2 3.9-.9.7-1.8 0-1.4-1z" class="right-eye eye-closed"/>
          </g>
          <path d="M91.6 99.2c4-5.6 14.7-8.6 24-6.4a2 2 0 0 0 .9-3.9c-10.8-2.6-23.2 1-28.1 8a2 2 0 0 0 3.2 2.3zm80.8 0c-4-5.6-14.7-8.6-24-6.4a2 2 0 0 1-.9-3.9c10.8-2.6 23.2 1 28.1 8a2 2 0 0 1-3.2 2.3z" class="eyebrows" fill-rule="nonzero" fill-opacity=".6"/>
        </g>
        <g mask="url(#o)">
          <g transform="translate(-1)">
            <g transform="translate(49 72)">
              <defs>
                <path d="M101.4 98.2c-2.5 2.3-5.2 3.3-8.5 2.6-.6-.2-3-4.6-8.9-4.6s-8.3 4.4-8.9 4.6c-3.3.7-6-.3-8.5-2.6-4.8-4.3-8.7-10.3-6.3-16.8 1.2-3.4 3.2-7 6.9-8.2 3.8-1.1 9.3 0 13.2-.7 1.3-.3 2.7-.7 3.6-1.5 1 .8 2.3 1.2 3.6 1.5 3.9.7 9.4-.4 13.2.7 3.7 1.1 5.7 4.8 7 8.2 2.3 6.5-1.6 12.5-6.4 16.8M140.1 26c-3.4 8.4-2.1 18.9-2.7 27.7-.6 7.1-2 17.9-8.4 22.5-3.3 2.4-9.2 6.4-13.5 5.3-2.9-.8-3.2-9.2-7-12.4A22.4 22.4 0 0 0 93 64.3c-2.3 0-7.1 0-9.1 1.9-2-1.9-6.8-1.8-9.1-2-5.5-.2-11 1.4-15.4 5-3.8 3-4.1 11.5-7 12.3-4.3 1-10.2-3-13.5-5.3-6.3-4.6-7.8-15.4-8.4-22.5-.6-8.8.7-19.3-2.7-27.7-1.6 0-.5 16.1-.5 16.1v20.4A53 53 0 0 0 58 109.4c5.2 2.1 17 5.6 25.9 5.6s20.7-3.1 25.9-5.3c21.2-8.7 30.7-32 30.7-47.2V42s1.1-16.1-.5-16.1"/>
              </defs>
              <mask id="p" fill="#fff">
                <path d="M101.4 98.2c-2.5 2.3-5.2 3.3-8.5 2.6-.6-.2-3-4.6-8.9-4.6s-8.3 4.4-8.9 4.6c-3.3.7-6-.3-8.5-2.6-4.8-4.3-8.7-10.3-6.3-16.8 1.2-3.4 3.2-7 6.9-8.2 3.8-1.1 9.3 0 13.2-.7 1.3-.3 2.7-.7 3.6-1.5 1 .8 2.3 1.2 3.6 1.5 3.9.7 9.4-.4 13.2.7 3.7 1.1 5.7 4.8 7 8.2 2.3 6.5-1.6 12.5-6.4 16.8M140.1 26c-3.4 8.4-2.1 18.9-2.7 27.7-.6 7.1-2 17.9-8.4 22.5-3.3 2.4-9.2 6.4-13.5 5.3-2.9-.8-3.2-9.2-7-12.4A22.4 22.4 0 0 0 93 64.3c-2.3 0-7.1 0-9.1 1.9-2-1.9-6.8-1.8-9.1-2-5.5-.2-11 1.4-15.4 5-3.8 3-4.1 11.5-7 12.3-4.3 1-10.2-3-13.5-5.3-6.3-4.6-7.8-15.4-8.4-22.5-.6-8.8.7-19.3-2.7-27.7-1.6 0-.5 16.1-.5 16.1v20.4A53 53 0 0 0 58 109.4c5.2 2.1 17 5.6 25.9 5.6 9 0 20.7-3.1 25.9-5.3 21.2-8.7 30.7-32 30.7-47.2V42s1.1-16.1-.5-16.1"/>
              </mask>
              <path d="M101.4 98.2c-2.5 2.3-5.2 3.3-8.5 2.6-.6-.2-3-4.6-8.9-4.6s-8.3 4.4-8.9 4.6c-3.3.7-6-.3-8.5-2.6-4.8-4.3-8.7-10.3-6.3-16.8 1.2-3.4 3.2-7 6.9-8.2 3.8-1.1 9.3 0 13.2-.7 1.3-.3 2.7-.7 3.6-1.5 1 .8 2.3 1.2 3.6 1.5 3.9.7 9.4-.4 13.2.7 3.7 1.1 5.7 4.8 7 8.2 2.3 6.5-1.6 12.5-6.4 16.8M140.1 26c-3.4 8.4-2.1 18.9-2.7 27.7-.6 7.1-2 17.9-8.4 22.5-3.3 2.4-9.2 6.4-13.5 5.3-2.9-.8-3.2-9.2-7-12.4A22.4 22.4 0 0 0 93 64.3c-2.3 0-7.1 0-9.1 1.9-2-1.9-6.8-1.8-9.1-2-5.5-.2-11 1.4-15.4 5-3.8 3-4.1 11.5-7 12.3-4.3 1-10.2-3-13.5-5.3-6.3-4.6-7.8-15.4-8.4-22.5-.6-8.8.7-19.3-2.7-27.7-1.6 0-.5 16.1-.5 16.1v20.4A53 53 0 0 0 58 109.4c5.2 2.1 17 5.6 25.9 5.6 9 0 20.7-3.1 25.9-5.3 21.2-8.7 30.7-32 30.7-47.2V42s1.1-16.1-.5-16.1"/>
              <g mask="url(#p)" fill="#4A312C">
                <path d="M-32 0h264v244H-32z"/>
              </g>
            </g>
            <mask id="q" fill="#fff">
              <path d="M94.3 52h-1 1M86 36.3s0 .2 0 0m107.7 34.5a63 63 0 0 0-4-17.4c-.7-1.5-2-3.5-2.2-5.1-.2-1.6 1-3.3 1.3-5.2a16 16 0 0 0-.2-5.4 11 11 0 0 0-7.8-8.8c-1-.3-3 0-3.7-.5-.7-.7-1.3-2.8-2-3.7a9 9 0 0 0-8.3-3.5c-2.4.4-1 1-2.9-.5-1-.8-1.7-2-2.7-2.9a24.7 24.7 0 0 0-4.9-3.2c-4.5-2.4-9.7-4.1-14.8-5a68.3 68.3 0 0 0-28.2 2.3c-4.5 1.2-9 2.7-13.2 4.7-1.8.9-2.8 1.6-4.7 1.8-2.9.4-5.4.4-8.1 1.6A16.3 16.3 0 0 0 81 45.8c1.5 1.6 2.1 1.3.8 3.2A52.8 52.8 0 0 0 73 85c.1 3.2.3 6.3.8 9.5.2 1.3.2 3.8 1.2 4.8a2 2 0 0 0 2 .6c1.7-.5 1.1-1.7 1.2-2.9.2-5.9-.1-11 1.3-16.9 1-4.3 2.8-8.2 5-12a72 72 0 0 1 9.8-13.4c1-1 1.1-1.4 2.3-1.5 1 0 2.3.6 3.2.8a58.3 58.3 0 0 0 17.3 1.8 100 100 0 0 0 22-2.6c4.9-1.2 9.1-3.4 13.7-5 0 0 1.2-1 1.4-.9.3 0 2 1.9 2.3 2 2.2 1.8 4.6 2.6 7 4 3 1.6.1-.8 1.8 1.3.4.6.7 1.7 1 2.4a18 18 0 0 0 5 5.6c2 1.5 4.9 2.2 5.9 4.1.8 1.5 1 3.5 1.6 5 1.7 4.2 3.8 8 6 12 1.7 3 3.6 5.8 3.8 9.4 0 1.3-1.1 8.7 1.8 6.5.4-.4 1.3-4.2 1.5-4.8.8-2.7 1-5.4 1.4-8.1.7-5.4 1-10.5.5-16"/>
            </mask>
            <path d="M94.3 52h-1 1M86 36.3s0 .2 0 0m107.7 34.5a63 63 0 0 0-4-17.4c-.7-1.5-2-3.5-2.2-5.1-.2-1.6 1-3.3 1.3-5.2a16 16 0 0 0-.2-5.4 11 11 0 0 0-7.8-8.8c-1-.3-3 0-3.7-.5-.7-.7-1.3-2.8-2-3.7a9 9 0 0 0-8.3-3.5c-2.4.4-1 1-2.9-.5-1-.8-1.7-2-2.7-2.9a24.7 24.7 0 0 0-4.9-3.2c-4.5-2.4-9.7-4.1-14.8-5a68.3 68.3 0 0 0-28.2 2.3c-4.5 1.2-9 2.7-13.2 4.7-1.8.9-2.8 1.6-4.7 1.8-2.9.4-5.4.4-8.1 1.6A16.3 16.3 0 0 0 81 45.8c1.5 1.6 2.1 1.3.8 3.2A52.8 52.8 0 0 0 73 85c.1 3.2.3 6.3.8 9.5.2 1.3.2 3.8 1.2 4.8a2 2 0 0 0 2 .6c1.7-.5 1.1-1.7 1.2-2.9.2-5.9-.1-11 1.3-16.9 1-4.3 2.8-8.2 5-12a72 72 0 0 1 9.8-13.4c1-1 1.1-1.4 2.3-1.5 1 0 2.3.6 3.2.8a58.3 58.3 0 0 0 17.3 1.8 100 100 0 0 0 22-2.6c4.9-1.2 9.1-3.4 13.7-5 0 0 1.2-1 1.4-.9.3 0 2 1.9 2.3 2 2.2 1.8 4.6 2.6 7 4 3 1.6.1-.8 1.8 1.3.4.6.7 1.7 1 2.4a18 18 0 0 0 5 5.6c2 1.5 4.9 2.2 5.9 4.1.8 1.5 1 3.5 1.6 5 1.7 4.2 3.8 8 6 12 1.7 3 3.6 5.8 3.8 9.4 0 1.3-1.1 8.7 1.8 6.5.4-.4 1.3-4.2 1.5-4.8.8-2.7 1-5.4 1.4-8.1.7-5.4 1-10.5.5-16"/>
            <g mask="url(#q)" fill="#4A312C">
              <path d="M0 0h264v280H0z"/>
            </g>
            <g transform="translate(62 85)">
              <defs>
                <filter x="-.8%" y="-2.4%" width="101.5%" height="109.8%" filterUnits="objectBoundingBox" id="r">
                  <feOffset dy="2" in="SourceAlpha" result="shadowOffsetOuter1"/>
                  <feColorMatrix values="0 0 0 0 0 0 0 0 0 0 0 0 0 0 0 0 0 0 0.2 0" in="shadowOffsetOuter1" result="shadowMatrixOuter1"/>
                  <feMerge>
                    <feMergeNode in="shadowMatrixOuter1"/>
                    <feMergeNode in="SourceGraphic"/>
                  </feMerge>
                </filter>
              </defs>
              <g filter="url(#r)" transform="translate(6 7)" fill="#252C2F" fill-rule="nonzero">
                <path d="M34 41h-2.8C17.3 41 9 33.3 9 20.5 9 10.1 10.8 0 32.5 0h3C57.2 0 59 10.1 59 20.5 59 32.5 48.7 41 34 41zM32.4 6C13 6 13 12.8 13 21.5c0 7 3.1 15.5 18 15.5h3c12.4 0 21-6.4 21-15.5C55 12.8 55 6 35.6 6h-3.2zM96 41h-2.8C79.3 41 71 33.3 71 20.5 71 10.1 72.8 0 94.5 0h3C119.2 0 121 10.1 121 20.5c0 12-10.3 20.5-25 20.5zM94.4 6C75 6 75 12.8 75 21.5c0 7 3.1 15.5 18 15.5h3c12.4 0 21-6.4 21-15.5C117 12.8 117 6 97.6 6h-3.2z"/>
                <path d="M3 5.8C3.6 5 11.2 0 32.5 0c17.9 0 21.6 1.9 27.4 4.7l.4.2c.4.1 2.4.8 4.8.9a17 17 0 0 0 4.5-.9C76.2 1.7 82.6 0 97.5 0c21.3 0 28.9 5.1 29.5 5.8a3 3 0 0 1 3 2.9v2.8a3 3 0 0 1-3 3s-6.9 0-6.9 2.8c0 2.9-2-4.2-2-5.8V8.7c-3.5-1.3-10-4-20.6-4A53 53 0 0 0 74.7 9V11l-2.2 5.3-2.7-1a13.9 13.9 0 0 0-7.5-.7 8 8 0 0 0-1.9.6l-2.6 1.3-2.7-5.2.1-2.3.1-.2C51 7 47 4.8 32.5 4.8c-10.6 0-17 2.6-20.7 4v2.7c0 1.6-3 8.7-3 5.8 0-2.9-5.8-2.9-5.8-2.9a3 3 0 0 1-3-2.9V8.7a3 3 0 0 1 3-3z"/>
              </g>
            </g>
          </g>
        </g>
        <g class="db-logo">
          <path d="M140.9 245.3l-2.9 2.4a43.1 43.1 0 0 0-8.6 1.8l-5.8 3.4.2.3.3.3.4-.2s.8-.3 2.9.3c1.1.4 2 1.3 2.6 1.7-.4.4-1.6 2.8-1.6 2.8l-.3.2.2.3.3.3.3-.2 3-1c.2.5 1 1.6 1.1 2.8.2 2.1-.2 2.9-.2 2.9l-.3.3.3.3.2.3 4.5-5 2-3.9a41 41 0 0 0 1.5-4.2l3-2.4c7.8-6.4 10.2-11.6 10.2-11.5 0 0-5.5 1.6-13.3 8z" fill="#fff"/>
          <path fill="#13a7c7" d="M118 243.5a12.3 12.3 0 1 0-.4 24.6 9 9 0 0 0 5.5-2l1.6 1.9 2.8-8.6-9 1.1 1.8 2.2c-.7.6-1.7.9-2.7.9a7.8 7.8 0 0 1-5.2-13.3 7.8 7.8 0 0 1 11 .2l.4.5 4-2.3-1.2-1.4a12.4 12.4 0 0 0-8.6-3.8zm37.1 4.2a11.9 11.9 0 0 0-4.2-2.8l-3.7 3.7a7.7 7.7 0 1 1-6.5 13l-1.8-1.8-1.2 2.1-1.6 1.7 1.3 1.3c2.3 2.4 5.4 3.7 8.6 3.7 3.3 0 6.5-1.2 8.8-3.4 4.9-4.8 5-12.6.3-17.5z"/>
        </g>
      </g>
    </g>
  </g>
</svg>
