<?xml version="1.0" encoding="utf-8"?>
<svg viewBox="0 0 264 280" class="avatar" xmlns="http://www.w3.org/2000/svg" xmlns:bx="https://boxy-svg.com">
  <defs>
    <circle id="a" cx="120" cy="120" r="120"/>
    <path d="M12 160c0 66.274 53.726 120 120 120s120-53.726 120-120h12V0H0v160h12z" id="c"/>
    <path d="M124 144.611V163h4c39.765 0 72 32.235 72 72v9H0v-9c0-39.765 32.235-72 72-72h4v-18.389c-17.237-8.189-29.628-24.924-31.695-44.73C38.48 99.058 34 94.052 34 88V74c0-5.946 4.325-10.882 10-11.834V56c0-30.928 25.072-56 56-56s56 25.072 56 56v6.166c5.675.952 10 5.888 10 11.834v14c0 6.052-4.48 11.058-10.305 11.881-2.067 19.806-14.458 36.541-31.695 44.73z" id="e"/>
  </defs>
  <g fill="none" fill-rule="evenodd">
    <g transform="translate(12 40)">
      <mask id="b" fill="#fff">
        <circle cx="120" cy="120" r="120"/>
      </mask>
      <circle cx="120" cy="120" r="120"/>
      <g mask="url(#b)" fill="#65C9FF">
        <path d="M0 0h240v240H0z" class="bg"/>
      </g>
    </g>
    <mask id="d" fill="#fff">
      <path d="M 12 160 C 12 226.274 65.726 280 132 280 C 198.274 280 252 226.274 252 160 L 264 160 L 264 0 L 0 0 L 0 160 L 12 160 Z"/>
    </mask>
    <g mask="url(#d)">
      <defs>
        <path id="k" d="M0 0h264v280H0z"/>
        <path d="M94.252 52.022c.123-.054-.182-.075-.916-.062.892-.002 1.197.019.916.062m-8.135-15.72c-.002-.02.017.15 0 0m107.648 34.464c-.264-3.317-.732-6.614-1.518-9.855-.625-2.576-1.478-5.033-2.487-7.491-.61-1.485-2.032-3.524-2.2-5.126-.165-1.577 1.067-3.325 1.33-5.162a15.981 15.981 0 0 0-.156-5.438c-.833-4.023-3.594-7.764-7.857-8.813-.952-.234-2.964.055-3.636-.5-.771-.635-1.308-2.8-2.006-3.669-1.99-2.476-5.095-4.07-8.37-3.514-2.41.409-1.026.907-2.833-.512-1.005-.788-1.756-1.993-2.732-2.847-1.467-1.283-3.15-2.38-4.892-3.282-4.557-2.358-9.754-4.072-14.844-4.908-9.285-1.524-19.195-.195-28.195 2.22-4.479 1.201-8.987 2.726-13.147 4.743-1.783.864-2.813 1.582-4.673 1.808-2.928.357-5.409.339-8.183 1.581-8.536 3.822-12.381 12.689-9.06 21.174a14.64 14.64 0 0 0 2.82 4.584c1.521 1.68 2.072 1.35.762 3.282a52.787 52.787 0 0 0-4.955 9.172c-3.529 8.402-4.12 17.864-3.89 26.824.081 3.137.216 6.313.71 9.42.214 1.344.274 3.872 1.282 4.87.512.506 1.241.788 1.969.587 1.71-.474 1.121-1.735 1.161-2.906.2-5.884-.07-11.089 1.33-16.902 1.033-4.294 2.755-8.195 4.988-12.035 2.838-4.884 5.903-9.173 9.807-13.355.917-.984 1.118-1.4 2.349-1.472.932-.054 2.295.584 3.2.805 1.999.487 4 .968 6.034 1.296 3.74.603 7.444.644 11.217.525 7.426-.232 14.885-.753 22.085-2.623 4.782-1.242 9.022-3.47 13.602-5.105.082-.029 1.23-.847 1.43-.814.282.047 1.978 1.826 2.264 2.05 2.226 1.746 4.667 2.479 7.07 3.83 2.964 1.667.094-.718 1.728 1.359.477.605.72 1.726 1.103 2.411a18.08 18.08 0 0 0 4.93 5.624c1.956 1.47 4.894 2.18 5.891 4.095.769 1.477 1.028 3.484 1.648 5.06 1.628 4.136 3.777 7.992 5.926 11.887 1.732 3.14 3.625 5.881 3.818 9.468.067 1.248-1.121 8.737 1.773 6.46.429-.338 1.353-4.156 1.543-4.804.772-2.633 1.046-5.381 1.395-8.086.694-5.38.923-10.498.47-15.916" id="o"/>
      </defs>
      <mask id="l" fill="#fff">
        <path d="M 0 0 L 264 0 L 264 280 L 0 280 Z"/>
      </mask>
      <g class="kids" transform="matrix(0.891924, 0, 0, 0.891924, 125.939377, 190.949371)" bx:origin="0.4548 0.5">
        <g id="g-1" stroke-width="1" fill-rule="evenodd" mask="url(#mask-4)" transform="matrix(1.072066, 0, 0, 1.072066, -78.922531, -201.754089)">
          <g id="g-2" transform="translate(32.000000, 36.000000)">
            <mask id="mask-1" fill="white">
              <path d="M 124 144.611 L 124 163 L 128 163 L 128 163 C 167.765 163 200 195.235 200 235 L 200 244 L 0 244 L 0 235 C 0 195.235 32.235 163 72 163 L 72 163 L 76 163 L 76 144.611 C 58.763 136.422 46.372 119.687 44.305 99.881 C 38.48 99.058 34 94.052 34 88 L 34 74 C 34 68.054 38.325 63.118 44 62.166 L 44 56 L 44 56 C 44 25.072 69.072 0 100 0 L 100 0 L 100 0 C 130.928 0 156 25.072 156 56 L 156 62.166 C 161.675 63.118 166 68.054 166 74 L 166 88 C 166 94.052 161.52 99.058 155.695 99.881 C 153.628 119.687 141.237 136.422 124 144.611 Z"/>
            </mask>
            <path d="M 124 144.611 L 124 163 L 128 163 L 128 163 C 167.765 163 200 195.235 200 235 L 200 244 L 0 244 L 0 235 C 0 195.235 32.235 163 72 163 L 72 163 L 76 163 L 76 144.611 C 58.763 136.422 46.372 119.687 44.305 99.881 C 38.48 99.058 34 94.052 34 88 L 34 74 C 34 68.054 38.325 63.118 44 62.166 L 44 56 L 44 56 C 44 25.072 69.072 0 100 0 L 100 0 L 100 0 C 130.928 0 156 25.072 156 56 L 156 62.166 C 161.675 63.118 166 68.054 166 74 L 166 88 C 166 94.052 161.52 99.058 155.695 99.881 C 153.628 119.687 141.237 136.422 124 144.611 Z"/>
            <g id="g-3" mask="url(#mask-1)" fill="#EDB98A">
              <g transform="translate(-32.000000, 0.000000)" id="Color">
                <rect x="0" y="0" width="264" height="244"/>
              </g>
            </g>
            <path d="M156,79 L156,102 C156,132.927946 130.927946,158 100,158 C69.072054,158 44,132.927946 44,102 L44,79 L44,94 C44,124.927946 69.072054,150 100,150 C130.927946,150 156,124.927946 156,94 L156,79 Z" id="path-1" fill-opacity="0.100000001" fill="#000000" mask="url(#mask-1)"/>
          </g>
          <g id="Clothing/Graphic-Shirt" transform="translate(0.000000, 170.000000)">
            <defs>
              <path d="M165.624032,29.2681342 C202.760022,32.1373245 232,63.1798426 232,101.051724 L232,110 L32,110 L32,101.051724 C32,62.8348009 61.7752018,31.5722494 99.3929298,29.1967444 C99.1342224,30.2735458 99,31.3767131 99,32.5 C99,44.3741221 113.998461,54 132.5,54 C151.001539,54 166,44.3741221 166,32.5 C166,31.4015235 165.871641,30.3222877 165.624025,29.2681336 Z" id="react-path-113"/>
            </defs>
            <mask id="react-mask-114" fill="white">
              <path d="M 165.624 29.268 C 202.76 32.137 232 63.18 232 101.052 L 232 110 L 32 110 L 32 101.052 C 32 62.835 61.775 31.572 99.393 29.197 C 99.134 30.274 99 31.377 99 32.5 C 99 44.374 113.998 54 132.5 54 C 151.002 54 166 44.374 166 32.5 C 166 31.402 165.872 30.322 165.624 29.268 Z"/>
            </mask>
            <path d="M 165.624 29.268 C 202.76 32.137 232 63.18 232 101.052 L 232 110 L 32 110 L 32 101.052 C 32 62.835 61.775 31.572 99.393 29.197 C 99.134 30.274 99 31.377 99 32.5 C 99 44.374 113.998 54 132.5 54 C 151.002 54 166 44.374 166 32.5 C 166 31.402 165.872 30.322 165.624 29.268 Z" id="Clothes"/>
            <g id="g-4" mask="url(#react-mask-114)" fill-rule="evenodd" fill="#FF5C5C">
              <rect id="rect-1" x="0" y="0" width="264" height="110"/>
            </g>
            <g id="Clothing/Graphic/Diamond" mask="url(#react-mask-114)" stroke-width="1" fill-rule="evenodd">
              <g transform="translate(77.000000, 58.000000)" id="Diamond">
                <g transform="translate(29.000000, 2.000000)">
                  <path d="M34.7804613,27.7365051 C32.3910217,30.3933795 29.9226048,32.9801662 27.4446301,35.5565142 C28.4300853,32.0044048 29.1846452,27.9785814 30.6489944,24.5994547 C31.0655115,23.6371144 30.7485963,23.5153306 31.576097,23.1057395 C32.1847753,22.8045111 33.6536519,23.1494823 34.3825567,23.1678741 C35.9404713,23.2066461 37.5335988,23.3597457 39.0789374,23.1186635 C37.6281703,24.6436945 36.1869609,26.1712109 34.7804613,27.7365051 M19.5162179,31.798118 C16.8174087,28.5164183 14.1321816,25.2302449 10.8578947,22.4814113 C12.146683,22.6176103 13.5536857,22.4376686 14.8163159,22.687201 C16.7595591,23.0714412 16.6534177,23.6778747 17.6358547,25.6458009 C19.0866218,28.5522078 20.5248129,31.434755 21.6858291,34.4689106 C20.9750337,33.5692019 20.2446197,32.6844056 19.5162179,31.798118 M10.4182378,19.266817 C11.3810563,17.6920783 11.5616476,16.294796 13.3373785,15.4865494 C15.3988361,14.5480688 18.6379102,14.7454082 20.8256308,14.5709343 C19.4553501,16.093977 17.7887788,17.6736865 17.2223558,19.6928116 C16.3480725,17.9749149 15.2599971,16.5189775 13.5521766,15.5223389 C13.3368755,15.4159645 14.7101745,20.0725781 14.8897597,20.3926954 C13.1743936,20.2967597 11.3684803,19.9850926 9.66518708,20.3012334 C9.916204,19.9562622 10.1672209,19.611291 10.4182378,19.266817 M26.8243819,14.2592673 C28.4154971,14.2945597 29.9940364,14.4183318 31.563521,14.6783029 C30.2968665,16.353451 29.9150592,18.3104416 29.4653415,20.3086895 C28.9869505,18.0509676 27.2564932,15.9473394 25.7312761,14.2607585 C26.095477,14.2602615 26.4596779,14.2597644 26.8243819,14.2592673 M23.3257392,15.3334498 C23.5601558,15.1748824 27.7826729,20.4190405 28.3923573,20.889275 C25.0798394,20.8813217 21.7743641,20.7192748 18.4658705,20.5736313 C20.3728949,19.0868752 21.4886374,16.8863171 23.3257392,15.3334498 M26.0124754,32.4289082 C25.6105465,33.7779741 25.2352788,35.1369815 24.797634,36.4756088 C23.2432407,31.7444337 20.9357965,27.288142 18.7898282,22.8020257 C22.1295103,22.8900083 25.465671,23.0107979 28.8058561,23.0575231 C27.9864041,26.2164449 26.9441054,29.3032906 26.0124754,32.4289082 M33.2416622,14.9656131 C34.5188805,16.093977 36.338879,18.4063774 36.9284418,19.1833081 C36.9867944,19.260355 37.0461531,19.3369048 37.1070209,19.4124604 C37.3177947,19.6744198 38.0733606,20.6680759 38.3701542,21.0567898 C36.1426934,20.8306199 33.8251885,20.9270528 31.5901821,20.9066727 C32.0881916,18.8527521 32.6938517,16.8952645 32.1737084,14.7787123 C32.5308668,14.8363732 32.886516,14.8985078 33.2416622,14.9656131 M40.8898811,20.5830758 C38.7323429,17.9068154 36.5199733,13.3247633 33.025858,12.5055811 C29.5538765,11.6918667 25.478247,12.0517501 21.9519372,12.2754346 C18.8773572,12.4702886 13.8690917,12.0721303 11.1572035,13.8690622 C9.76378291,14.7921334 8.73154499,16.8738902 8.2491297,18.4202955 C7.81450321,19.8131041 8.51523782,20.7048596 7.00259677,20.7048596 C6.90651615,20.7048596 9.50672951,24.3777585 9.81308082,24.66656 C12.0853121,26.8064748 14.2574385,28.8688456 16.2701013,31.2642577 C19.1047312,34.6379166 21.6747622,39.6022206 25.414864,41 C24.7292206,40.6609938 28.2067356,38.0334469 28.6242587,37.5811072 C30.7355173,35.2930636 32.8709217,33.0268914 34.9967685,30.7517718 C36.9349813,28.6779682 39.0472459,26.7209776 40.9271061,24.6004489 C42.361776,22.9824645 42.3658003,22.4262358 40.8898811,20.5830758" id="Fill-21" fill="#FFFFFF"/>
                  <path d="M6.99858316,11.9999257 C7.04159508,12.0142408 6.09038895,9.95483812 6.17394084,10.0812061 C5.69932656,9.36248835 5.12830624,8.8402333 4.43566602,8.35351923 C3.70792411,7.84261755 0.1270582,7.25421678 0,7 C1.49355183,9.65224611 4.16721231,11.1276907 6.99858316,11.9999257" id="Fill-23" fill="#FFFFFF"/>
                  <path d="M22.3553325,7.19614224 C22.5279973,7.84840006 22.7925782,8.44932951 23.1490753,8.99893058 C23.2186566,9.07737584 24.0076748,4.81518326 23.9999436,4.45201075 C23.9866286,3.8317121 23.6120919,0 22.814054,0 C21.4769753,0 22.1397162,6.46931298 22.3553325,7.19614224" id="Fill-25" fill="#FFFFFF"/>
                  <path d="M48.969198,5 C45.977552,5 39.2896081,10.8535875 40.0615528,13.9997703 C40.0673207,14.0103781 40.50905,13.6497123 40.4129174,13.7172166 C40.4321439,13.7032335 40.4508897,13.6887683 40.4691549,13.6738209 C41.7405084,12.649202 43.1873037,11.6544779 44.4605798,10.4683308 C45.3723974,9.61874094 46.4476403,8.85642448 47.2772645,7.92727594 C47.3618612,7.83276992 49.2628831,5 48.969198,5" id="Fill-27" fill="#FFFFFF"/>
                </g>
              </g>
            </g>
          </g>
          <g id="g-5" transform="translate(76.000000, 82.000000)" fill="#000000">
            <g id="Mouth/Tongue" transform="translate(2.000000, 52.000000)">
              <defs>
                <path d="M29,15.6086957 C30.410031,25.2313711 41.062182,33 54,33 C66.9681454,33 77.6461342,25.183301 79,14.7391304 C79.1012093,14.3397326 78.775269,13 76.826087,13 C56.838426,13 41.7395748,13 31.173913,13 C29.3833142,13 28.870211,14.2404669 29,15.6086957 Z" id="react-path-137"/>
              </defs>
              <mask id="react-mask-138" fill="white">
                <path d="M 29 15.609 C 30.41 25.231 41.062 33 54 33 C 66.968 33 77.646 25.183 79 14.739 C 79.101 14.34 78.775 13 76.826 13 C 56.838 13 41.74 13 31.174 13 C 29.383 13 28.87 14.24 29 15.609 Z"/>
              </mask>
              <path d="M 29 15.609 C 30.41 25.231 41.062 33 54 33 C 66.968 33 77.646 25.183 79 14.739 C 79.101 14.34 78.775 13 76.826 13 C 56.838 13 41.74 13 31.174 13 C 29.383 13 28.87 14.24 29 15.609 Z" id="path-2"/>
              <rect id="rect-2" fill="#FFFFFF" fill-rule="evenodd" mask="url(#react-mask-138)" x="39" y="2" width="31" height="16" rx="5"/>
              <path d="M65.9841079,23.7466656 C65.9945954,23.8296335 66,23.9141856 66,24 L66,33 C66,39.0751322 61.0751322,44 55,44 L54,44 C47.9248678,44 43,39.0751322 43,33 L43,24 L43,24 C43,23.9141856 43.0054046,23.8296335 43.0158921,23.7466656 C43.0053561,23.6651805 43,23.5829271 43,23.5 C43,21.5670034 45.9101491,20 49.5,20 C51.510438,20 53.3076958,20.4914717 54.5,21.2634601 C55.6923042,20.4914717 57.489562,20 59.5,20 C63.0898509,20 66,21.5670034 66,23.5 C66,23.5829271 65.9946439,23.6651805 65.9841079,23.7466656 Z" id="path-3" fill="#FF4F6D" fill-rule="evenodd"/>
            </g>
            <g id="g-6" transform="translate(28.000000, 40.000000)" fill-opacity="0.16">
              <path d="M16,8 C16,12.418278 21.372583,16 28,16 L28,16 C34.627417,16 40,12.418278 40,8" id="path-4"/>
            </g>
            <g id="g-7" transform="matrix(1, 0, 0, 1, 0, 7.000004)" fill-opacity="0.599999964">
              <circle cx="30" cy="22" r="6" style="fill-opacity: 1; fill: rgb(128, 90, 60);" class="eye-open"/>
              <circle cx="82" cy="22" r="6" style="fill-opacity: 1; fill: rgb(128, 90, 60);" class="eye-open"/>
            </g>
            <g id="Eyebrow/Natural/Sad-Concerned-Natural" fill-opacity="0.599999964" transform="matrix(1, 0, -0.017491, 1, 0.234824, -3.94511)" class="eyebrows">
              <path d="M22.7663531,5.57844898 L23.6772984,5.17582144 C28.9190996,3.09473425 36.8645466,3.96712704 41.7227321,6.29911638 C42.2897848,6.57148957 41.9021563,7.4519421 41.3211012,7.40711006 C26.4021788,6.25602197 16.3582869,15.5525942 12.9460869,21.8470939 C12.8449215,22.0337142 12.5391523,22.05489 12.4635344,21.8808353 C10.156283,16.5620676 16.9134476,7.89614725 22.7663531,5.57844898 Z" id="path-5" transform="translate(27.000000, 13.000000) scale(-1, -1) translate(-27.000000, -13.000000) " style="fill: rgb(78, 60, 44); fill-opacity: 0.74;"/>
              <path d="M80.7663531,5.57844898 L81.6772984,5.17582144 C86.9190996,3.09473425 94.8645466,3.96712704 99.7227321,6.29911638 C100.289785,6.57148957 99.9021563,7.4519421 99.3211012,7.40711006 C84.4021788,6.25602197 74.3582869,15.5525942 70.9460869,21.8470939 C70.8449215,22.0337142 70.5391523,22.05489 70.4635344,21.8808353 C68.156283,16.5620676 74.9134476,7.89614725 80.7663531,5.57844898 Z" id="path-5" transform="translate(85.000000, 13.000000) scale(1, -1) translate(-85.000000, -13.000000) " style="fill: rgb(78, 60, 44); fill-opacity: 0.74;"/>
            </g>
          </g>
          <g id="g-8" stroke-width="1" fill-rule="evenodd">
            <defs>
              <rect id="react-path-106" x="0" y="0" width="264" height="280"/>
              <path d="M167.308863,35.006118 C147.121091,23.3065109 127.128954,25.2219854 112.036894,29.0299707 C96.9448338,32.8379559 88.0168242,43.6513048 80.3566792,59.6480618 C76.5956048,67.5028569 74.3660182,76.7914798 74.0230569,85.4813651 C73.8884429,88.8932666 74.3484305,92.415154 75.267729,95.7003546 C75.6049405,96.9061873 77.4232441,101.086987 77.9224658,97.70885 C78.0885348,96.584253 77.4804043,95.0327505 77.4215529,93.8376154 C77.3444374,92.2693977 77.4273028,90.6807875 77.5341822,89.1149098 C77.7340739,86.1874141 78.2559568,83.3154127 79.1847257,80.524647 C80.5119249,76.5367405 82.2013644,72.212859 84.7874413,68.8480942 C91.1883705,60.5205939 102.268658,60.045883 111.066257,55.4635848 C110.302881,56.8686624 107.359637,59.1432635 108.379389,60.7268592 C109.083576,61.8207003 111.749474,61.4890712 113.022219,61.4539693 C116.370996,61.3623702 119.734993,60.7796791 123.042844,60.306974 C128.255923,59.5618115 133.140585,58.0517626 138.046555,56.2181078 C142.06299,54.7164165 146.650012,53.3257139 149.66868,50.1404701 C154.539813,55.1881187 160.809849,59.9345599 167.070414,63.1428706 C172.68835,66.0222267 181.748751,67.461069 185.182761,73.3006826 C189.2479,80.2147477 187.37751,88.7073939 188.619138,96.2008069 C189.091302,99.05041 190.164155,98.986558 190.751315,96.4378281 C191.748406,92.1082634 192.219217,87.6102098 191.901961,83.1592929 C191.183568,73.1114668 187.496636,46.7057251 167.308863,35.006118 Z" id="react-path-105"/>
            </defs>
            <g transform="matrix(1, 0, 0, 1, -1, 0)">
              <mask id="react-mask-103" fill="white">
                <path d="M 167.309 35.006 C 147.121 23.307 127.129 25.222 112.037 29.03 C 96.945 32.838 88.017 43.651 80.357 59.648 C 76.596 67.503 74.366 76.791 74.023 85.481 C 73.888 88.893 74.348 92.415 75.268 95.7 C 75.605 96.906 77.423 101.087 77.922 97.709 C 78.089 96.584 77.48 95.033 77.422 93.838 C 77.344 92.269 77.427 90.681 77.534 89.115 C 77.734 86.187 78.256 83.315 79.185 80.525 C 80.512 76.537 82.201 72.213 84.787 68.848 C 91.188 60.521 102.269 60.046 111.066 55.464 C 110.303 56.869 107.36 59.143 108.379 60.727 C 109.084 61.821 111.749 61.489 113.022 61.454 C 116.371 61.362 119.735 60.78 123.043 60.307 C 128.256 59.562 133.141 58.052 138.047 56.218 C 142.063 54.716 146.65 53.326 149.669 50.14 C 154.54 55.188 160.81 59.935 167.07 63.143 C 172.688 66.022 181.749 67.461 185.183 73.301 C 189.248 80.215 187.378 88.707 188.619 96.201 C 189.091 99.05 190.164 98.987 190.751 96.438 C 191.748 92.108 192.219 87.61 191.902 83.159 C 191.184 73.111 187.497 46.706 167.309 35.006 Z"/>
              </mask>
              <path d="M 167.309 35.006 C 147.121 23.307 127.129 25.222 112.037 29.03 C 96.945 32.838 88.017 43.651 80.357 59.648 C 76.596 67.503 74.366 76.791 74.023 85.481 C 73.888 88.893 74.348 92.415 75.268 95.7 C 75.605 96.906 77.423 101.087 77.922 97.709 C 78.089 96.584 77.48 95.033 77.422 93.838 C 77.344 92.269 77.427 90.681 77.534 89.115 C 77.734 86.187 78.256 83.315 79.185 80.525 C 80.512 76.537 82.201 72.213 84.787 68.848 C 91.188 60.521 102.269 60.046 111.066 55.464 C 110.303 56.869 107.36 59.143 108.379 60.727 C 109.084 61.821 111.749 61.489 113.022 61.454 C 116.371 61.362 119.735 60.78 123.043 60.307 C 128.256 59.562 133.141 58.052 138.047 56.218 C 142.063 54.716 146.65 53.326 149.669 50.14 C 154.54 55.188 160.81 59.935 167.07 63.143 C 172.688 66.022 181.749 67.461 185.183 73.301 C 189.248 80.215 187.378 88.707 188.619 96.201 C 189.091 99.05 190.164 98.987 190.751 96.438 C 191.748 92.108 192.219 87.61 191.902 83.159 C 191.184 73.111 187.497 46.706 167.309 35.006 Z" id="path-6"/>
              <g id="g-3" mask="url(#react-mask-103)" fill="#4A312C">
                <rect width="264" height="280" style="fill: rgb(78, 60, 44);"/>
              </g>
            </g>
          </g>
          <path d="M 147.14 114.923 C 148.717 111.005 152.68 108.073 157.5 107.735 C 162.305 107.4 166.624 109.734 168.74 113.372 C 169.367 114.453 168.649 115.424 167.812 114.8 C 165.22 112.87 161.656 111.8 157.804 112.069 C 154.073 112.329 150.784 113.798 148.492 115.956 C 147.654 116.745 146.678 116.069 147.14 114.923 Z" class="left-eye eye-closed" style="fill: rgb(71, 50, 50);"/>
          <path d="M 95.14 114.923 C 96.717 111.005 100.68 108.073 105.5 107.735 C 110.305 107.4 114.624 109.734 116.74 113.372 C 117.367 114.453 116.649 115.424 115.812 114.8 C 113.22 112.87 109.656 111.8 105.804 112.069 C 102.073 112.329 98.784 113.798 96.492 115.956 C 95.654 116.745 94.678 116.069 95.14 114.923 Z" class="right-eye eye-closed" style="fill: rgb(71, 50, 50);"/>
        </g>
        <g id="Avataaar" stroke-width="1" fill-rule="evenodd" mask="url(#mask-4)" transform="matrix(0.918081, 0, 0, 0.918081, -184.007233, -149.059021)">
          <g id="Body" transform="translate(32.000000, 36.000000)">
            <mask id="mask-6" fill="white">
              <path d="M 124 144.611 L 124 163 L 128 163 L 128 163 C 167.765 163 200 195.235 200 235 L 200 244 L 0 244 L 0 235 C 0 195.235 32.235 163 72 163 L 72 163 L 76 163 L 76 144.611 C 58.763 136.422 46.372 119.687 44.305 99.881 C 38.48 99.058 34 94.052 34 88 L 34 74 C 34 68.054 38.325 63.118 44 62.166 L 44 56 L 44 56 C 44 25.072 69.072 0 100 0 L 100 0 L 100 0 C 130.928 0 156 25.072 156 56 L 156 62.166 C 161.675 63.118 166 68.054 166 74 L 166 88 C 166 94.052 161.52 99.058 155.695 99.881 C 153.628 119.687 141.237 136.422 124 144.611 Z"/>
            </mask>
            <path d="M 124 144.611 L 124 163 L 128 163 L 128 163 C 167.765 163 200 195.235 200 235 L 200 244 L 0 244 L 0 235 C 0 195.235 32.235 163 72 163 L 72 163 L 76 163 L 76 144.611 C 58.763 136.422 46.372 119.687 44.305 99.881 C 38.48 99.058 34 94.052 34 88 L 34 74 C 34 68.054 38.325 63.118 44 62.166 L 44 56 L 44 56 C 44 25.072 69.072 0 100 0 L 100 0 L 100 0 C 130.928 0 156 25.072 156 56 L 156 62.166 C 161.675 63.118 166 68.054 166 74 L 166 88 C 166 94.052 161.52 99.058 155.695 99.881 C 153.628 119.687 141.237 136.422 124 144.611 Z"/>
            <g id="Skin/ðŸ‘¶ðŸ½-03-Brown" mask="url(#mask-6)" fill="#FFDBB4">
              <rect x="-32" width="264" height="244"/>
            </g>
            <path d="M156,79 L156,102 C156,132.927946 130.927946,158 100,158 C69.072054,158 44,132.927946 44,102 L44,79 L44,94 C44,124.927946 69.072054,150 100,150 C130.927946,150 156,124.927946 156,94 L156,79 Z" id="Neck-Shadow" fill-opacity="0.100000001" fill="#000000" mask="url(#mask-6)"/>
          </g>
          <g id="Clothing/Hoodie" transform="translate(0.000000, 170.000000)">
            <defs>
              <path d="M108,13.0708856 C90.0813006,15.075938 76.2798424,20.5518341 76.004203,34.6449676 C50.1464329,45.5680933 32,71.1646257 32,100.999485 L32,100.999485 L32,110 L232,110 L232,100.999485 C232,71.1646257 213.853567,45.5680933 187.995797,34.6449832 C187.720158,20.5518341 173.918699,15.075938 156,13.0708856 L156,32 L156,32 C156,45.254834 145.254834,56 132,56 L132,56 C118.745166,56 108,45.254834 108,32 L108,13.0708856 Z" id="react-path-115"/>
            </defs>
            <mask id="react-mask-116" fill="white">
              <path d="M 108 13.071 C 90.081 15.076 76.28 20.552 76.004 34.645 C 50.146 45.568 32 71.165 32 100.999 L 32 100.999 L 32 110 L 232 110 L 232 100.999 C 232 71.165 213.854 45.568 187.996 34.645 C 187.72 20.552 173.919 15.076 156 13.071 L 156 32 L 156 32 C 156 45.255 145.255 56 132 56 L 132 56 C 118.745 56 108 45.255 108 32 L 108 13.071 Z"/>
            </mask>
            <path d="M 108 13.071 C 90.081 15.076 76.28 20.552 76.004 34.645 C 50.146 45.568 32 71.165 32 100.999 L 32 100.999 L 32 110 L 232 110 L 232 100.999 C 232 71.165 213.854 45.568 187.996 34.645 C 187.72 20.552 173.919 15.076 156 13.071 L 156 32 L 156 32 C 156 45.255 145.255 56 132 56 L 132 56 C 118.745 56 108 45.255 108 32 L 108 13.071 Z" id="Hoodie"/>
            <g id="Color/Palette/Gray-01" mask="url(#react-mask-116)" fill-rule="evenodd" fill="#65C9FF">
              <rect id="ðŸ–Color" x="0" y="0" width="264" height="110"/>
            </g>
            <path d="M102,61.7390531 L102,110 L95,110 L95,58.1502625 C97.2037542,59.4600576 99.5467694,60.6607878 102,61.7390531 Z M169,58.1502625 L169,98.5 C169,100.432997 167.432997,102 165.5,102 C163.567003,102 162,100.432997 162,98.5 L162,61.7390531 C164.453231,60.6607878 166.796246,59.4600576 169,58.1502625 Z" id="Straps" fill="#F4F4F4" fill-rule="evenodd" mask="url(#react-mask-116)"/>
            <path d="M90.9601329,12.7243537 C75.9093095,15.5711782 65.5,21.2428847 65.5,32.3076923 C65.5,52.0200095 98.5376807,68 132,68 C165.462319,68 198.5,52.0200095 198.5,32.3076923 C198.5,21.2428847 188.09069,15.5711782 173.039867,12.7243537 C182.124921,16.0744598 188,21.7060546 188,31.0769231 C188,51.4689754 160.178795,68 132,68 C103.821205,68 76,51.4689754 76,31.0769231 C76,21.7060546 81.8750795,16.0744598 90.9601329,12.7243537 Z" id="Shadow" fill-opacity="0.16" fill="#000000" fill-rule="evenodd" mask="url(#react-mask-116)"/>
          </g>
          <g id="Face" transform="translate(76.000000, 82.000000)" fill="#000000">
            <g id="Mouth/Smile" transform="translate(2.000000, 52.000000)">
              <defs>
                <path d="M35.117844,15.1280772 C36.1757121,24.6198025 44.2259873,32 54,32 C63.8042055,32 71.8740075,24.574136 72.8917593,15.0400546 C72.9736685,14.272746 72.1167429,13 71.042767,13 C56.1487536,13 44.7379213,13 37.0868244,13 C36.0066168,13 35.0120058,14.1784435 35.117844,15.1280772 Z" id="react-path-99"/>
              </defs>
              <mask id="react-mask-100" fill="white">
                <path d="M 35.118 15.128 C 36.176 24.62 44.226 32 54 32 C 63.804 32 71.874 24.574 72.892 15.04 C 72.974 14.273 72.117 13 71.043 13 C 56.149 13 44.738 13 37.087 13 C 36.007 13 35.012 14.178 35.118 15.128 Z"/>
              </mask>
              <path d="M 35.118 15.128 C 36.176 24.62 44.226 32 54 32 C 63.804 32 71.874 24.574 72.892 15.04 C 72.974 14.273 72.117 13 71.043 13 C 56.149 13 44.738 13 37.087 13 C 36.007 13 35.012 14.178 35.118 15.128 Z" id="Mouth"/>
              <rect id="Teeth" fill="#FFFFFF" fill-rule="evenodd" mask="url(#react-mask-100)" x="39" y="2" width="31" height="16" rx="5"/>
              <g id="Tongue" stroke-width="1" fill-rule="evenodd" mask="url(#react-mask-100)" fill="#FF4F6D">
                <circle cx="49" cy="35" r="11"/>
                <circle cx="59" cy="35" r="11"/>
              </g>
            </g>
            <g id="Nose/Default" transform="matrix(1, 0, 0, 1, 28, 36.146999)" fill-opacity="0.16">
              <path d="M 21.893 10.853 C 21.893 15.271 21.373 16 28 16 C 34.627 16 35.159 15.271 35.159 10.853" id="Nose"/>
            </g>
            <g id="Eyes/Default-ðŸ˜€" transform="translate(0.000000, 8.000000)" fill-opacity="0.599999964">
              <circle id="Eye" cx="30" cy="22" r="6" style="fill-opacity: 1; fill: rgb(94, 165, 228);" class="eye-open"/>
              <circle id="Eye" cx="82" cy="22" r="6" style="fill: rgb(94, 165, 228); fill-opacity: 1;" class="eye-open"/>
            </g>
            <g id="Eyebrow/Natural/Default-Natural" fill-opacity="0.599999964" class="eyebrows">
              <path d="M26.0390934,6.21012364 C20.2775554,6.98346216 11.2929313,12.0052479 12.04426,17.8178111 C12.0689481,18.0080543 12.3567302,18.0673468 12.4809077,17.9084937 C14.9674041,14.7203351 34.1927973,10.0365481 41.1942673,11.0147151 C41.8350523,11.1044465 42.2580662,10.4430343 41.8210501,10.0302067 C38.0765663,6.49485426 31.2003792,5.51224825 26.0390934,6.21012364" id="Eyebrow" transform="translate(27.000000, 12.000000) rotate(5.000000) translate(-27.000000, -12.000000) " style="fill: rgb(122, 92, 40);"/>
              <path d="M85.0390934,6.21012364 C79.2775554,6.98346216 70.2929313,12.0052479 71.04426,17.8178111 C71.0689481,18.0080543 71.3567302,18.0673468 71.4809077,17.9084937 C73.9674041,14.7203351 93.1927973,10.0365481 100.194267,11.0147151 C100.835052,11.1044465 101.258066,10.4430343 100.82105,10.0302067 C97.0765663,6.49485426 90.2003792,5.51224825 85.0390934,6.21012364" id="Eyebrow" transform="translate(86.000000, 12.000000) scale(-1, 1) rotate(5.000000) translate(-86.000000, -12.000000) " style="fill: rgb(122, 92, 40);"/>
            </g>
            <path d="M 71.14 33.923 C 72.717 30.005 76.68 27.073 81.5 26.735 C 86.305 26.4 90.624 28.734 92.74 32.372 C 93.367 33.453 92.649 34.424 91.812 33.8 C 89.22 31.87 85.656 30.8 81.804 31.069 C 78.073 31.329 74.784 32.798 72.492 34.956 C 71.654 35.745 70.678 35.069 71.14 33.923 Z" class="left-eye eye-closed" style="fill: rgb(0, 116, 189);"/>
            <path d="M 19.14 33.923 C 20.717 30.005 24.68 27.073 29.5 26.735 C 34.305 26.4 38.624 28.734 40.74 32.372 C 41.367 33.453 40.649 34.424 39.812 33.8 C 37.22 31.87 33.656 30.8 29.804 31.069 C 26.073 31.329 22.784 32.798 20.492 34.956 C 19.654 35.745 18.678 35.069 19.14 33.923 Z" class="right-eye eye-closed" style="fill: rgb(0, 116, 189);"/>
          </g>
          <g id="Top" stroke-width="1" fill-rule="evenodd">
            <defs>
              <rect id="react-path-110" x="0" y="0" width="264" height="280"/>
              <path d="M180.14998,39.9204083 C177.390206,37.1003988 174.185913,34.7068297 171.069252,32.3065503 C170.381566,31.777442 169.682843,31.2610833 169.010544,30.7118441 C168.857687,30.5870323 167.291999,29.4657388 167.104691,29.0530544 C166.653816,28.0602634 166.915042,28.8332916 166.977255,27.6485857 C167.055857,26.150508 170.11064,21.9193194 167.831176,20.9490079 C166.828413,20.522232 165.039628,21.6579526 164.077671,22.0330592 C162.196235,22.7671676 160.291721,23.3932399 158.346734,23.9330847 C159.278588,22.0763407 161.055333,18.3594977 157.71591,19.3543018 C155.114345,20.1293431 152.690052,22.1219709 150.075777,23.0594018 C150.940735,21.6415124 154.399901,17.2479341 151.274209,17.0023366 C150.301549,16.925839 147.471201,18.7503735 146.423952,19.1395717 C143.287223,20.3054888 140.083264,21.0590571 136.789999,21.6525844 C125.59203,23.6707114 112.497238,23.0953019 102.1368,28.1934632 C94.1494796,32.1236942 86.262502,38.2220278 81.648386,45.987539 C77.2011742,53.472559 75.537818,61.6641751 74.6069673,70.2412987 C73.9239644,76.535909 73.8684412,83.0425652 74.1878671,89.3599905 C74.2922241,91.4297869 74.5250203,100.970847 77.5319724,98.0813859 C79.0300967,96.641688 79.019059,90.8282073 79.3963495,88.8604076 C80.1472513,84.9452748 80.870057,81.0126951 82.122006,77.2227096 C84.3282191,70.5439339 86.9307879,63.4296587 92.4269209,58.8297383 C95.9539853,55.8782066 98.4307906,51.8889248 101.806002,48.9112229 C103.322188,47.5738572 102.165231,47.7130963 104.602902,47.888571 C106.240504,48.006337 107.885464,48.0512961 109.52641,48.0942421 C113.322394,48.1928837 117.124399,48.16772 120.921387,48.1811407 C128.56821,48.208653 136.179243,48.316689 143.818708,47.9164188 C147.213653,47.7385955 150.617965,47.6423024 154.00388,47.3282597 C155.895349,47.152785 159.251496,45.9405668 160.808488,46.8669256 C162.233362,47.7144383 163.71309,50.4817719 164.736257,51.615144 C167.153525,54.2935659 170.035717,56.3392052 172.862385,58.5354911 C178.756547,63.114945 181.732392,68.8666908 183.522515,76.023241 C185.305949,83.1532854 184.805905,89.76815 187.013456,96.78479 C187.401784,98.0184813 188.428965,100.14498 189.695296,98.2389151 C189.930434,97.8849461 189.869559,95.9390277 189.869559,94.819339 C189.869559,90.2995934 191.014141,86.9083772 190.999758,82.3591197 C190.943566,68.5271489 190.49637,50.4908308 180.14998,39.9204083 Z" id="react-path-109"/>
            </defs>
            <mask id="react-mask-108" fill="white">
              <rect width="264" height="280"/>
            </mask>
            <g id="Top/Short-Hair/Short-Flat" mask="url(#react-mask-108)">
              <path d="M 179.15 39.92 C 176.39 37.1 173.186 34.707 170.069 32.307 C 169.382 31.777 168.683 31.261 168.011 30.712 C 167.858 30.587 166.292 29.466 166.105 29.053 C 165.654 28.06 165.915 28.833 165.977 27.649 C 166.056 26.151 169.111 21.919 166.831 20.949 C 165.828 20.522 164.04 21.658 163.078 22.033 C 161.196 22.767 159.292 23.393 157.347 23.933 C 158.279 22.076 160.055 18.359 156.716 19.354 C 154.114 20.129 151.69 22.122 149.076 23.059 C 149.941 21.642 153.4 17.248 150.274 17.002 C 149.302 16.926 146.471 18.75 145.424 19.14 C 142.287 20.305 139.083 21.059 135.79 21.653 C 124.592 23.671 111.497 23.095 101.137 28.193 C 93.149 32.124 85.263 38.222 80.648 45.988 C 76.201 53.473 74.538 61.664 73.607 70.241 C 72.924 76.536 72.868 83.043 73.188 89.36 C 73.292 91.43 73.525 100.971 76.532 98.081 C 78.03 96.642 78.019 90.828 78.396 88.86 C 79.147 84.945 79.87 81.013 81.122 77.223 C 83.328 70.544 85.931 63.43 91.427 58.83 C 94.954 55.878 97.431 51.889 100.806 48.911 C 102.322 47.574 101.165 47.713 103.603 47.889 C 105.241 48.006 106.885 48.051 108.526 48.094 C 112.322 48.193 116.124 48.168 119.921 48.181 C 127.568 48.209 135.179 48.317 142.819 47.916 C 146.214 47.739 149.618 47.642 153.004 47.328 C 154.895 47.153 158.251 45.941 159.808 46.867 C 161.233 47.714 162.713 50.482 163.736 51.615 C 166.154 54.294 169.036 56.339 171.862 58.535 C 177.757 63.115 180.732 68.867 182.523 76.023 C 184.306 83.153 183.806 89.768 186.013 96.785 C 186.402 98.018 187.429 100.145 188.695 98.239 C 188.93 97.885 188.87 95.939 188.87 94.819 C 188.87 90.3 190.014 86.908 190 82.359 C 189.944 68.527 189.496 50.491 179.15 39.92 Z" id="Short-Hair"/>
              <g id="Skin/ðŸ‘¶ðŸ½-03-Brown" mask="url(#react-mask-107)" fill="#724133" transform="matrix(1, 0, 0, 1, -1, 0)">
                <rect width="264" height="280" style="fill: rgb(122, 92, 40);"/>
              </g>
              <g transform="translate(-1.000000, 0.000000)">
                <mask id="react-mask-107" fill="white">
                  <path d="M 180.15 39.92 C 177.39 37.1 174.186 34.707 171.069 32.307 C 170.382 31.777 169.683 31.261 169.011 30.712 C 168.858 30.587 167.292 29.466 167.105 29.053 C 166.654 28.06 166.915 28.833 166.977 27.649 C 167.056 26.151 170.111 21.919 167.831 20.949 C 166.828 20.522 165.04 21.658 164.078 22.033 C 162.196 22.767 160.292 23.393 158.347 23.933 C 159.279 22.076 161.055 18.359 157.716 19.354 C 155.114 20.129 152.69 22.122 150.076 23.059 C 150.941 21.642 154.4 17.248 151.274 17.002 C 150.302 16.926 147.471 18.75 146.424 19.14 C 143.287 20.305 140.083 21.059 136.79 21.653 C 125.592 23.671 112.497 23.095 102.137 28.193 C 94.149 32.124 86.263 38.222 81.648 45.988 C 77.201 53.473 75.538 61.664 74.607 70.241 C 73.924 76.536 73.868 83.043 74.188 89.36 C 74.292 91.43 74.525 100.971 77.532 98.081 C 79.03 96.642 79.019 90.828 79.396 88.86 C 80.147 84.945 80.87 81.013 82.122 77.223 C 84.328 70.544 86.931 63.43 92.427 58.83 C 95.954 55.878 98.431 51.889 101.806 48.911 C 103.322 47.574 102.165 47.713 104.603 47.889 C 106.241 48.006 107.885 48.051 109.526 48.094 C 113.322 48.193 117.124 48.168 120.921 48.181 C 128.568 48.209 136.179 48.317 143.819 47.916 C 147.214 47.739 150.618 47.642 154.004 47.328 C 155.895 47.153 159.251 45.941 160.808 46.867 C 162.233 47.714 163.713 50.482 164.736 51.615 C 167.154 54.294 170.036 56.339 172.862 58.535 C 178.757 63.115 181.732 68.867 183.523 76.023 C 185.306 83.153 184.806 89.768 187.013 96.785 C 187.402 98.018 188.429 100.145 189.695 98.239 C 189.93 97.885 189.87 95.939 189.87 94.819 C 189.87 90.3 191.014 86.908 191 82.359 C 190.944 68.527 190.496 50.491 180.15 39.92 Z"/>
                </mask>
              </g>
            </g>
          </g>
        </g>
      </g>
      <g class="boris">
        <g transform="matrix(1, 0, 0, 1, 32, 36)">
          <mask id="f" fill="#fff">
            <path d="M 124 144.611 L 124 163 L 128 163 C 167.765 163 200 195.235 200 235 L 200 244 L 0 244 L 0 235 C 0 195.235 32.235 163 72 163 L 76 163 L 76 144.611 C 58.763 136.422 46.372 119.687 44.305 99.881 C 38.48 99.058 34 94.052 34 88 L 34 74 C 34 68.054 38.325 63.118 44 62.166 L 44 56 C 44 25.072 69.072 0 100 0 C 130.928 0 156 25.072 156 56 L 156 62.166 C 161.675 63.118 166 68.054 166 74 L 166 88 C 166 94.052 161.52 99.058 155.695 99.881 C 153.628 119.687 141.237 136.422 124 144.611 Z"/>
          </mask>
          <path d="M 124 144.611 L 124 163 L 128 163 C 167.765 163 200 195.235 200 235 L 200 244 L 0 244 L 0 235 C 0 195.235 32.235 163 72 163 L 76 163 L 76 144.611 C 58.763 136.422 46.372 119.687 44.305 99.881 C 38.48 99.058 34 94.052 34 88 L 34 74 C 34 68.054 38.325 63.118 44 62.166 L 44 56 C 44 25.072 69.072 0 100 0 C 130.928 0 156 25.072 156 56 L 156 62.166 C 161.675 63.118 166 68.054 166 74 L 166 88 C 166 94.052 161.52 99.058 155.695 99.881 C 153.628 119.687 141.237 136.422 124 144.611 Z"/>
          <g mask="url(#f)" fill="#EDB98A">
            <path d="M-32 0h264v244H-32z"/>
          </g>
          <path d="M156 79v23c0 30.928-25.072 56-56 56s-56-25.072-56-56V79v15c0 30.928 25.072 56 56 56s56-25.072 56-56V79z" fill-opacity=".1" fill="#000" mask="url(#f)"/>
        </g>
        <g transform="matrix(1, 0, 0, 1, 0, 170)">
          <defs>
            <path d="M105.192 29.052H104c-39.765 0-72 32.235-72 72V110h200v-8.948c0-39.765-32.235-72-72-72h-1.192c.127.983.192 1.984.192 3 0 13.807-12.088 25-27 25s-27-11.193-27-25c0-1.016.065-2.017.192-3z" id="g"/>
          </defs>
          <mask id="h" fill="#fff">
            <path d="M 105.192 29.052 L 104 29.052 C 64.235 29.052 32 61.287 32 101.052 L 32 110 L 232 110 L 232 101.052 C 232 61.287 199.765 29.052 160 29.052 L 158.808 29.052 C 158.935 30.035 159 31.036 159 32.052 C 159 45.859 146.912 57.052 132 57.052 C 117.088 57.052 105 45.859 105 32.052 C 105 31.036 105.065 30.035 105.192 29.052 Z"/>
          </mask>
          <path d="M 105.192 29.052 L 104 29.052 C 64.235 29.052 32 61.287 32 101.052 L 32 110 L 232 110 L 232 101.052 C 232 61.287 199.765 29.052 160 29.052 L 158.808 29.052 C 158.935 30.035 159 31.036 159 32.052 C 159 45.859 146.912 57.052 132 57.052 C 117.088 57.052 105 45.859 105 32.052 C 105 31.036 105.065 30.035 105.192 29.052 Z"/>
          <g mask="url(#h)" fill="#FF488E">
            <path d="M0 0h264v110H0z" class="shirt"/>
          </g>
          <path d="M156 22.28c6.182 4.555 10 10.826 10 17.748 0 7.205-4.137 13.705-10.771 18.3l-5.65-4.452-4.579.332 1-3.151-.078-.061C152.022 47.853 156 42.7 156 36.876V22.28zm-48-.709c-6.767 4.603-11 11.169-11 18.457 0 7.398 4.362 14.052 11.308 18.664l6.113-4.816 4.579.332-1-3.151.078-.061C111.978 47.853 108 42.7 108 36.876V21.572z" fill="#F2F2F2"/>
        </g>
        <g fill="#000">
          <g transform="translate(78 134)">
            <defs>
              <path d="M35.118 15.128C36.176 24.62 44.226 32 54 32c9.804 0 17.874-7.426 18.892-16.96.082-.767-.775-2.04-1.85-2.04H37.088c-1.08 0-2.075 1.178-1.97 2.128z" id="i"/>
            </defs>
            <mask id="j" fill="#fff">
              <path d="M 35.118 15.128 C 36.176 24.62 44.226 32 54 32 C 63.804 32 71.874 24.574 72.892 15.04 C 72.974 14.273 72.117 13 71.042 13 L 37.088 13 C 36.008 13 35.013 14.178 35.118 15.128 Z"/>
            </mask>
            <path d="M 35.118 15.128 C 36.176 24.62 44.226 32 54 32 C 63.804 32 71.874 24.574 72.892 15.04 C 72.974 14.273 72.117 13 71.042 13 L 37.088 13 C 36.008 13 35.013 14.178 35.118 15.128 Z"/>
            <rect fill="#FFF" mask="url(#j)" x="39" y="2" width="31" height="16" rx="5"/>
            <g mask="url(#j)" fill="#FF4F6D">
              <g transform="translate(38 24)">
                <circle cx="11" cy="11" r="11"/>
                <circle cx="21" cy="11" r="11"/>
              </g>
            </g>
          </g>
          <path d="M120 130c0 4.418 5.373 8 12 8s12-3.582 12-8" fill-opacity=".16"/>
          <g transform="translate(76 90)" fill-opacity=".6">
            <circle cx="30" cy="22" r="6" class="right-eye eye-open"/>
            <circle cx="56" cy="-18.072" r="6" transform="matrix(1, 0, 0, 1, 25.999997, 40.072162)" class="left-eye eye-open"/>
            <path d="M 70.619 24.92 C 72.196 21.002 76.159 18.07 80.979 17.732 C 85.784 17.397 90.103 19.731 92.219 23.369 C 92.846 24.45 92.128 25.421 91.291 24.797 C 88.699 22.867 85.135 21.797 81.283 22.066 C 77.552 22.326 74.263 23.795 71.971 25.953 C 71.133 26.742 70.157 26.066 70.619 24.92 Z" class="left-eye eye-closed"/>
            <path d="M 18.619 24.92 C 20.196 21.002 24.159 18.07 28.979 17.732 C 33.784 17.397 38.103 19.731 40.219 23.369 C 40.846 24.45 40.128 25.421 39.291 24.797 C 36.699 22.867 33.135 21.797 29.283 22.066 C 25.552 22.326 22.263 23.795 19.971 25.953 C 19.133 26.742 18.157 26.066 18.619 24.92 Z" class="right-eye eye-closed"/>
          </g>
          <g fill-rule="nonzero" fill-opacity=".6">
            <path d="M91.63 99.159c3.915-5.51 14.648-8.598 23.893-6.328a2 2 0 0 0 .954-3.884c-10.737-2.637-23.165.94-28.107 7.894a2 2 0 0 0 3.26 2.318zM172.37 99.159c-3.915-5.51-14.648-8.598-23.893-6.328a2 2 0 0 1-.954-3.884c10.737-2.637 23.165.94 28.108 7.894a2 2 0 0 1-3.26 2.318z" class="eyebrows"/>
          </g>
        </g>
        <g mask="url(#l)">
          <g transform="translate(-1)">
            <g transform="translate(49 72)">
              <defs>
                <path d="M101.428 98.169c-2.513 2.294-5.19 3.325-8.575 2.604-.582-.124-2.957-4.538-8.853-4.538-5.897 0-8.27 4.414-8.853 4.538-3.385.721-6.062-.31-8.576-2.604-4.725-4.313-8.654-10.26-6.293-16.75 1.23-3.382 3.232-7.095 6.873-8.173 3.887-1.15 9.346-.002 13.264-.788 1.27-.254 2.656-.707 3.585-1.458.929.75 2.316 1.204 3.585 1.458 3.918.786 9.376-.362 13.264.788 3.64 1.078 5.642 4.79 6.873 8.173 2.361 6.49-1.568 12.437-6.294 16.75M140.081 26c-3.41 8.4-2.093 18.858-2.724 27.676-.513 7.167-2.02 17.91-8.384 22.539-3.255 2.367-9.179 6.345-13.431 5.235-2.927-.764-3.24-9.16-7.087-12.303-4.363-3.565-9.812-5.131-15.306-4.89-2.37.105-7.165.08-9.15 1.903-1.983-1.823-6.777-1.798-9.148-1.902-5.494-.242-10.943 1.324-15.306 4.889-3.847 3.143-4.16 11.54-7.087 12.303-4.252 1.11-10.176-2.868-13.431-5.235-6.365-4.63-7.87-15.372-8.384-22.54-.63-8.817.686-19.275-2.724-27.675-1.66 0-.565 16.129-.565 16.129v20.356c.032 15.288 9.581 38.17 30.754 46.908C63.286 111.53 75.015 115 84 115s20.714-3.14 25.892-5.277c21.173-8.737 30.722-31.95 30.754-47.238V42.13S141.74 26 140.081 26" id="m"/>
              </defs>
              <mask id="n" fill="#fff">
                <path d="M 101.428 98.169 C 98.915 100.463 96.238 101.494 92.853 100.773 C 92.271 100.649 89.896 96.235 84 96.235 C 78.103 96.235 75.73 100.649 75.147 100.773 C 71.762 101.494 69.085 100.463 66.571 98.169 C 61.846 93.856 57.917 87.909 60.278 81.419 C 61.508 78.037 63.51 74.324 67.151 73.246 C 71.038 72.096 76.497 73.244 80.415 72.458 C 81.685 72.204 83.071 71.751 84 71 C 84.929 71.75 86.316 72.204 87.585 72.458 C 91.503 73.244 96.961 72.096 100.849 73.246 C 104.489 74.324 106.491 78.036 107.722 81.419 C 110.083 87.909 106.154 93.856 101.428 98.169 M 140.081 26 C 136.671 34.4 137.988 44.858 137.357 53.676 C 136.844 60.843 135.337 71.586 128.973 76.215 C 125.718 78.582 119.794 82.56 115.542 81.45 C 112.615 80.686 112.302 72.29 108.455 69.147 C 104.092 65.582 98.643 64.016 93.149 64.257 C 90.779 64.362 85.984 64.337 83.999 66.16 C 82.016 64.337 77.222 64.362 74.851 64.258 C 69.357 64.016 63.908 65.582 59.545 69.147 C 55.698 72.29 55.385 80.687 52.458 81.45 C 48.206 82.56 42.282 78.582 39.027 76.215 C 32.662 71.585 31.157 60.843 30.643 53.675 C 30.013 44.858 31.329 34.4 27.919 26 C 26.259 26 27.354 42.129 27.354 42.129 L 27.354 62.485 C 27.386 77.773 36.935 100.655 58.108 109.393 C 63.286 111.53 75.015 115 84 115 C 92.985 115 104.714 111.86 109.892 109.723 C 131.065 100.986 140.614 77.773 140.646 62.485 L 140.646 42.13 C 140.646 42.13 141.74 26 140.081 26"/>
              </mask>
              <path d="M 101.428 98.169 C 98.915 100.463 96.238 101.494 92.853 100.773 C 92.271 100.649 89.896 96.235 84 96.235 C 78.103 96.235 75.73 100.649 75.147 100.773 C 71.762 101.494 69.085 100.463 66.571 98.169 C 61.846 93.856 57.917 87.909 60.278 81.419 C 61.508 78.037 63.51 74.324 67.151 73.246 C 71.038 72.096 76.497 73.244 80.415 72.458 C 81.685 72.204 83.071 71.751 84 71 C 84.929 71.75 86.316 72.204 87.585 72.458 C 91.503 73.244 96.961 72.096 100.849 73.246 C 104.489 74.324 106.491 78.036 107.722 81.419 C 110.083 87.909 106.154 93.856 101.428 98.169 M 140.081 26 C 136.671 34.4 137.988 44.858 137.357 53.676 C 136.844 60.843 135.337 71.586 128.973 76.215 C 125.718 78.582 119.794 82.56 115.542 81.45 C 112.615 80.686 112.302 72.29 108.455 69.147 C 104.092 65.582 98.643 64.016 93.149 64.257 C 90.779 64.362 85.984 64.337 83.999 66.16 C 82.016 64.337 77.222 64.362 74.851 64.258 C 69.357 64.016 63.908 65.582 59.545 69.147 C 55.698 72.29 55.385 80.687 52.458 81.45 C 48.206 82.56 42.282 78.582 39.027 76.215 C 32.662 71.585 31.157 60.843 30.643 53.675 C 30.013 44.858 31.329 34.4 27.919 26 C 26.259 26 27.354 42.129 27.354 42.129 L 27.354 62.485 C 27.386 77.773 36.935 100.655 58.108 109.393 C 63.286 111.53 75.015 115 84 115 C 92.985 115 104.714 111.86 109.892 109.723 C 131.065 100.986 140.614 77.773 140.646 62.485 L 140.646 42.13 C 140.646 42.13 141.74 26 140.081 26"/>
              <g mask="url(#n)" fill="#4A312C">
                <path d="M-32 0h264v244H-32z"/>
              </g>
            </g>
            <mask id="p" fill="#fff">
              <path d="M 94.252 52.022 C 94.375 51.968 94.07 51.947 93.336 51.96 C 94.228 51.958 94.533 51.979 94.252 52.022 M 86.117 36.302 C 86.115 36.282 86.134 36.452 86.117 36.302 M 193.765 70.766 C 193.501 67.449 193.033 64.152 192.247 60.911 C 191.622 58.335 190.769 55.878 189.76 53.42 C 189.15 51.935 187.728 49.896 187.56 48.294 C 187.395 46.717 188.627 44.969 188.89 43.132 C 189.149 41.324 189.096 39.484 188.734 37.694 C 187.901 33.671 185.14 29.93 180.877 28.881 C 179.925 28.647 177.913 28.936 177.241 28.381 C 176.47 27.746 175.933 25.581 175.235 24.712 C 173.245 22.236 170.14 20.642 166.865 21.198 C 164.455 21.607 165.839 22.105 164.032 20.686 C 163.027 19.898 162.276 18.693 161.3 17.839 C 159.833 16.556 158.15 15.459 156.408 14.557 C 151.851 12.199 146.654 10.485 141.564 9.649 C 132.279 8.125 122.369 9.454 113.369 11.869 C 108.89 13.07 104.382 14.595 100.222 16.612 C 98.439 17.476 97.409 18.194 95.549 18.42 C 92.621 18.777 90.14 18.759 87.366 20.001 C 78.83 23.823 74.985 32.69 78.306 41.175 C 78.955 42.864 79.911 44.418 81.126 45.759 C 82.647 47.439 83.198 47.109 81.888 49.041 C 79.938 51.927 78.278 55 76.933 58.213 C 73.404 66.615 72.813 76.077 73.043 85.037 C 73.124 88.174 73.259 91.35 73.753 94.457 C 73.967 95.801 74.027 98.329 75.035 99.327 C 75.547 99.833 76.276 100.115 77.004 99.914 C 78.714 99.44 78.125 98.179 78.165 97.008 C 78.365 91.124 78.095 85.919 79.495 80.106 C 80.528 75.812 82.25 71.911 84.483 68.071 C 87.321 63.187 90.386 58.898 94.29 54.716 C 95.207 53.732 95.408 53.316 96.639 53.244 C 97.571 53.19 98.934 53.828 99.839 54.049 C 101.838 54.536 103.839 55.017 105.873 55.345 C 109.613 55.948 113.317 55.989 117.09 55.87 C 124.516 55.638 131.975 55.117 139.175 53.247 C 143.957 52.005 148.197 49.777 152.777 48.142 C 152.859 48.113 154.007 47.295 154.207 47.328 C 154.489 47.375 156.185 49.154 156.471 49.378 C 158.697 51.124 161.138 51.857 163.541 53.208 C 166.505 54.875 163.635 52.49 165.269 54.567 C 165.746 55.172 165.989 56.293 166.372 56.978 C 167.605 59.176 169.285 61.091 171.302 62.602 C 173.258 64.072 176.196 64.782 177.193 66.697 C 177.962 68.174 178.221 70.181 178.841 71.757 C 180.469 75.893 182.618 79.749 184.767 83.644 C 186.499 86.784 188.392 89.525 188.585 93.112 C 188.652 94.36 187.464 101.849 190.358 99.572 C 190.787 99.234 191.711 95.416 191.901 94.768 C 192.673 92.135 192.947 89.387 193.296 86.682 C 193.99 81.302 194.219 76.184 193.766 70.766"/>
            </mask>
            <path d="M 94.252 52.022 C 94.375 51.968 94.07 51.947 93.336 51.96 C 94.228 51.958 94.533 51.979 94.252 52.022 M 86.117 36.302 C 86.115 36.282 86.134 36.452 86.117 36.302 M 193.765 70.766 C 193.501 67.449 193.033 64.152 192.247 60.911 C 191.622 58.335 190.769 55.878 189.76 53.42 C 189.15 51.935 187.728 49.896 187.56 48.294 C 187.395 46.717 188.627 44.969 188.89 43.132 C 189.149 41.324 189.096 39.484 188.734 37.694 C 187.901 33.671 185.14 29.93 180.877 28.881 C 179.925 28.647 177.913 28.936 177.241 28.381 C 176.47 27.746 175.933 25.581 175.235 24.712 C 173.245 22.236 170.14 20.642 166.865 21.198 C 164.455 21.607 165.839 22.105 164.032 20.686 C 163.027 19.898 162.276 18.693 161.3 17.839 C 159.833 16.556 158.15 15.459 156.408 14.557 C 151.851 12.199 146.654 10.485 141.564 9.649 C 132.279 8.125 122.369 9.454 113.369 11.869 C 108.89 13.07 104.382 14.595 100.222 16.612 C 98.439 17.476 97.409 18.194 95.549 18.42 C 92.621 18.777 90.14 18.759 87.366 20.001 C 78.83 23.823 74.985 32.69 78.306 41.175 C 78.955 42.864 79.911 44.418 81.126 45.759 C 82.647 47.439 83.198 47.109 81.888 49.041 C 79.938 51.927 78.278 55 76.933 58.213 C 73.404 66.615 72.813 76.077 73.043 85.037 C 73.124 88.174 73.259 91.35 73.753 94.457 C 73.967 95.801 74.027 98.329 75.035 99.327 C 75.547 99.833 76.276 100.115 77.004 99.914 C 78.714 99.44 78.125 98.179 78.165 97.008 C 78.365 91.124 78.095 85.919 79.495 80.106 C 80.528 75.812 82.25 71.911 84.483 68.071 C 87.321 63.187 90.386 58.898 94.29 54.716 C 95.207 53.732 95.408 53.316 96.639 53.244 C 97.571 53.19 98.934 53.828 99.839 54.049 C 101.838 54.536 103.839 55.017 105.873 55.345 C 109.613 55.948 113.317 55.989 117.09 55.87 C 124.516 55.638 131.975 55.117 139.175 53.247 C 143.957 52.005 148.197 49.777 152.777 48.142 C 152.859 48.113 154.007 47.295 154.207 47.328 C 154.489 47.375 156.185 49.154 156.471 49.378 C 158.697 51.124 161.138 51.857 163.541 53.208 C 166.505 54.875 163.635 52.49 165.269 54.567 C 165.746 55.172 165.989 56.293 166.372 56.978 C 167.605 59.176 169.285 61.091 171.302 62.602 C 173.258 64.072 176.196 64.782 177.193 66.697 C 177.962 68.174 178.221 70.181 178.841 71.757 C 180.469 75.893 182.618 79.749 184.767 83.644 C 186.499 86.784 188.392 89.525 188.585 93.112 C 188.652 94.36 187.464 101.849 190.358 99.572 C 190.787 99.234 191.711 95.416 191.901 94.768 C 192.673 92.135 192.947 89.387 193.296 86.682 C 193.99 81.302 194.219 76.184 193.766 70.766"/>
            <g mask="url(#p)" fill="#4A312C">
              <path d="M0 0h264v280H0z"/>
            </g>
            <g transform="translate(62 85)">
              <defs>
                <filter x="-.8%" y="-2.4%" width="101.5%" height="109.8%" filterUnits="objectBoundingBox" id="q">
                  <feOffset dy="2" in="SourceAlpha" result="shadowOffsetOuter1"/>
                  <feColorMatrix values="0 0 0 0 0 0 0 0 0 0 0 0 0 0 0 0 0 0 0.2 0" in="shadowOffsetOuter1" result="shadowMatrixOuter1"/>
                  <feMerge>
                    <feMergeNode in="shadowMatrixOuter1"/>
                    <feMergeNode in="SourceGraphic"/>
                  </feMerge>
                </filter>
              </defs>
              <g filter="url(#q)" transform="translate(6 7)" fill="#252C2F" fill-rule="nonzero">
                <path d="M34 41h-2.758C17.315 41 9 33.336 9 20.5 9 10.127 10.817 0 32.53 0h2.94C57.183 0 59 10.127 59 20.5 59 32.569 48.721 41 34 41zM32.385 6C13 6 13 12.841 13 21.502 13 28.572 16.116 37 30.97 37H34c12.365 0 21-6.373 21-15.498C55 12.84 55 6 35.615 6h-3.23zM96 41h-2.758C79.315 41 71 33.336 71 20.5 71 10.127 72.817 0 94.53 0h2.94C119.183 0 121 10.127 121 20.5 121 32.569 110.721 41 96 41zM94.385 6C75 6 75 12.841 75 21.502 75 28.572 78.12 37 92.97 37H96c12.365 0 21-6.373 21-15.498C117 12.84 117 6 97.615 6h-3.23z"/>
                <path d="M2.955 5.772C3.645 5.096 11.21 0 32.5 0c17.851 0 21.63 1.853 27.35 4.652l.419.207c.398.14 2.431.83 4.81.907a16.998 16.998 0 0 0 4.563-.869C76.17 1.722 82.562 0 97.5 0c21.29 0 28.854 5.096 29.545 5.772 1.634 0 2.955 1.29 2.955 2.885v2.886c0 1.596-1.32 2.886-2.955 2.886 0 0-6.901 0-6.901 2.886 0 2.885-1.962-4.176-1.962-5.772v-2.81c-3.603-1.38-10.054-3.947-20.682-3.947-11.842 0-17.739 2.1-22.798 4.185l.057.137-.003 1.986-2.217 5.35L69.8 15.36c-.244-.097-.772-.27-1.504-.451-2.04-.503-4.137-.656-5.992-.276-.68.14-1.312.35-1.891.633l-2.643 1.29-2.643-5.16.117-2.295.08-.195c-4.362-2.033-8.385-4.12-22.824-4.12-10.628 0-17.078 2.565-20.682 3.944v2.812c0 1.596-2.954 8.657-2.954 5.772 0-2.886-5.91-2.886-5.91-2.886-1.63 0-2.954-1.29-2.954-2.886V8.657c0-1.595 1.324-2.885 2.955-2.885z"/>
              </g>
            </g>
          </g>
        </g>
        <g transform="matrix(0.489793, 0, 0, 0.489793, -76.492653, 197.042404)" class="db-logo">
          <path d="M 443.825 98.49 C 441.775 100.18 439.855 101.79 438.025 103.34 C 435.305 103.64 431.925 104.07 428.915 104.74 C 425.615 105.47 420.315 107.16 420.315 107.16 L 408.485 114.06 L 409.005 114.66 L 409.515 115.24 L 410.315 114.94 C 410.315 114.94 412.015 114.29 416.275 115.54 C 418.555 116.2 420.465 118.18 421.575 118.91 C 420.755 119.72 418.335 124.64 418.335 124.64 L 417.675 125.16 L 418.185 125.75 L 418.705 126.33 L 419.365 125.82 C 419.365 125.82 424.575 124.35 425.535 123.69 C 425.975 124.94 427.585 127.14 427.805 129.49 C 428.175 133.9 427.225 135.45 427.225 135.45 L 426.785 136.18 L 427.295 136.77 L 427.815 137.36 L 436.915 127.14 C 436.915 127.14 439.565 122.29 440.965 119.21 C 442.177 116.38 443.232 113.486 444.125 110.54 C 445.955 109.07 447.945 107.53 449.995 105.76 C 466.095 92.54 471.085 82.03 471.085 82.11 C 471.155 82.33 459.695 85.41 443.825 98.49 Z" style="fill: rgb(255, 255, 255);"/>
          <path fill="#13a7c7" d="M 397.025 94.89 C 390.359 94.802 383.924 97.333 379.105 101.94 C 369.124 111.597 368.859 127.517 378.515 137.5 C 383.124 142.315 389.48 145.069 396.145 145.14 C 400.545 145.22 404.075 143.38 407.535 140.88 L 410.765 144.78 L 416.495 127.29 L 398.195 129.57 L 401.875 133.97 C 400.296 135.183 398.356 135.831 396.365 135.81 C 387.65 135.673 380.685 128.516 380.785 119.8 C 380.848 115.613 382.566 111.622 385.565 108.7 C 388.571 105.787 392.62 104.202 396.805 104.3 C 400.995 104.37 404.965 106.06 407.905 109.07 L 408.925 110.24 L 417.155 105.54 L 417.235 105.54 L 414.655 102.68 C 410.032 97.864 403.698 95.062 397.025 94.88 Z M 472.845 103.41 C 470.409 100.872 467.451 98.893 464.175 97.61 C 462.925 99.22 458.675 103.41 456.755 105.25 L 456.685 105.25 C 468.767 106.778 474.664 120.813 467.299 130.512 C 466.82 131.143 466.294 131.737 465.725 132.29 C 462.716 135.204 458.663 136.789 454.475 136.69 C 450.293 136.627 446.307 134.912 443.385 131.92 L 439.715 128.17 L 439.715 128.25 C 439.715 128.25 437.945 131.25 437.215 132.43 C 436.257 133.646 435.225 134.801 434.125 135.89 L 436.695 138.53 C 441.307 143.346 447.667 146.1 454.335 146.17 C 461.001 146.258 467.436 143.726 472.255 139.12 C 482.223 129.403 482.491 113.466 472.855 103.42 Z"/>
        </g>
      </g>
    </g>
  </g>
</svg>