<?xml version="1.0" standalone="no"?>
<!DOCTYPE svg PUBLIC "-//W3C//DTD SVG 20010904//EN"
 "http://www.w3.org/TR/2001/REC-SVG-20010904/DTD/svg10.dtd">
<svg version="1.0" xmlns="http://www.w3.org/2000/svg"
 width="300.000000pt" height="300.000000pt" viewBox="0 0 300.000000 300.000000"
 preserveAspectRatio="xMidYMid meet">
<metadata>
Created by potrace 1.11, written by Peter Selinger 2001-2013
</metadata>
<g transform="translate(0.000000,300.000000) scale(0.100000,-0.100000)"
fill="#000000" stroke="none">
<path d="M0 2975 c0 -15 5 -23 13 -20 37 14 105 21 101 11 -4 -12 -72 -36 -99
-36 -13 0 -15 -24 -15 -160 0 -121 3 -160 13 -160 6 0 48 10 92 21 44 12 98
25 120 29 44 9 252 63 330 85 28 8 126 33 218 55 164 39 237 49 237 32 0 -14
-91 -51 -165 -68 -38 -8 -83 -19 -100 -24 -16 -5 -100 -25 -185 -45 -189 -43
-215 -49 -310 -71 -41 -9 -79 -20 -85 -23 -5 -4 -23 -8 -40 -9 -16 -2 -51 -10
-78 -18 l-47 -16 0 -129 c0 -82 4 -129 10 -129 6 0 77 14 158 31 354 74 621
128 645 131 13 2 32 10 41 17 11 9 16 10 16 2 0 -6 11 -11 24 -11 32 0 44 -19
23 -35 -28 -20 -21 -37 12 -30 34 7 44 -4 45 -49 1 -26 6 -33 34 -42 18 -5 30
-13 26 -17 -4 -3 1 -17 9 -31 15 -22 20 -24 49 -16 24 7 36 6 48 -5 11 -10 20
-11 30 -4 8 5 29 9 45 8 36 -2 67 10 59 22 -3 5 5 5 17 0 24 -8 38 -31 20 -31
-6 0 -11 -7 -11 -15 0 -17 16 -20 25 -5 5 8 11 8 19 1 7 -6 16 -8 19 -5 3 3
12 2 19 -2 7 -4 27 -7 45 -5 21 1 33 -2 33 -9 0 -7 8 -10 20 -7 11 3 20 1 20
-4 0 -5 6 -9 13 -9 36 0 64 -25 75 -69 7 -25 13 -51 14 -58 1 -6 7 -9 15 -6 7
3 24 -2 38 -11 13 -9 32 -16 42 -16 9 0 28 -10 41 -22 23 -22 24 -22 20 -3 -2
14 3 20 16 20 23 0 47 -35 28 -42 -17 -7 -4 -23 19 -23 10 0 20 -6 20 -12 1
-7 3 -20 4 -28 0 -8 7 -28 14 -45 7 -16 14 -40 14 -52 1 -11 5 -19 10 -16 4 2
7 -6 7 -18 0 -29 21 -100 35 -119 22 -29 44 -116 47 -180 1 -36 8 -76 15 -90
11 -22 10 -26 -9 -33 -19 -7 -20 -9 -4 -25 18 -21 21 -42 6 -42 -5 0 -7 -7 -3
-16 3 -9 2 -19 -4 -23 -14 -10 -53 -77 -53 -92 0 -8 -8 -22 -19 -31 -18 -15
-19 -14 -30 9 -7 14 -14 23 -17 20 -3 -3 0 -15 6 -27 10 -18 9 -21 -2 -18 -7
3 -15 18 -19 34 -5 27 -6 28 -13 7 -4 -12 -25 -32 -46 -44 -21 -12 -39 -25
-38 -28 2 -19 -4 -22 -18 -11 -8 8 -14 9 -13 4 6 -25 -29 -68 -56 -69 -5 0
-11 -10 -13 -22 -2 -16 -10 -23 -26 -23 -13 0 -29 -7 -37 -16 -8 -9 -23 -14
-39 -12 -15 2 -32 -2 -40 -10 -8 -9 -23 -12 -44 -7 -17 4 -50 6 -74 6 -35 -1
-47 4 -67 26 -13 16 -25 32 -25 37 0 5 20 28 45 52 45 44 49 46 140 48 23 1
29 5 27 18 -2 10 2 18 8 18 7 0 5 7 -4 16 -12 11 -27 14 -63 9 -82 -11 -92
-14 -105 -43 -12 -23 -19 -27 -52 -25 -21 2 -44 7 -51 13 -9 8 -17 6 -28 -4
-8 -8 -17 -12 -21 -9 -11 12 -6 41 10 58 9 9 14 19 11 22 -3 3 0 12 8 19 9 9
37 14 80 14 62 0 67 -1 62 -20 -3 -13 0 -20 9 -20 8 0 11 7 8 18 -5 14 -4 15
5 2 10 -13 12 -13 21 0 5 8 14 22 19 30 13 19 171 22 219 4 20 -8 32 -9 32 -3
0 6 5 7 11 4 6 -4 13 2 16 13 3 11 18 26 34 32 42 18 54 79 12 63 -10 -4 -14
-2 -10 4 4 6 -11 15 -37 22 -24 6 -52 13 -62 17 -17 5 -17 4 -3 -8 21 -18 17
-66 -10 -96 -19 -22 -26 -24 -64 -17 -72 13 -200 12 -241 -2 -45 -15 -96 -17
-96 -3 0 6 -6 10 -14 10 -22 0 -28 17 -14 40 11 17 11 22 -1 29 -9 6 -22 -1
-42 -24 -30 -34 -34 -69 -12 -93 7 -7 10 -19 7 -27 -4 -8 -1 -15 6 -15 9 0 7
-7 -5 -20 -11 -12 -15 -28 -12 -41 7 -26 -12 -59 -30 -52 -7 3 -13 -2 -13 -11
0 -10 -6 -13 -15 -10 -8 4 -15 12 -15 20 0 8 -4 14 -8 14 -9 0 -45 110 -41
126 1 5 -1 17 -6 27 -7 17 -8 17 -21 0 -13 -17 -15 -16 -38 9 -20 22 -22 33
-17 65 4 21 4 49 0 63 -4 14 -7 34 -8 45 0 19 1 19 13 3 20 -26 26 -12 26 61
0 36 7 127 15 201 8 74 19 176 25 227 9 87 34 182 50 193 4 3 14 19 23 36 9
17 23 36 31 43 9 8 16 22 16 32 0 11 4 19 8 19 5 0 9 7 9 15 0 15 -27 22 -27
8 0 -5 -18 -21 -40 -37 -30 -22 -40 -37 -40 -57 0 -40 -19 -46 -26 -9 -4 17
-11 33 -16 36 -5 3 13 20 39 36 30 20 43 33 34 36 -21 7 -51 35 -46 42 2 4 -7
13 -20 20 -13 7 -29 25 -34 39 -7 21 -10 22 -10 7 -1 -16 -4 -17 -13 -8 -19
19 -25 14 -20 -18 3 -18 0 -30 -7 -30 -17 0 -27 39 -25 90 3 58 -2 64 -31 42
-13 -10 -47 -24 -77 -30 -64 -15 -375 -78 -473 -97 -38 -7 -123 -23 -187 -36
l-118 -24 0 -138 c0 -137 0 -137 23 -132 12 3 49 9 82 15 33 5 98 16 145 24
47 9 137 24 200 35 63 11 135 24 160 30 25 5 66 11 93 12 28 2 47 7 47 15 0
19 28 36 62 38 31 2 54 26 24 26 -10 0 -16 9 -16 25 0 15 6 25 15 25 8 0 12
-6 9 -13 -5 -13 32 -50 55 -55 18 -4 43 -30 34 -35 -21 -12 -73 -18 -73 -8 0
6 -7 11 -15 11 -8 0 -15 -7 -15 -16 0 -13 -3 -14 -15 -4 -18 15 -45 -8 -45
-38 0 -11 -6 -22 -12 -25 -10 -3 -8 -12 5 -36 13 -23 15 -31 5 -31 -18 1 -48
25 -48 39 0 14 18 16 -230 -24 -212 -35 -289 -48 -383 -66 -26 -5 -61 -9 -77
-9 l-30 0 0 -135 c0 -101 3 -135 13 -135 6 0 73 9 147 20 460 69 618 83 645
57 31 -32 12 -47 -59 -47 -23 0 -68 -7 -101 -15 -32 -9 -113 -22 -179 -31 -67
-8 -170 -21 -231 -29 -60 -8 -137 -18 -170 -23 l-60 -7 -3 -138 -3 -137 24 0
c13 0 113 9 223 20 239 24 390 25 399 2 7 -18 14 -15 -75 -36 -71 -16 -257
-37 -472 -52 l-98 -6 0 -134 0 -134 58 0 c31 0 126 5 210 12 134 10 163 9 225
-5 58 -13 151 -17 165 -6 1 1 7 3 12 4 6 1 11 3 13 5 5 4 56 8 205 15 108 5
152 4 152 -4 0 -6 4 -11 10 -11 5 0 7 7 4 15 -5 11 -2 13 10 9 24 -9 20 -33
-6 -38 -31 -7 -207 -16 -381 -21 -78 -3 -153 -7 -167 -10 -93 -19 -144 -25
-266 -30 -77 -3 -163 -8 -191 -11 l-53 -5 0 -131 0 -130 188 2 c103 1 226 -1
274 -4 51 -3 90 -1 93 5 4 5 71 9 153 9 l147 0 11 -44 c9 -42 9 -44 -11 -36
-11 4 -82 6 -158 5 -76 -1 -140 1 -142 5 -6 10 -112 5 -200 -9 -38 -6 -134
-10 -212 -11 l-143 0 0 -129 0 -128 108 -6 c59 -3 130 -10 157 -16 28 -5 99
-15 159 -21 60 -6 118 -15 127 -21 11 -6 20 -5 24 1 3 5 15 10 27 10 14 0 18
-5 14 -16 -3 -9 -6 -22 -6 -29 0 -10 -30 -12 -141 -9 -78 2 -147 8 -153 12 -6
5 -22 8 -36 7 -14 -1 -82 -2 -152 -3 l-128 -2 0 -80 0 -80 629 0 c506 0 632 3
643 13 7 7 51 40 98 72 47 33 107 78 133 101 26 24 78 60 115 82 37 21 90 53
117 70 40 25 68 34 135 42 258 30 270 32 281 52 15 28 8 30 -47 13 -29 -9 -89
-15 -148 -15 -80 0 -117 -5 -185 -27 -47 -14 -97 -33 -111 -41 l-25 -14 24 21
c13 12 29 25 35 29 16 10 138 143 161 176 23 31 63 100 97 165 13 24 35 57 50
73 15 16 26 32 26 35 -1 3 7 16 17 29 14 19 21 22 31 13 8 -6 14 -20 14 -31 0
-17 2 -19 16 -7 18 14 12 54 -13 81 -8 9 -13 23 -10 30 11 29 50 -88 54 -162
5 -82 9 -101 20 -98 18 5 119 -26 126 -38 4 -8 13 -14 19 -14 39 0 197 -105
221 -146 4 -8 15 -14 22 -14 8 0 15 -7 15 -15 0 -8 7 -15 15 -15 21 0 162
-138 169 -165 3 -13 15 -26 25 -30 19 -6 36 -48 26 -65 -3 -5 -1 -12 5 -15 8
-5 6 -15 -5 -31 -8 -13 -11 -24 -5 -24 5 0 10 5 10 11 0 8 4 9 13 0 8 -6 16
-8 20 -5 11 11 0 -41 -14 -65 -11 -18 -11 -25 -1 -28 6 -3 12 -13 12 -24 0
-17 8 -19 85 -19 l85 0 0 755 c0 740 0 755 -19 755 -11 0 -30 -4 -44 -9 -17
-7 -24 -6 -24 3 0 7 7 12 16 12 9 0 28 1 44 2 l27 2 0 740 0 740 -632 0 c-478
-1 -636 -4 -647 -13 -11 -9 -15 -9 -18 0 -4 10 -162 13 -707 13 -596 0 -709
-2 -751 -15 -59 -18 -119 -20 -110 -4 4 6 13 8 21 5 8 -3 14 -1 14 4 0 6 -37
10 -85 10 -84 0 -85 0 -85 -25z m1680 5 c0 -5 -9 -11 -20 -11 -28 -2 -33 -3
-45 -11 -6 -4 -17 -3 -25 3 -12 7 -11 9 5 10 30 1 56 7 63 13 9 9 22 7 22 -4z
m-160 -32 c0 -4 -7 -8 -15 -8 -8 0 -15 4 -15 8 0 5 7 9 15 9 8 0 15 -4 15 -9z
m-56 -15 c-10 -7 -29 -13 -43 -13 l-26 0 25 14 c14 7 33 13 43 12 17 0 17 -1
1 -13z m-134 -32 c0 -13 -59 -30 -103 -29 -45 0 -45 2 9 20 51 17 94 21 94 9z
m1140 -123 c0 -5 -7 -8 -15 -8 -8 0 -15 -4 -15 -10 0 -13 -117 -13 -125 0 -3
5 0 7 8 4 8 -3 17 1 19 8 6 14 128 19 128 6z m-203 -94 c-3 -3 -12 -4 -19 -1
-8 3 -5 6 6 6 11 1 17 -2 13 -5z m-257 -32 c0 -25 -38 -46 -56 -31 -15 12 -16
9 -18 -32 -2 -21 2 -25 21 -21 23 4 28 -4 17 -32 -9 -22 -54 -21 -56 2 0 9 -2
22 -2 28 -3 24 -30 45 -55 42 -18 -2 -26 2 -26 12 0 10 12 16 33 18 18 2 30 8
26 13 -3 6 10 9 35 7 23 -1 46 3 53 10 14 14 28 6 28 -16z m-390 -20 c33 -9
33 -10 8 -11 -16 -1 -28 -6 -28 -12 0 -6 8 -8 19 -4 26 8 91 -29 91 -52 0 -4
16 -18 35 -31 19 -12 35 -17 35 -11 0 14 -26 40 -33 32 -3 -3 -9 6 -13 21 -5
20 -14 27 -43 33 l-36 7 39 9 c29 7 40 6 47 -4 5 -8 9 -9 9 -3 0 7 15 14 34
16 19 2 32 0 30 -4 -3 -4 -15 -8 -27 -8 -18 0 -19 -2 -7 -10 13 -9 13 -12 -4
-25 -24 -18 -12 -35 25 -35 19 0 29 5 29 15 0 8 5 15 11 15 5 0 8 4 5 9 -3 5
3 11 14 14 31 8 38 -32 9 -55 -15 -12 -18 -16 -6 -12 9 3 17 1 17 -5 0 -6 -7
-11 -16 -11 -15 0 -15 -2 -2 -22 8 -13 14 -30 13 -39 -2 -12 3 -15 19 -11 11
3 18 1 14 -3 -4 -4 -2 -17 3 -28 8 -15 8 -22 -2 -28 -17 -10 -28 -3 -39 27 -6
16 -17 24 -32 24 -22 -1 -22 -1 -4 -15 11 -8 16 -15 10 -15 -5 0 -3 -4 5 -9
12 -8 13 -12 1 -25 -12 -15 -14 -15 -31 0 -11 10 -19 12 -19 6 0 -6 6 -12 13
-15 6 -2 10 -7 7 -10 -9 -9 -51 4 -45 13 3 5 1 11 -3 14 -5 3 -7 16 -5 29 4
17 -2 26 -21 35 -24 11 -26 10 -26 -11 -1 -21 -2 -20 -18 6 -13 22 -22 27 -40
22 -13 -3 -21 -2 -19 2 3 5 -8 15 -24 22 -16 7 -27 17 -23 22 3 5 -7 9 -23 9
-22 0 -25 2 -13 10 8 5 28 10 43 10 40 0 24 17 -23 25 -22 4 -40 11 -40 16 0
5 5 9 10 9 6 0 10 7 10 15 0 8 5 15 10 15 6 0 10 5 10 10 0 20 -49 9 -78 -18
l-30 -28 20 -24 c19 -23 19 -24 1 -31 -10 -4 -13 -8 -8 -8 6 -1 -14 -12 -44
-26 -36 -17 -51 -30 -48 -39 3 -8 -1 -22 -10 -33 -13 -16 -14 -16 -9 0 3 9 1
17 -5 17 -5 0 -13 -8 -16 -17 -4 -10 -13 -24 -20 -31 -11 -11 -14 -11 -19 2
-3 9 1 23 10 31 22 23 20 45 -4 45 -17 0 -19 4 -14 27 6 24 5 25 -8 12 -9 -7
-13 -20 -11 -26 3 -7 1 -13 -5 -13 -6 0 -12 6 -15 13 -3 8 -10 7 -23 -7 -11
-10 -13 -16 -6 -12 6 4 12 2 12 -3 0 -22 -33 -7 -43 19 -4 13 -6 12 -6 -1 -1
-9 -8 -22 -16 -29 -8 -7 -12 -16 -9 -21 3 -5 0 -9 -7 -9 -8 0 -8 -4 1 -15 16
-19 -4 -21 -43 -2 -35 16 -34 26 3 34 42 8 49 24 8 17 -28 -4 -30 -3 -16 8 15
11 15 13 -5 23 -31 15 -35 45 -5 45 13 0 31 11 42 25 19 26 75 37 60 13 -5 -9
-2 -8 10 1 13 11 14 16 4 22 -10 7 -9 9 4 9 9 0 22 8 28 18 8 12 13 13 16 5 3
-7 18 -13 34 -13 26 0 28 -3 34 -51 6 -45 9 -49 23 -38 10 9 11 15 4 17 -8 3
-6 9 6 19 13 10 15 16 6 19 -7 3 -13 13 -13 21 0 16 22 15 65 -3 18 -7 19 -6
6 9 -12 15 -12 17 3 11 9 -3 16 -2 16 4 0 6 14 13 30 17 17 4 30 11 30 17 0
11 39 7 100 -10z m-488 -34 c-4 -29 -6 -30 -18 -13 -10 14 -11 22 -3 32 19 22
26 15 21 -19z m108 17 c0 -8 -4 -15 -8 -15 -5 0 -9 7 -9 15 0 8 4 15 9 15 4 0
8 -7 8 -15z m830 -100 c-7 -9 -15 -13 -19 -10 -3 3 1 10 9 15 21 14 24 12 10
-5z m-1012 -2 c-10 -2 -18 -8 -18 -12 0 -14 23 -29 36 -24 8 3 14 0 14 -6 0
-6 -5 -11 -12 -11 -9 0 -9 -3 -1 -11 17 -17 -7 -60 -32 -57 -11 2 -18 8 -15
13 3 6 10 9 15 7 6 -1 1 5 -9 13 -25 19 -36 19 -36 0 0 -8 -7 -15 -16 -15 -8
0 -22 7 -30 15 -14 13 -14 15 0 15 20 0 21 19 1 26 -11 5 -12 9 -2 19 10 10
13 9 17 -8 3 -12 15 -23 25 -25 19 -3 19 -2 3 11 -22 18 -23 27 -2 27 8 0 22
7 30 15 9 8 23 14 32 14 15 -1 15 -2 0 -6z m493 -20 c-7 -3 -9 -8 -5 -12 5 -3
18 -23 28 -44 17 -32 18 -40 6 -47 -12 -7 -11 -12 3 -28 17 -19 23 -52 10 -52
-5 0 -15 15 -23 32 -8 18 -22 34 -30 36 -13 3 -13 2 0 -7 13 -9 13 -11 -2 -11
-15 0 -16 -4 -8 -26 13 -33 14 -31 -14 -36 -14 -3 -30 0 -35 5 -8 8 -11 7 -11
-2 0 -7 -4 -9 -10 -6 -13 8 -13 62 0 70 6 4 17 1 25 -5 11 -10 19 -6 38 16
l23 27 -28 29 c-15 16 -28 32 -28 36 0 8 47 30 65 30 6 0 4 -2 -4 -5z m389
-28 c0 -8 9 -15 20 -15 13 0 20 -7 20 -19 0 -23 16 -36 25 -21 10 16 35 -8 28
-26 -3 -9 1 -14 13 -14 14 0 15 -3 6 -12 -22 -22 -15 -38 13 -28 38 15 31 -6
-9 -25 -32 -15 -37 -15 -68 -1 -39 19 -71 65 -58 85 5 9 1 27 -10 47 -14 24
-16 34 -7 38 21 8 27 6 27 -9z m-290 -35 c0 -5 8 -10 17 -12 16 -3 16 -4 0
-20 -27 -26 -20 -37 18 -31 23 4 35 2 35 -6 0 -18 32 -48 55 -53 24 -4 23 -19
-2 -33 -10 -5 -27 -20 -38 -32 -25 -27 -55 -30 -55 -5 0 14 2 15 10 2 8 -12
10 -11 10 8 0 16 6 22 23 23 17 1 15 3 -10 10 -18 5 -33 14 -33 20 0 6 4 8 8
5 4 -2 8 4 8 15 0 10 -5 18 -11 17 -22 -4 -56 14 -51 28 3 7 -4 18 -14 24 -11
6 -20 21 -20 33 0 18 2 19 11 7 9 -12 10 -11 6 7 -4 20 -2 21 14 12 10 -5 19
-14 19 -19z m-330 0 c0 -5 -4 -10 -10 -10 -5 0 -10 5 -10 10 0 6 5 10 10 10 6
0 10 -4 10 -10z m-300 -70 c0 -5 -2 -10 -4 -10 -3 0 -8 5 -11 10 -3 6 -1 10 4
10 6 0 11 -4 11 -10z m905 -59 c2 -18 0 -29 -5 -26 -5 3 -8 19 -8 35 1 37 8
33 13 -9z m517 18 c2 -2 1 -3 -1 -2 -2 2 -9 -1 -15 -7 -7 -5 -33 -10 -59 -11
-27 -2 -50 -6 -53 -11 -3 -4 -25 -8 -50 -8 -24 0 -44 -5 -44 -11 0 -5 -5 -7
-11 -3 -28 17 24 35 121 41 36 3 69 8 73 13 9 8 34 8 39 -1z m-582 -49 c10
-31 11 -43 2 -52 -9 -9 -12 -8 -12 4 0 9 -7 19 -15 22 -12 4 -13 11 -7 23 5
10 7 24 5 31 -3 6 -1 12 5 12 5 0 15 -18 22 -40z m-1050 27 c0 -1 -9 -20 -20
-42 -16 -31 -20 -35 -20 -16 0 27 17 61 30 61 6 0 10 -1 10 -3z m1270 -14 c0
-5 4 -14 9 -22 8 -12 12 -12 26 2 9 10 22 17 28 16 9 0 8 -2 0 -6 -7 -2 -13
-12 -13 -22 0 -9 -5 -22 -12 -29 -9 -9 -3 -10 25 -7 21 3 37 1 37 -5 0 -6 7
-10 16 -10 21 0 14 -34 -9 -38 -10 -2 -26 0 -35 4 -9 4 -26 9 -37 11 -11 2
-21 8 -23 13 -2 6 -11 6 -24 -1 -25 -14 -36 -3 -20 21 10 16 8 20 -8 25 -18 6
-18 8 -5 21 8 9 15 20 15 25 0 11 30 12 30 2z m-1100 -14 c0 -5 -5 -9 -12 -9
-6 0 -4 -6 7 -13 22 -17 9 -27 -27 -20 -22 4 -27 10 -24 27 3 11 5 22 5 22 4
6 51 -1 51 -7z m280 1 c0 -5 -4 -10 -10 -10 -5 0 -10 5 -10 10 0 6 5 10 10 10
6 0 10 -4 10 -10z m400 -20 c0 -34 -6 -37 -32 -13 -26 23 -23 43 7 43 21 0 25
-5 25 -30z m275 -5 c12 0 13 -24 1 -27 -5 -2 -16 8 -25 22 -13 20 -13 23 -1
15 8 -5 20 -10 25 -10z m-560 -5 c3 -5 1 -10 -4 -10 -6 0 -11 5 -11 10 0 6 2
10 4 10 3 0 8 -4 11 -10z m389 -29 c4 -5 -3 -7 -14 -4 -23 6 -26 13 -6 13 8 0
17 -4 20 -9z m-835 -21 c8 0 11 -3 8 -7 -4 -3 -2 -12 4 -20 9 -10 6 -13 -18
-13 -31 0 -53 16 -53 38 0 10 7 12 23 8 12 -3 28 -6 36 -6z m917 -27 c-10 -10
-19 5 -10 18 6 11 8 11 12 0 2 -7 1 -15 -2 -18z m212 -25 c-2 -14 -11 -22 -28
-24 -14 -1 -19 0 -12 2 6 3 12 12 12 19 0 11 10 20 28 24 2 1 2 -9 0 -21z
m-398 -7 c0 -10 7 -22 16 -25 22 -8 32 3 14 14 -20 12 0 33 23 24 11 -4 16
-14 13 -30 -3 -16 2 -29 17 -39 29 -20 13 -32 -24 -18 -25 10 -29 10 -19 -2 8
-10 8 -15 0 -20 -12 -8 -62 33 -55 45 2 4 0 21 -5 39 -7 24 -6 31 6 31 8 0 14
-9 14 -19z m320 -1 c0 -5 -2 -10 -4 -10 -3 0 -8 5 -11 10 -3 6 -1 10 4 10 6 0
11 -4 11 -10z m237 -40 c2 -14 -5 -24 -22 -32 -33 -15 -45 -2 -17 18 12 8 22
22 22 31 0 22 13 8 17 -17z m-128 1 c10 -7 11 -13 2 -30 -13 -23 -13 -23 -35
-15 -16 6 -22 35 -9 47 9 9 25 8 42 -2z m-1084 -50 c-3 -6 -11 -11 -17 -11 -6
0 -6 6 2 15 14 17 26 13 15 -4z m1231 -27 c-5 -18 -3 -24 5 -19 8 6 8 2 0 -14
-16 -28 -35 -27 -27 2 3 12 6 30 6 40 0 9 5 17 11 17 7 0 9 -10 5 -26z m-1401
-16 c-2 -23 -35 -40 -35 -19 0 6 5 11 10 11 6 0 10 7 10 15 0 8 4 15 8 15 5 0
8 -10 7 -22z m-85 -82 c0 -2 -9 -2 -20 1 -12 3 -20 14 -20 26 0 21 0 21 20 -1
11 -12 20 -23 20 -26z m1440 -16 c0 -5 -5 -10 -11 -10 -5 0 -7 -5 -3 -12 4 -7
3 -8 -4 -4 -17 10 -15 36 3 36 8 0 15 -4 15 -10z m335 2 c-9 -8 -51 -18 -170
-41 -40 -8 -53 -7 -64 4 -27 27 -15 29 199 43 27 2 41 0 35 -6z m-1615 -12 c0
-5 -5 -10 -11 -10 -5 0 -7 5 -4 10 3 6 8 10 11 10 2 0 4 -4 4 -10z m-185 -60
c3 -5 2 -10 -4 -10 -5 0 -13 5 -16 10 -3 6 -2 10 4 10 5 0 13 -4 16 -10z
m1452 -26 c-3 -3 -12 -4 -19 -1 -8 3 -5 6 6 6 11 1 17 -2 13 -5z m3 -24 c0 -5
-4 -10 -9 -10 -6 0 -13 5 -16 10 -3 6 1 10 9 10 9 0 16 -4 16 -10z m25 -251
c4 -12 2 -31 -3 -43 -6 -11 -18 -48 -28 -81 -23 -81 -59 -142 -94 -160 -31
-16 -60 -11 -60 10 0 16 55 79 70 81 6 1 14 2 19 3 6 0 9 9 8 19 0 9 12 36 27
59 16 24 31 62 34 88 5 48 16 58 27 24z m691 -28 c-3 -4 -34 -11 -68 -14 -35
-4 -74 -9 -88 -11 -14 -2 -56 -7 -95 -11 -81 -8 -131 -14 -160 -20 -11 -2 -58
-5 -105 -6 -46 -1 -99 -5 -117 -9 -19 -5 -33 -4 -33 2 0 5 -4 6 -10 3 -5 -3
-10 -2 -10 4 0 15 106 30 370 51 262 21 323 23 316 11z m-2066 -201 c11 -21 6
-24 -45 -23 -73 2 -85 11 -37 30 43 17 70 15 82 -7z m-127 -17 c-7 -2 -19 -2
-25 0 -7 3 -2 5 12 5 14 0 19 -2 13 -5z m1908 -251 c-7 -2 -18 1 -23 6 -8 8
-4 9 13 5 13 -4 18 -8 10 -11z m-51 -1 c0 -5 -11 -8 -25 -7 -33 1 -33 16 0 16
14 0 25 -4 25 -9z m-320 -16 c0 -10 -10 -15 -30 -15 -38 0 -39 17 -2 23 15 2
28 5 30 6 1 0 2 -6 2 -14z m133 8 c-7 -2 -19 -2 -25 0 -7 3 -2 5 12 5 14 0 19
-2 13 -5z m-1253 -49 c0 -8 5 -14 10 -14 6 0 10 -4 10 -10 0 -19 -16 -10 -33
20 -15 25 -16 29 -2 24 8 -3 15 -12 15 -20z m813 -183 c-49 -71 -70 -78 -42
-14 35 81 69 177 71 203 1 14 4 -11 5 -55 4 -78 3 -80 -34 -134z m-613 139 c0
-5 -5 -10 -11 -10 -5 0 -7 5 -4 10 3 6 8 10 11 10 2 0 4 -4 4 -10z m-23 -96
c-3 -3 -12 -4 -19 -1 -8 3 -5 6 6 6 11 1 17 -2 13 -5z m-15 -89 c13 -3 32 -10
43 -16 11 -5 38 -15 60 -23 27 -9 39 -19 37 -30 -2 -9 2 -16 8 -16 14 0 13
-27 -2 -32 -7 -3 -9 -12 -5 -22 6 -14 14 -17 40 -12 38 7 52 -1 36 -21 -9 -10
-8 -13 2 -14 8 -1 24 -3 37 -4 12 -1 22 2 22 7 0 5 4 7 9 3 5 -3 12 -1 16 5 4
6 11 7 17 4 7 -5 8 -2 3 6 -9 14 11 30 39 30 16 0 17 -3 8 -12 -18 -18 -14
-38 8 -38 27 0 26 -33 -2 -45 -26 -12 -38 -38 -13 -28 15 5 16 3 5 -17 -7 -12
-21 -25 -31 -27 -10 -3 -19 -11 -19 -17 0 -10 -264 -276 -274 -276 -4 0 -13
49 -22 115 -3 22 -13 56 -22 75 -8 19 -17 69 -19 110 -4 111 -22 215 -49 294
-13 39 -24 73 -24 76 0 3 16 -12 35 -32 19 -20 45 -39 57 -43z m-245 -217 c-3
-8 -6 -5 -6 6 -1 11 2 17 5 13 3 -3 4 -12 1 -19z m578 -208 c-10 -11 -22 -20
-28 -20 -5 0 1 9 14 20 31 25 37 25 14 0z"/>
<path d="M1407 2544 c-7 -7 2 -34 12 -34 4 0 7 9 7 20 0 20 -7 25 -19 14z"/>
<path d="M1793 2497 c-13 -5 -23 -14 -23 -19 0 -5 6 -6 13 -1 6 4 23 6 37 5
14 -2 21 1 15 5 -5 5 -12 11 -15 14 -3 4 -15 2 -27 -4z"/>
<path d="M1775 2450 c3 -5 11 -10 16 -10 6 0 7 5 4 10 -3 6 -11 10 -16 10 -6
0 -7 -4 -4 -10z"/>
<path d="M1962 2350 c2 -9 15 -16 34 -17 23 -1 30 3 31 18 2 16 -4 18 -33 16
-24 -1 -34 -6 -32 -17z"/>
<path d="M1577 543 c-3 -5 1 -14 9 -21 12 -11 14 -9 14 8 0 20 -14 27 -23 13z"/>
<path d="M800 2110 c0 -5 5 -10 10 -10 6 0 10 5 10 10 0 6 -4 10 -10 10 -5 0
-10 -4 -10 -10z"/>
<path d="M1586 2014 c-9 -24 -7 -27 9 -10 17 17 19 26 6 26 -5 0 -12 -7 -15
-16z"/>
<path d="M1696 1947 c3 -10 9 -15 12 -12 3 3 0 11 -7 18 -10 9 -11 8 -5 -6z"/>
<path d="M1528 1777 c-26 -6 -38 -15 -42 -33 -4 -13 -11 -24 -16 -24 -21 0
-10 -69 17 -100 31 -37 73 -57 84 -39 5 9 13 7 30 -5 29 -20 102 -21 118 -2 7
8 35 17 64 21 81 10 87 13 87 44 0 45 -19 89 -38 87 -9 0 -16 5 -14 12 4 21
-67 45 -120 40 -26 -3 -66 -2 -90 1 -24 4 -59 3 -80 -2z m161 -51 c10 -11 -1
-14 -61 -18 -40 -3 -76 -2 -80 1 -4 3 3 7 15 7 30 2 91 15 96 20 8 8 19 4 30
-10z m46 -115 c7 -13 -23 -21 -78 -23 -48 -1 -71 8 -62 23 8 12 132 12 140 0z"/>
<path d="M1113 1773 c5 -8 -2 -13 -20 -15 -32 -4 -41 -23 -13 -31 11 -3 20 -1
20 4 0 5 15 7 33 4 17 -2 60 -7 95 -11 34 -4 62 -10 62 -13 0 -4 -28 -6 -62
-6 -84 0 -162 -38 -166 -82 l-3 -29 76 3 c41 1 80 5 85 8 6 3 10 2 10 -3 0 -5
-15 -17 -32 -26 -38 -18 -18 -21 47 -6 66 15 108 88 70 120 -9 8 -13 21 -9 35
9 38 -36 55 -110 44 -44 -7 -62 -6 -74 3 -10 9 -13 9 -9 1z m47 -154 c0 -6 -4
-7 -10 -4 -5 3 -10 11 -10 16 0 6 5 7 10 4 6 -3 10 -11 10 -16z"/>
<path d="M1397 1414 c-3 -3 -3 -17 -1 -30 5 -26 -5 -31 -25 -11 -8 7 -11 7 -8
1 8 -15 -19 -39 -27 -25 -7 10 -86 -59 -86 -75 0 -13 180 -11 205 3 32 18 52
45 64 87 6 22 9 41 8 42 -7 5 -125 12 -130 8z"/>
<path d="M1572 1401 c7 -11 16 -17 20 -15 4 3 8 0 8 -5 0 -6 5 -11 10 -11 6 0
5 8 -2 19 -7 11 -16 17 -20 15 -4 -3 -8 0 -8 5 0 6 -5 11 -10 11 -6 0 -5 -8 2
-19z"/>
<path d="M1286 1385 c4 -8 12 -15 20 -15 8 0 14 7 14 15 0 8 -9 15 -20 15 -13
0 -18 -5 -14 -15z"/>
<path d="M1214 1379 c-3 -6 -1 -15 5 -20 6 -5 9 -6 6 -3 -3 4 3 13 13 20 16
12 16 13 0 14 -9 0 -20 -5 -24 -11z"/>
<path d="M962 1345 c0 -16 2 -22 5 -12 2 9 2 23 0 30 -3 6 -5 -1 -5 -18z"/>
<path d="M982 1280 c0 -14 2 -19 5 -12 2 6 2 18 0 25 -3 6 -5 1 -5 -13z"/>
<path d="M1107 1085 c-4 -8 -2 -17 3 -20 6 -4 10 3 10 14 0 25 -6 27 -13 6z"/>
<path d="M1670 1058 c0 -12 3 -18 7 -14 11 10 12 36 2 36 -5 0 -9 -10 -9 -22z"/>
<path d="M1458 923 c7 -3 16 -2 19 1 4 3 -2 6 -13 5 -11 0 -14 -3 -6 -6z"/>
<path d="M2070 350 c-35 -7 -35 -7 -5 -9 17 0 37 4 45 9 17 11 11 11 -40 0z"/>
<path d="M1930 332 c0 -4 17 -6 38 -4 58 5 62 10 10 11 -27 1 -48 -3 -48 -7z"/>
<path d="M2065 312 c3 -8 5 -21 5 -29 0 -17 32 -12 88 14 50 24 38 34 -33 31
-49 -2 -64 -6 -60 -16z"/>
<path d="M1930 311 c-8 -5 -36 -11 -62 -14 -118 -16 -317 -97 -378 -155 -14
-13 -54 -41 -90 -62 -36 -22 -76 -48 -90 -59 l-25 -21 131 0 c104 0 134 3 144
15 6 8 95 55 197 106 146 71 188 88 195 77 5 -7 13 -21 19 -30 12 -22 58 -23
85 -3 18 14 17 14 -12 9 -21 -4 -36 -1 -47 10 -18 18 -37 77 -37 114 0 24 -6
26 -30 13z"/>
<path d="M2768 173 c7 -3 16 -2 19 1 4 3 -2 6 -13 5 -11 0 -14 -3 -6 -6z"/>
<path d="M2712 90 c7 -10 14 -18 15 -16 6 6 -9 36 -18 36 -5 0 -4 -9 3 -20z"/>
<path d="M2620 80 c0 -7 6 -10 14 -7 8 3 22 -3 32 -14 9 -10 14 -19 9 -19 -4
0 -14 8 -21 18 -13 16 -14 15 -20 -6 -6 -21 -8 -22 -24 -7 -16 15 -18 14 -23
-5 -3 -11 -16 -24 -29 -29 -19 -8 -14 -10 30 -10 30 -1 52 3 52 10 0 5 4 8 9
4 15 -8 38 21 37 47 -1 18 -8 24 -33 26 -20 2 -33 -1 -33 -8z"/>
</g>
</svg>
