<svg height='100px' width='100px'  fill="#fc488e" xmlns="http://www.w3.org/2000/svg" xmlns:xlink="http://www.w3.org/1999/xlink" version="1.1" x="0px" y="0px" viewBox="0 0 100 100" enable-background="new 0 0 100 100" xml:space="preserve"><g><path fill="none" d="M50.221,14.548h-0.442c0,0-5.017-0.056-6.193,5.04c-0.523,2.266,2.164,7.601,6.414,14.243   c4.251-6.642,6.937-11.977,6.414-14.243C55.239,14.492,50.221,14.548,50.221,14.548z"></path><path d="M60.438,48.793c3.977-8.012,6.536-15.659,6.086-21.585C64.733,3.619,50.039,5.016,50.039,5.016h-0.078   c0,0-14.694-1.397-16.485,22.193c-0.45,5.926,2.109,13.573,6.086,21.585C27.483,65.125,13.365,81.946,13.365,81.946L28.363,95   c0,0,11.32-13.009,21.637-28.492C60.318,81.991,71.637,95,71.637,95l14.997-13.054C86.635,81.946,72.517,65.125,60.438,48.793z    M50,33.831c-4.251-6.642-6.938-11.977-6.414-14.243c1.176-5.096,6.193-5.04,6.193-5.04h0.442c0,0,5.017-0.056,6.193,5.04   C56.937,21.854,54.251,27.189,50,33.831z"></path></g></svg>