<!-- Created with Inkscape (http://www.inkscape.org/) -->
<svg xmlns:rdf="http://www.w3.org/1999/02/22-rdf-syntax-ns#" xmlns="http://www.w3.org/2000/svg" height="315.57" width="330.83" version="1.1" xmlns:cc="http://creativecommons.org/ns#" xmlns:dc="http://purl.org/dc/elements/1.1/" xmlns:openbadges="http://openbadges.org"><openbadges:assertion verify="https://data.oqs-cdn.com/openbadges/earner_V085B7.json"><![CDATA[{"issuedOn":1461686742,"badge":"https://data.oqs-cdn.com/openbadges/property_V085B7.json","recipient":{"type":"email","hashed":false,"identity":"bschapira@clever-age.com"},"uid":"V085B7","verify":{"url":"https://data.oqs-cdn.com/openbadges/earner_V085B7.json","type":"hosted"}}]]></openbadges:assertion>
 <metadata>
  <rdf:RDF>
   <cc:Work rdf:about="">
    <dc:format>image/svg+xml</dc:format>
    <dc:type rdf:resource="http://purl.org/dc/dcmitype/StillImage"/>
    <dc:title/>
   </cc:Work>
  </rdf:RDF>
 </metadata>
 <g transform="translate(-57.440808,-417.42892)">
  <g transform="translate(2.3292009,28.835168)">
   <rect stroke-linejoin="round" stroke-dasharray="none" rx="10" ry="10" height="297.36" width="297.36" stroke="#b1daec" stroke-linecap="round" stroke-miterlimit="4" y="397.7" x="71.844" stroke-width="18.2" fill="none"/>
   <rect rx="9.81" ry="9.8102" height="293.16" width="293.16" y="399.81" x="73.946" fill="#363940"/>
   <rect height="61.619" width="330.82" y="529.57" x="55.112" fill="#b1daec"/>
   <g fill="#f4e20a" transform="translate(202.64113,-178.92971)">
    <path d="m-263.02,549.94-22.136-7.5716-18.713,14.042,0.36054-23.393-19.137-13.458,22.359-6.8858,6.8858-22.359,13.458,19.137,23.393-0.36054-14.042,18.713z" transform="matrix(0.67820592,0.1076423,-0.1076423,0.67820592,337.12447,491.62613)"/>
    <path transform="matrix(0.67820592,0.1076423,-0.1076423,0.67820592,202.1772,491.62613)" d="m-263.02,549.94-22.136-7.5716-18.713,14.042,0.36054-23.393-19.137-13.458,22.359-6.8858,6.8858-22.359,13.458,19.137,23.393-0.36054-14.042,18.713z"/>
    <path transform="matrix(0.67820592,0.1076423,-0.1076423,0.67820592,269.65083,491.62613)" d="m-263.02,549.94-22.136-7.5716-18.713,14.042,0.36054-23.393-19.137-13.458,22.359-6.8858,6.8858-22.359,13.458,19.137,23.393-0.36054-14.042,18.713z"/>
   </g>
   <text style="letter-spacing:0px;word-spacing:0px;" font-weight="bold" xml:space="preserve" font-size="40px" font-stretch="normal" line-height="125%" font-variant="normal" y="572.9447" x="125.56282" font-family="Aller" font-style="normal" fill="#363940"><tspan x="125.56282" y="572.9447">CONFIRME</tspan></text>
   <g transform="translate(-1088.9692,73.621252)">
    <g transform="matrix(1.2397708,0,0,1.2397708,504.19692,99.467457)">
     <rect transform="translate(542.14156,219.56604)" height="54.801" width="206.83" y="-0.38656" x="-0.35355" fill="none"/>
     <g transform="matrix(2.4262392,0,0,-2.4262392,580.95999,237.90454)">
      <path d="M0,0-0.788-0.777-8.35-8.323c-0.182-0.181-0.451-0.222-0.705,0.032l-1.47,1.451c-0.181,0.197-0.191,0.471,0.019,0.681l6.168,6.163,4.338-0.004z" fill-rule="nonzero" fill="#2b7883"/>
     </g>
     <g transform="matrix(2.4262392,0,0,-2.4262392,580.95999,237.90454)">
      <path d="M0,0,3.368-3.375c0.168-0.168,0.18-0.52-0.028-0.727l-1.467-1.463c-0.176-0.176-0.471-0.164-0.662,0.026l-5.549,5.543,4.338-0.004z" fill-rule="nonzero" fill="#2d9e9f"/>
     </g>
     <g transform="matrix(2.4262392,0,0,-2.4262392,553.68858,241.6885)">
      <path d="M0,0,0.768,0.761,8.179,8.173c0.182,0.18,0.491,0.208,0.707-0.031l1.471-1.45c0.19-0.188,0.19-0.471-0.018-0.681l-6.021-6.024-4.318,0.013z" fill-rule="nonzero" fill="#309751"/>
     </g>
     <g transform="matrix(2.4262392,0,0,-2.4262392,553.67911,241.70961)">
      <path d="m0,0-3.372,3.371c-0.169,0.168-0.18,0.518,0.028,0.726l1.465,1.466c0.176,0.176,0.471,0.164,0.661-0.024l5.54-5.543-4.322,0.004z" fill-rule="nonzero" fill="#63bc51"/>
     </g>
     <g fill="#FFF" transform="matrix(2.4262392,0,0,-2.4262392,606.99717,248.15904)">
      <path d="m0,0c0.865,0,1.504,0.303,1.918,0.908,0.414,0.607,0.622,1.447,0.622,2.528,0,1.078-0.208,1.918-0.622,2.518s-1.053,0.9-1.918,0.9-1.503-0.3-1.911-0.9-0.611-1.44-0.611-2.518c0-1.081,0.203-1.921,0.611-2.528,0.408-0.605,1.046-0.908,1.911-0.908m0-1.436c-0.752,0-1.412,0.123-1.976,0.373-0.565,0.247-1.036,0.589-1.412,1.026s-0.655,0.951-0.838,1.545c-0.182,0.595-0.271,1.238-0.271,1.928,0,0.692,0.089,1.334,0.271,1.927,0.183,0.595,0.462,1.109,0.838,1.545,0.376,0.437,0.847,0.782,1.412,1.037,0.564,0.256,1.224,0.383,1.976,0.383s1.412-0.127,1.976-0.383c0.564-0.255,1.035-0.6,1.41-1.037,0.376-0.436,0.657-0.95,0.837-1.545,0.182-0.593,0.273-1.235,0.273-1.927,0-0.69-0.091-1.333-0.273-1.928-0.18-0.594-0.461-1.108-0.837-1.545-0.375-0.437-0.846-0.779-1.41-1.026-0.564-0.25-1.224-0.373-1.976-0.373" fill-rule="nonzero" fill="#FFF"/>
     </g>
     <g fill="#FFF" transform="matrix(2.4262392,0,0,-2.4262392,625.28034,247.41054)">
      <path d="m0,0c0.237-0.085,0.483-0.145,0.734-0.182,0.25-0.036,0.577-0.053,0.978-0.053,0.452,0,0.866,0.069,1.242,0.208,0.376,0.14,0.699,0.355,0.97,0.644,0.269,0.291,0.481,0.658,0.639,1.102,0.157,0.441,0.234,0.967,0.234,1.572,0,0.97-0.184,1.74-0.554,2.311-0.37,0.567-0.976,0.853-1.816,0.853-0.315,0-0.614-0.056-0.903-0.164-0.289-0.109-0.546-0.272-0.772-0.492-0.226-0.217-0.408-0.493-0.544-0.825-0.139-0.335-0.208-0.731-0.208-1.193v-3.781zm-1.863,7.801c0.125,0.024,0.255,0.042,0.386,0.053,0.13,0.013,0.267,0.019,0.404,0.019,0.124,0,0.257-0.006,0.396-0.019,0.136-0.011,0.269-0.029,0.394-0.053,0.013-0.026,0.03-0.101,0.047-0.228,0.02-0.126,0.038-0.263,0.058-0.409,0.017-0.145,0.037-0.286,0.055-0.418,0.02-0.133,0.028-0.218,0.028-0.254,0.127,0.193,0.277,0.381,0.453,0.563,0.175,0.182,0.384,0.346,0.63,0.491,0.245,0.146,0.521,0.261,0.827,0.346,0.308,0.084,0.65,0.127,1.026,0.127,0.564,0,1.087-0.091,1.572-0.273,0.482-0.183,0.897-0.464,1.242-0.846,0.344-0.382,0.614-0.867,0.807-1.455,0.197-0.588,0.293-1.281,0.293-2.081,0-1.6-0.449-2.851-1.346-3.755s-2.166-1.353-3.809-1.353c-0.277,0-0.558,0.017-0.848,0.053-0.289,0.036-0.538,0.086-0.752,0.144v-3.605c-0.15-0.024-0.311-0.043-0.479-0.055-0.17-0.012-0.323-0.018-0.461-0.018-0.139,0-0.291,0.006-0.462,0.018-0.17,0.012-0.323,0.031-0.461,0.055v12.953z" fill-rule="nonzero" fill="#FFF"/>
     </g>
     <g fill="#FFF" transform="matrix(2.4262392,0,0,-2.4262392,660.73206,231.98451)">
      <path d="m0,0c-0.176,0.038-0.322,0.065-0.441,0.083-0.122,0.018-0.232,0.03-0.338,0.036-0.108,0.006-0.215,0.011-0.322,0.017-0.106,0.007-0.227,0.01-0.366,0.01-0.553,0-1.035-0.091-1.449-0.273s-0.757-0.436-1.025-0.764c-0.27-0.327-0.474-0.715-0.613-1.162-0.138-0.449-0.206-0.947-0.206-1.491,0-0.546,0.075-1.014,0.227-1.4,0.15-0.39,0.359-0.707,0.629-0.957,0.269-0.247,0.586-0.428,0.95-0.534,0.364-0.108,0.765-0.165,1.204-0.165,0.326,0,0.637,0.024,0.933,0.074,0.295,0.047,0.565,0.103,0.817,0.162v6.364zm0-7.89c-0.264-0.062-0.543-0.109-0.838-0.145-0.295-0.038-0.623-0.055-0.987-0.055-0.652,0-1.274,0.075-1.862,0.227-0.591,0.152-1.108,0.408-1.554,0.773-0.445,0.364-0.8,0.84-1.063,1.427-0.261,0.588-0.394,1.319-0.394,2.19,0,0.752,0.123,1.443,0.366,2.073,0.246,0.629,0.594,1.174,1.046,1.628,0.451,0.455,0.999,0.805,1.645,1.055,0.645,0.247,1.37,0.372,2.174,0.372,0.701,0,1.305-0.035,1.806-0.109,0.501-0.073,1.004-0.176,1.507-0.309v-12.788c-0.139-0.024-0.293-0.043-0.461-0.056-0.171-0.012-0.325-0.018-0.462-0.018-0.139,0-0.293,0.006-0.462,0.018-0.17,0.013-0.322,0.032-0.461,0.056v3.661z" fill-rule="nonzero" fill="#FFF"/>
     </g>
     <g fill="#FFF" transform="matrix(2.4262392,0,0,-2.4262392,668.29513,228.42571)">
      <path d="M0,0c0.139,0.024,0.295,0.042,0.471,0.054,0.175,0.011,0.326,0.017,0.451,0.017,0.139,0,0.295-0.006,0.472-0.017,0.173-0.012,0.331-0.03,0.469-0.054v-5.11c0-0.582,0.057-1.063,0.17-1.445,0.113-0.383,0.281-0.682,0.508-0.902,0.225-0.217,0.502-0.368,0.828-0.453,0.324-0.085,0.701-0.127,1.129-0.127,0.639,0,1.184,0.066,1.638,0.201v7.836c0.135,0.024,0.291,0.042,0.459,0.054,0.17,0.011,0.322,0.017,0.461,0.017,0.138,0,0.291-0.006,0.462-0.017,0.17-0.012,0.322-0.03,0.461-0.054v-9.039c-0.44-0.12-0.962-0.235-1.571-0.344s-1.239-0.164-1.892-0.164c-0.614,0-1.194,0.053-1.741,0.154-0.545,0.103-1.025,0.312-1.439,0.628-0.414,0.315-0.74,0.759-0.979,1.329-0.239,0.568-0.357,1.32-0.357,2.252v5.184z" fill-rule="nonzero" fill="#FFF"/>
     </g>
     <g fill="#FFF" transform="matrix(2.4262392,0,0,-2.4262392,704.36191,240.43025)">
      <path d="m0,0c-0.188,0.023-0.426,0.047-0.715,0.073-0.289,0.025-0.533,0.036-0.734,0.036-0.779,0-1.37-0.14-1.779-0.418-0.408-0.279-0.612-0.705-0.612-1.273,0-0.364,0.069-0.649,0.208-0.856,0.137-0.205,0.312-0.362,0.518-0.47,0.207-0.112,0.435-0.177,0.686-0.2,0.25-0.027,0.49-0.038,0.715-0.038,0.289,0,0.586,0.015,0.895,0.045,0.307,0.031,0.58,0.076,0.818,0.137v2.964zm0,1.764c0,0.715-0.188,1.212-0.564,1.491-0.376,0.277-0.923,0.418-1.638,0.418-0.44,0-0.85-0.034-1.232-0.101-0.383-0.068-0.755-0.155-1.12-0.263-0.238,0.399-0.356,0.879-0.356,1.437,0.426,0.132,0.894,0.235,1.409,0.309,0.515,0.071,1.01,0.109,1.487,0.109,1.253,0,2.207-0.277,2.862-0.828,0.651-0.552,0.977-1.433,0.977-2.645v-5.837c-0.439-0.097-0.971-0.196-1.599-0.301-0.628-0.101-1.268-0.153-1.919-0.153-0.616,0-1.17,0.054-1.667,0.162-0.495,0.11-0.915,0.286-1.259,0.528-0.345,0.243-0.612,0.553-0.8,0.928s-0.281,0.83-0.281,1.363c0,0.522,0.108,0.979,0.328,1.373,0.218,0.394,0.517,0.721,0.893,0.982,0.376,0.26,0.81,0.453,1.299,0.582,0.489,0.127,1.002,0.191,1.542,0.191,0.403,0,0.731-0.01,0.989-0.029,0.256-0.017,0.472-0.039,0.649-0.062v0.346z" fill-rule="nonzero" fill="#FFF"/>
     </g>
     <g fill="#FFF" transform="matrix(2.4262392,0,0,-2.4262392,712.33938,246.99808)">
      <path d="m0,0c0.339-0.133,0.713-0.237,1.121-0.316,0.408-0.08,0.812-0.12,1.214-0.12,0.287,0,0.564,0.031,0.827,0.092,0.264,0.061,0.491,0.151,0.688,0.274,0.193,0.12,0.35,0.268,0.468,0.445,0.12,0.176,0.179,0.372,0.179,0.59,0,0.241-0.046,0.443-0.141,0.599-0.092,0.159-0.219,0.291-0.376,0.401-0.157,0.108-0.338,0.203-0.544,0.283-0.208,0.076-0.43,0.154-0.669,0.226l-0.658,0.237c-0.804,0.291-1.386,0.617-1.751,0.982-0.364,0.362-0.546,0.854-0.546,1.471,0,0.826,0.305,1.479,0.913,1.964,0.61,0.485,1.503,0.727,2.683,0.727,0.487,0,0.968-0.043,1.44-0.137,0.468-0.089,0.879-0.196,1.231-0.317-0.026-0.243-0.073-0.484-0.142-0.728-0.068-0.242-0.153-0.465-0.254-0.672-0.276,0.098-0.604,0.191-0.988,0.282-0.382,0.091-0.794,0.136-1.232,0.136-0.465,0-0.875-0.079-1.234-0.235-0.356-0.159-0.534-0.438-0.534-0.838,0-0.205,0.044-0.38,0.131-0.526,0.087-0.145,0.206-0.271,0.359-0.373,0.15-0.103,0.322-0.191,0.516-0.263,0.195-0.073,0.403-0.147,0.63-0.219l0.827-0.272c0.303-0.097,0.588-0.214,0.858-0.346,0.269-0.133,0.501-0.3,0.695-0.499,0.195-0.201,0.352-0.444,0.471-0.729s0.178-0.626,0.178-1.027c0-0.447-0.093-0.858-0.281-1.227s-0.456-0.684-0.8-0.945c-0.344-0.262-0.762-0.464-1.252-0.61-0.489-0.145-1.029-0.218-1.617-0.218-0.604,0-1.131,0.039-1.582,0.119-0.451,0.078-0.871,0.184-1.262,0.318,0.027,0.242,0.08,0.488,0.162,0.737,0.083,0.248,0.173,0.493,0.272,0.734" fill-rule="nonzero" fill="#FFF"/>
     </g>
     <g fill="#FFF" transform="matrix(2.4262392,0,0,-2.4262392,733.04539,232.12912)">
      <path d="m0,0-1.468,0-0.075,0.255,3.235,3.491,0.153,0,0-2.308,2.445,0c0.05-0.209,0.075-0.438,0.075-0.691,0-0.135-0.006-0.262-0.019-0.383-0.012-0.12-0.03-0.241-0.056-0.364h-2.445v-4.255c0-0.508,0.02-0.914,0.065-1.217,0.044-0.303,0.119-0.537,0.226-0.699,0.107-0.164,0.252-0.274,0.431-0.329,0.183-0.054,0.412-0.082,0.688-0.082,0.214,0,0.414,0.016,0.601,0.046,0.189,0.03,0.359,0.064,0.509,0.101,0.088-0.243,0.141-0.49,0.161-0.746,0.018-0.256,0.028-0.48,0.028-0.674-0.251-0.061-0.515-0.104-0.79-0.137-0.278-0.029-0.573-0.045-0.885-0.045-0.903,0-1.608,0.212-2.117,0.638-0.509,0.423-0.762,1.126-0.762,2.108v5.291z" fill-rule="nonzero" fill="#FFF"/>
     </g>
     <text style="letter-spacing:0px;text-anchor:end;word-spacing:0px;text-align:end;" font-weight="normal" xml:space="preserve" font-size="17.15685844px" font-style="normal" line-height="125%" y="221.83688" x="758.2663" font-family="Sans" fill="#ffffff"><tspan style="text-anchor:end;text-align:end;" font-weight="normal" font-size="18px" font-style="normal" font-stretch="normal" font-variant="normal" y="221.83688" x="758.2663" font-family="Aller" fill="#ffffff">®</tspan></text>
    </g>
   </g>
  </g>
  <rect stroke-linejoin="round" stroke-dasharray="none" rx="10" ry="10" height="297.36" width="297.36" stroke="#b1daec" stroke-linecap="round" stroke-miterlimit="4" y="426.54" x="74.173" stroke-width="18.2" fill="none"/>
  <rect rx="9.81" ry="9.8102" height="293.16" width="293.16" y="428.64" x="76.275" fill="#363940"/>
  <rect height="61.619" width="330.82" y="558.41" x="57.441" fill="#b1daec"/>
  <path d="m-263.02,549.94-22.136-7.5716-18.713,14.042,0.36054-23.393-19.137-13.458,22.359-6.8858,6.8858-22.359,13.458,19.137,23.393-0.36054-14.042,18.713z" transform="matrix(0.67820592,0.1076423,-0.1076423,0.67820592,531.35801,341.53159)" fill="#f4e20a"/>
  <path transform="matrix(0.67820592,0.1076423,-0.1076423,0.67820592,417.88435,341.53159)" fill="#f4e20a" d="m-263.02,549.94-22.136-7.5716-18.713,14.042,0.36054-23.393-19.137-13.458,22.359-6.8858,6.8858-22.359,13.458,19.137,23.393-0.36054-14.042,18.713z"/>
  <path transform="matrix(0.67820592,0.1076423,-0.1076423,0.67820592,474.62118,341.53159)" fill="#f4e20a" d="m-263.02,549.94-22.136-7.5716-18.713,14.042,0.36054-23.393-19.137-13.458,22.359-6.8858,6.8858-22.359,13.458,19.137,23.393-0.36054-14.042,18.713z"/>
  <path transform="matrix(0.67820592,0.1076423,-0.1076423,0.67820592,588.0948,341.53159)" fill="#f4e20a" d="m-263.02,549.94-22.136-7.5716-18.713,14.042,0.36054-23.393-19.137-13.458,22.359-6.8858,6.8858-22.359,13.458,19.137,23.393-0.36054-14.042,18.713z"/>
  <path d="m-263.02,549.94-22.136-7.5716-18.713,14.042,0.36054-23.393-19.137-13.458,22.359-6.8858,6.8858-22.359,13.458,19.137,23.393-0.36054-14.042,18.713z" transform="matrix(0.67820592,0.1076423,-0.1076423,0.67820592,361.14753,341.53159)" fill="#f4e20a"/>
  <text style="letter-spacing:0px;word-spacing:0px;" font-weight="bold" xml:space="preserve" font-size="40px" font-stretch="normal" line-height="125%" font-variant="normal" y="601.77991" x="153.19168" font-family="Aller" font-style="normal" fill="#363940"><tspan x="153.19168" y="601.77991">EXPERT</tspan></text>
  <g transform="translate(-1086.64,102.45642)">
   <g transform="matrix(1.2397708,0,0,1.2397708,504.19692,99.467457)">
    <rect transform="translate(542.14156,219.56604)" height="54.801" width="206.83" y="-0.38656" x="-0.35355" fill="none"/>
    <g transform="matrix(2.4262392,0,0,-2.4262392,580.95999,237.90454)">
     <path d="M0,0-0.788-0.777-8.35-8.323c-0.182-0.181-0.451-0.222-0.705,0.032l-1.47,1.451c-0.181,0.197-0.191,0.471,0.019,0.681l6.168,6.163,4.338-0.004z" fill-rule="nonzero" fill="#2b7883"/>
    </g>
    <g transform="matrix(2.4262392,0,0,-2.4262392,580.95999,237.90454)">
     <path d="M0,0,3.368-3.375c0.168-0.168,0.18-0.52-0.028-0.727l-1.467-1.463c-0.176-0.176-0.471-0.164-0.662,0.026l-5.549,5.543,4.338-0.004z" fill-rule="nonzero" fill="#2d9e9f"/>
    </g>
    <g transform="matrix(2.4262392,0,0,-2.4262392,553.68858,241.6885)">
     <path d="M0,0,0.768,0.761,8.179,8.173c0.182,0.18,0.491,0.208,0.707-0.031l1.471-1.45c0.19-0.188,0.19-0.471-0.018-0.681l-6.021-6.024-4.318,0.013z" fill-rule="nonzero" fill="#309751"/>
    </g>
    <g transform="matrix(2.4262392,0,0,-2.4262392,553.67911,241.70961)">
     <path d="m0,0-3.372,3.371c-0.169,0.168-0.18,0.518,0.028,0.726l1.465,1.466c0.176,0.176,0.471,0.164,0.661-0.024l5.54-5.543-4.322,0.004z" fill-rule="nonzero" fill="#63bc51"/>
    </g>
    <g fill="#FFF" transform="matrix(2.4262392,0,0,-2.4262392,606.99717,248.15904)">
     <path d="m0,0c0.865,0,1.504,0.303,1.918,0.908,0.414,0.607,0.622,1.447,0.622,2.528,0,1.078-0.208,1.918-0.622,2.518s-1.053,0.9-1.918,0.9-1.503-0.3-1.911-0.9-0.611-1.44-0.611-2.518c0-1.081,0.203-1.921,0.611-2.528,0.408-0.605,1.046-0.908,1.911-0.908m0-1.436c-0.752,0-1.412,0.123-1.976,0.373-0.565,0.247-1.036,0.589-1.412,1.026s-0.655,0.951-0.838,1.545c-0.182,0.595-0.271,1.238-0.271,1.928,0,0.692,0.089,1.334,0.271,1.927,0.183,0.595,0.462,1.109,0.838,1.545,0.376,0.437,0.847,0.782,1.412,1.037,0.564,0.256,1.224,0.383,1.976,0.383s1.412-0.127,1.976-0.383c0.564-0.255,1.035-0.6,1.41-1.037,0.376-0.436,0.657-0.95,0.837-1.545,0.182-0.593,0.273-1.235,0.273-1.927,0-0.69-0.091-1.333-0.273-1.928-0.18-0.594-0.461-1.108-0.837-1.545-0.375-0.437-0.846-0.779-1.41-1.026-0.564-0.25-1.224-0.373-1.976-0.373" fill-rule="nonzero" fill="#FFF"/>
    </g>
    <g fill="#FFF" transform="matrix(2.4262392,0,0,-2.4262392,625.28034,247.41054)">
     <path d="m0,0c0.237-0.085,0.483-0.145,0.734-0.182,0.25-0.036,0.577-0.053,0.978-0.053,0.452,0,0.866,0.069,1.242,0.208,0.376,0.14,0.699,0.355,0.97,0.644,0.269,0.291,0.481,0.658,0.639,1.102,0.157,0.441,0.234,0.967,0.234,1.572,0,0.97-0.184,1.74-0.554,2.311-0.37,0.567-0.976,0.853-1.816,0.853-0.315,0-0.614-0.056-0.903-0.164-0.289-0.109-0.546-0.272-0.772-0.492-0.226-0.217-0.408-0.493-0.544-0.825-0.139-0.335-0.208-0.731-0.208-1.193v-3.781zm-1.863,7.801c0.125,0.024,0.255,0.042,0.386,0.053,0.13,0.013,0.267,0.019,0.404,0.019,0.124,0,0.257-0.006,0.396-0.019,0.136-0.011,0.269-0.029,0.394-0.053,0.013-0.026,0.03-0.101,0.047-0.228,0.02-0.126,0.038-0.263,0.058-0.409,0.017-0.145,0.037-0.286,0.055-0.418,0.02-0.133,0.028-0.218,0.028-0.254,0.127,0.193,0.277,0.381,0.453,0.563,0.175,0.182,0.384,0.346,0.63,0.491,0.245,0.146,0.521,0.261,0.827,0.346,0.308,0.084,0.65,0.127,1.026,0.127,0.564,0,1.087-0.091,1.572-0.273,0.482-0.183,0.897-0.464,1.242-0.846,0.344-0.382,0.614-0.867,0.807-1.455,0.197-0.588,0.293-1.281,0.293-2.081,0-1.6-0.449-2.851-1.346-3.755s-2.166-1.353-3.809-1.353c-0.277,0-0.558,0.017-0.848,0.053-0.289,0.036-0.538,0.086-0.752,0.144v-3.605c-0.15-0.024-0.311-0.043-0.479-0.055-0.17-0.012-0.323-0.018-0.461-0.018-0.139,0-0.291,0.006-0.462,0.018-0.17,0.012-0.323,0.031-0.461,0.055v12.953z" fill-rule="nonzero" fill="#FFF"/>
    </g>
    <g fill="#FFF" transform="matrix(2.4262392,0,0,-2.4262392,660.73206,231.98451)">
     <path d="m0,0c-0.176,0.038-0.322,0.065-0.441,0.083-0.122,0.018-0.232,0.03-0.338,0.036-0.108,0.006-0.215,0.011-0.322,0.017-0.106,0.007-0.227,0.01-0.366,0.01-0.553,0-1.035-0.091-1.449-0.273s-0.757-0.436-1.025-0.764c-0.27-0.327-0.474-0.715-0.613-1.162-0.138-0.449-0.206-0.947-0.206-1.491,0-0.546,0.075-1.014,0.227-1.4,0.15-0.39,0.359-0.707,0.629-0.957,0.269-0.247,0.586-0.428,0.95-0.534,0.364-0.108,0.765-0.165,1.204-0.165,0.326,0,0.637,0.024,0.933,0.074,0.295,0.047,0.565,0.103,0.817,0.162v6.364zm0-7.89c-0.264-0.062-0.543-0.109-0.838-0.145-0.295-0.038-0.623-0.055-0.987-0.055-0.652,0-1.274,0.075-1.862,0.227-0.591,0.152-1.108,0.408-1.554,0.773-0.445,0.364-0.8,0.84-1.063,1.427-0.261,0.588-0.394,1.319-0.394,2.19,0,0.752,0.123,1.443,0.366,2.073,0.246,0.629,0.594,1.174,1.046,1.628,0.451,0.455,0.999,0.805,1.645,1.055,0.645,0.247,1.37,0.372,2.174,0.372,0.701,0,1.305-0.035,1.806-0.109,0.501-0.073,1.004-0.176,1.507-0.309v-12.788c-0.139-0.024-0.293-0.043-0.461-0.056-0.171-0.012-0.325-0.018-0.462-0.018-0.139,0-0.293,0.006-0.462,0.018-0.17,0.013-0.322,0.032-0.461,0.056v3.661z" fill-rule="nonzero" fill="#FFF"/>
    </g>
    <g fill="#FFF" transform="matrix(2.4262392,0,0,-2.4262392,668.29513,228.42571)">
     <path d="M0,0c0.139,0.024,0.295,0.042,0.471,0.054,0.175,0.011,0.326,0.017,0.451,0.017,0.139,0,0.295-0.006,0.472-0.017,0.173-0.012,0.331-0.03,0.469-0.054v-5.11c0-0.582,0.057-1.063,0.17-1.445,0.113-0.383,0.281-0.682,0.508-0.902,0.225-0.217,0.502-0.368,0.828-0.453,0.324-0.085,0.701-0.127,1.129-0.127,0.639,0,1.184,0.066,1.638,0.201v7.836c0.135,0.024,0.291,0.042,0.459,0.054,0.17,0.011,0.322,0.017,0.461,0.017,0.138,0,0.291-0.006,0.462-0.017,0.17-0.012,0.322-0.03,0.461-0.054v-9.039c-0.44-0.12-0.962-0.235-1.571-0.344s-1.239-0.164-1.892-0.164c-0.614,0-1.194,0.053-1.741,0.154-0.545,0.103-1.025,0.312-1.439,0.628-0.414,0.315-0.74,0.759-0.979,1.329-0.239,0.568-0.357,1.32-0.357,2.252v5.184z" fill-rule="nonzero" fill="#FFF"/>
    </g>
    <g fill="#FFF" transform="matrix(2.4262392,0,0,-2.4262392,704.36191,240.43025)">
     <path d="m0,0c-0.188,0.023-0.426,0.047-0.715,0.073-0.289,0.025-0.533,0.036-0.734,0.036-0.779,0-1.37-0.14-1.779-0.418-0.408-0.279-0.612-0.705-0.612-1.273,0-0.364,0.069-0.649,0.208-0.856,0.137-0.205,0.312-0.362,0.518-0.47,0.207-0.112,0.435-0.177,0.686-0.2,0.25-0.027,0.49-0.038,0.715-0.038,0.289,0,0.586,0.015,0.895,0.045,0.307,0.031,0.58,0.076,0.818,0.137v2.964zm0,1.764c0,0.715-0.188,1.212-0.564,1.491-0.376,0.277-0.923,0.418-1.638,0.418-0.44,0-0.85-0.034-1.232-0.101-0.383-0.068-0.755-0.155-1.12-0.263-0.238,0.399-0.356,0.879-0.356,1.437,0.426,0.132,0.894,0.235,1.409,0.309,0.515,0.071,1.01,0.109,1.487,0.109,1.253,0,2.207-0.277,2.862-0.828,0.651-0.552,0.977-1.433,0.977-2.645v-5.837c-0.439-0.097-0.971-0.196-1.599-0.301-0.628-0.101-1.268-0.153-1.919-0.153-0.616,0-1.17,0.054-1.667,0.162-0.495,0.11-0.915,0.286-1.259,0.528-0.345,0.243-0.612,0.553-0.8,0.928s-0.281,0.83-0.281,1.363c0,0.522,0.108,0.979,0.328,1.373,0.218,0.394,0.517,0.721,0.893,0.982,0.376,0.26,0.81,0.453,1.299,0.582,0.489,0.127,1.002,0.191,1.542,0.191,0.403,0,0.731-0.01,0.989-0.029,0.256-0.017,0.472-0.039,0.649-0.062v0.346z" fill-rule="nonzero" fill="#FFF"/>
    </g>
    <g fill="#FFF" transform="matrix(2.4262392,0,0,-2.4262392,712.33938,246.99808)">
     <path d="m0,0c0.339-0.133,0.713-0.237,1.121-0.316,0.408-0.08,0.812-0.12,1.214-0.12,0.287,0,0.564,0.031,0.827,0.092,0.264,0.061,0.491,0.151,0.688,0.274,0.193,0.12,0.35,0.268,0.468,0.445,0.12,0.176,0.179,0.372,0.179,0.59,0,0.241-0.046,0.443-0.141,0.599-0.092,0.159-0.219,0.291-0.376,0.401-0.157,0.108-0.338,0.203-0.544,0.283-0.208,0.076-0.43,0.154-0.669,0.226l-0.658,0.237c-0.804,0.291-1.386,0.617-1.751,0.982-0.364,0.362-0.546,0.854-0.546,1.471,0,0.826,0.305,1.479,0.913,1.964,0.61,0.485,1.503,0.727,2.683,0.727,0.487,0,0.968-0.043,1.44-0.137,0.468-0.089,0.879-0.196,1.231-0.317-0.026-0.243-0.073-0.484-0.142-0.728-0.068-0.242-0.153-0.465-0.254-0.672-0.276,0.098-0.604,0.191-0.988,0.282-0.382,0.091-0.794,0.136-1.232,0.136-0.465,0-0.875-0.079-1.234-0.235-0.356-0.159-0.534-0.438-0.534-0.838,0-0.205,0.044-0.38,0.131-0.526,0.087-0.145,0.206-0.271,0.359-0.373,0.15-0.103,0.322-0.191,0.516-0.263,0.195-0.073,0.403-0.147,0.63-0.219l0.827-0.272c0.303-0.097,0.588-0.214,0.858-0.346,0.269-0.133,0.501-0.3,0.695-0.499,0.195-0.201,0.352-0.444,0.471-0.729s0.178-0.626,0.178-1.027c0-0.447-0.093-0.858-0.281-1.227s-0.456-0.684-0.8-0.945c-0.344-0.262-0.762-0.464-1.252-0.61-0.489-0.145-1.029-0.218-1.617-0.218-0.604,0-1.131,0.039-1.582,0.119-0.451,0.078-0.871,0.184-1.262,0.318,0.027,0.242,0.08,0.488,0.162,0.737,0.083,0.248,0.173,0.493,0.272,0.734" fill-rule="nonzero" fill="#FFF"/>
    </g>
    <g fill="#FFF" transform="matrix(2.4262392,0,0,-2.4262392,733.04539,232.12912)">
     <path d="m0,0-1.468,0-0.075,0.255,3.235,3.491,0.153,0,0-2.308,2.445,0c0.05-0.209,0.075-0.438,0.075-0.691,0-0.135-0.006-0.262-0.019-0.383-0.012-0.12-0.03-0.241-0.056-0.364h-2.445v-4.255c0-0.508,0.02-0.914,0.065-1.217,0.044-0.303,0.119-0.537,0.226-0.699,0.107-0.164,0.252-0.274,0.431-0.329,0.183-0.054,0.412-0.082,0.688-0.082,0.214,0,0.414,0.016,0.601,0.046,0.189,0.03,0.359,0.064,0.509,0.101,0.088-0.243,0.141-0.49,0.161-0.746,0.018-0.256,0.028-0.48,0.028-0.674-0.251-0.061-0.515-0.104-0.79-0.137-0.278-0.029-0.573-0.045-0.885-0.045-0.903,0-1.608,0.212-2.117,0.638-0.509,0.423-0.762,1.126-0.762,2.108v5.291z" fill-rule="nonzero" fill="#FFF"/>
    </g>
    <text style="letter-spacing:0px;text-anchor:end;word-spacing:0px;text-align:end;" font-weight="normal" xml:space="preserve" font-size="17.15685844px" font-style="normal" line-height="125%" y="221.83688" x="758.2663" font-family="Sans" fill="#ffffff"><tspan style="text-anchor:end;text-align:end;" font-weight="normal" font-size="18px" font-style="normal" font-stretch="normal" font-variant="normal" y="221.83688" x="758.2663" font-family="Aller" fill="#ffffff">®</tspan></text>
   </g>
  </g>
  <path d="m57.441,620.03,7.6282,0,0,7.6126z" fill="#76909d"/>
  <path d="m388.27,620.03-7.6282,0,0,7.6126z" fill="#76909d"/>
 </g>
</svg>
